<mxfile host="65bd71144e" scale="1" border="0" disableSvgWarning="true">
    <diagram id="L2odwPbH-FlqeG2IoBKK" name="第 1 页">
        <mxGraphModel dx="990" dy="444" grid="1" gridSize="10" guides="1" tooltips="1" connect="1" arrows="1" fold="1" page="1" pageScale="1" pageWidth="1200" pageHeight="1920" math="0" shadow="0">
            <root>
                <mxCell id="0"/>
                <mxCell id="1" parent="0"/>
                <mxCell id="4" style="edgeStyle=none;html=1;exitX=1;exitY=0.5;exitDx=0;exitDy=0;entryX=-0.002;entryY=0.459;entryDx=0;entryDy=0;entryPerimeter=0;" edge="1" parent="1" source="2" target="3">
                    <mxGeometry relative="1" as="geometry"/>
                </mxCell>
                <mxCell id="2" value="数据库" style="rounded=1;whiteSpace=wrap;html=1;fillColor=#00758f;" vertex="1" parent="1">
                    <mxGeometry x="240" y="80" width="120" height="60" as="geometry"/>
                </mxCell>
                <mxCell id="3" value="" style="shape=image;verticalLabelPosition=bottom;labelBackgroundColor=#ffffff;verticalAlign=top;aspect=fixed;imageAspect=0;image=data:image/png,iVBORw0KGgoAAAANSUhEUgAAAQMAAACbCAYAAABmk/5RAAAAAXNSR0IArs4c6QAAAARnQU1BAACxjwv8YQUAAAAJcEhZcwAAEnQAABJ0Ad5mH3gAAB6OSURBVHhe7Z0JeFRVssert+wbCUuAJCSEPUDYZRNEIYgIIgIuoDLqiMNTxuW5zHvjiDOOMzrPeTo4o44oKooKiiKyCgKyGfbFBAgECEtCCFkI2ZPunlunT5Ne7rndnXR3Ot31+762zzm9JB/m/m9VnTpVKqMEEAQR8Kj5M0EQAQ6JAUEQDBIDgiAYJAYEQTBIDAiCYJAYEATBIDEgCIJBYkAQBIPEgCAIBokBQRAMEgOCIBgkBgRBMEgMCIJgkBgQBMEgMSAIgkFiQBAEg8SAIAgGiQFBEAwSA4IgGCQGBEEwqCAq0aI8v3YHrMrKhRNFpdAtLgYGdm4HM/v3kB7d+TsIb0FiQLQYnV9ZDPnlFXxmTceocJjetxs8ekM/6N+xLV8lPAmJAdEiLNy4G17elMnGc4f0gdoGPXx/7Axcq61ja2ZCdVp4YtQAWDB6AHSOiuCrhCcgMSBahPnf/Ajv7D4CL42/ARZmjGBr12rr4fNDx+HfmUdh/4XLbM1MSmwUvDJxJNw3sBdfIdwNBRCJFuHiVXv3IDJYx9yCfQvug/fuugUGJ7TnrwCcKSmH2Z+vhwWrtsLuvALIKSqF4qoa/irhDsgyIFqEp1Zvgze3H4SMHl1gwyN38lV70Er4x45DkFVYzFfsGd89yfTolmQlIIRrkBgQLcLmU+dg/L9XsvG702+BecP7sbEc2YUlMOfzdXAwv4iviLkhKR5ulQRmUq8UNiach8SAaDFuXfwNbMjJg6SYSPjh0enQo20b/oo9VXX18PrWfWxcVFkNFyQ342J5BRSUVwl3JB4e1hf+lDGC7UwQjiExIFoMvONPXLySXdg3pSbAd3OnQmRwEH/VNT7alw0f78+GrbkX+IqJ3u1j4ZVbR7JtSkIZEgOiRVlx5CTM+nQNG/9qSBp8OGsCGzeVHWfz4aO9WfCB9LDkmTGDJFEYBSFaDV8hbNEslOBjgvA6aR3iAKT70bbTF+FQfhGbs7Umgi7H1LRUGJHUkbkTucVX2TruQGyRrIaUNlGQEhvN1ghryDIgfIJx733FTPyBndvDT7+ZCRFBOv5K8/hgTxb8YeMuyC+v5CuOA5aBClkGhE+QLN2x0ee/dE26aKXb0y3dk/gr1pRV18JjK39k7x3epSPEhAbzV+QZJInLpJ7JLC6B5x8QzHQ0SPfAcamJbE6YoKQjwifAACJmIyJ/2bIXcq6YLlxbzBf/t1m5MPDNz5g4OKKP5HasmjsV/sgzHZE/bcqE2z78FhoMZBibITEgfAZMS+4iWQjI6uzT7FmON6eOhfSO7ZgQvLnjIF91zIuS2Kx9aNr1mMS642dB98JbcKq4jM0DHRIDwqe4MaUze0ZTXgRaBygITWFSr2RY+eAUGJrYga8AdH/tI/g5r4DPAhcSA8KnuDGlE3vGYKLtYSVL0K0Y2zUBnhw9kK84T4+2MbDygSns82ZG/PNLlvcQyJAYED7FxB7JEBFs2klYnZ3LnkVsfWyGwwCiiIToCPjmwdvh1p7JfAVg1L++hPNl1/gs8CAxIHyKLm0iYVb/Hmz8/XGxq+AO2oSGwKq5U+CufqbsRIxBTPrgW6eCkv4IiQHhc5jFAN0E2/RidxOk0cCiO8ZB33hTUBFPR2JGpD4AdxlIDAifY2LPLjAq2RQ7UAokugs8yPTabaP5DOCHk+fYEetAg8SA8EnM1oHSFqM7ua1XCqukZGbRzkPwxeEcPgsMSAwIn2RWendoGx7Kko/e3nWYr3qW/71l2PX4AfL79Tshr7Scz/wfEgPCJ4mPDL9uHbwt3aWv1lgXSvUUr0++ERKjTYVX8ZDTixt3s3EgQGJA+CyPj0qHmJBgdqZg0U7nMw2bQ9fYaHjupiF8BrB0/zFWuDUQIDEgfBYsTPLfNw1m4xc37IZdefls7GkeHzUAJlgclELr4HDBFT7zX0gMCJ/mmTGDYWCndmw86p/LPb7VaObZsSYRQoorq+GDPb/wmf9CYkD4NFiZ6NN7J0G78FA2f3nTz+zZ00zo0QUeH5nOZwAf78tm5dr9GRIDwufp0yEW5o/oz2feA2MHGMhEymvr4JP92Wzsr5AYEK2CxbymIR5d9haJMZGs9ZsZLKhS7qVdjZaAxIDweb4+evJ6ByZzZqK3eHBwb8lV0bIxugkoCP4KiQHh8+w5X8iesSiJt1u192ofa2UdfLL/GB/5HyQGhM+DVY0RbwuBmTmDGpu97rtQCMsOnuAz/4LEgPB5jl4y7fH379iWPXsbdE2m9OnKZ6bYgT9CYkD4NCevlEFNfQMbD0/qyJ5bgtkWreA35uSx+on+BokB4dOYrYLUuOgW7Zl4d3oP1tPBjD9aByQGhE9zhHde7tFO3JTVW1haB18ezoHMc5f4zD8gMSBaBbGhIXwkz1kvHDVGMTBnQiL+Zh2QGBCtgtgwZTF4+QfPpynHR4bBbIudBUxRxpiGv0BiQLQKYhWqIOMRY2zJji3UPM39g3qDVm26bKrqG/zKOiAxIFoFp3g3ZVuwAMlLvADJ+hOej/Bj70ass2Bmyd5sKMD+kH4AiQHh08TzHQRRC7S//7SftV5HPuTnFzwNnmaM425LfnkFvOcnxU9IDAifpl+8KdFIzjdvMBjgm6zGRiu78wpg2cHjfOY5UuNirI43/0sSA7RQWjskBoRP05NvKZZU1UgXnLUg7DiTDwXlJhMd8xCQJfu848P/7uZhMDQxno3RMkELpbVDYkD4NFgh2SwI2M/Akk2nGufmVOVN0ntWWVgLniJYq4EXxjXWSkTrYM7n62HFkZN8pfVBYkD4PCO6mNKQzacXzeCFb6a/5E6YTxe++/NR9uxppvftBg8NTeMzgM8kFwW7MQ35xzL4d6Z3fgd3QmJA+Dwzecn0DSfyrCL358satxLTO7WD53lVY9xV8NZR4w9mToAnRg2AbnExfMXUFm7e15tbnSiQGBA+z229kiX/vINV5B5jCDg3g24C1h4wHzd+a8dBqNPr2djT/OOOm+Dk83Nh1dypzFJA1waxFIU1XmgT11w0CyX4mCB8lrKaOhYz2Hb6Iityolaprt91MXi4cMIINg7WaGDZoRPMgogOCYaRXqyMhLGNO9JS4eFhfaGXNFarVXDqylVWpQl/J4PRCONSE/m7fQ8SA6JVMCwxHvZeKGT5BhikO15UAnml19hr2CdxOm+LhgeaUBA2nzoPxy6XsPUYhexFTxCm07ITjnen94TZA3tCvcHAiqL8JAnZrrP5zILpzLs2+RIkBkSrQCPdZbGxyY+559ld3ywEyPPjhlgVPrkxpTOcLSmH7WcuwtWaWpgm3a1bCjxTMbl3CnSOCocdkhBkFZbAl0dypHkEi3P4EiQGRKshIlgHY7p2Zk1NTpdchb7xcfDqpNHwwODe/B2NTOubCj/nFcDXR09BcpsoGNDCF97ghA4wvkcXZtkcv1wK32blQkSQzqtujCNURgk+Jgi/495l65gobHlsBhOFlgbjBs+t2Q5v/HSAzfFY9Kf33srGLQ2JAeH3oCBgZ6YlszL4SsuDZdP+smUvc2XQlShe+Bh/peUgMSACgjs++o6dOHxpwnC+4htgkhIGRLGkW/7vf81XWwYSAyJgmP/Nj3BHn1SY2LMLX/Eu+eWVkFVYDFV19VAhPa7V1kmPejhacAWWHjjG4gc758/i7/Y+JAZEQPF+5i+suGlUSBBf8Sw/n7vEEo7WHD8DBy9e5qtiXhp/AyzMMOVMeBsSA4JwM3i68tk122HzyfOsYauI9hF4CCuW5UYMSWgPcwb2gohg74iUHCQGBOFmvpcsgSlLVvGZaUsUtzYHdGoP6R3bspyIHm3beD0ZyhEkBgThAR5Z8QN8wCsvYTbijvmzWGaiL0MHlQjCAzw9ZjBEcZMfYwWTP/yWjX0ZEgOC8AB9OsTCUzcO5DOArbkXoO8bS50KIrYU5CYQhAfBEu5PfreNnZFAwoN0rELSC+OGXi+57iuQGBCEh8G6Bi9u3GXVrHV4UjwTBDzy7CuQGBCEl3hlcya8uMHU48HM+zPGwyPD+vJZy0JiQBBeZM/5S7Bo5yH49EBjSfenxwyCN24fw2ctB4kBQbQAG3LyYNGOQywzEZnUKxnWPjSNjVsKEgOCaEG+OHQC3t51GHaezYdfDUmDD2dN4K94HxIDwnX0taAvOw0g/emoo5NBpQvjL3geY10FGGvLTI+aMlCFxIAqmD+CfK+UmLP8//YDLJ6wYNQAeHXSKL7qXfxaDLCC7l1Lv+czeTAt9L27buGz5oPVcHOulPKZPFvmzeCj1kHD+W2gP7MBDFfPgqH0JBjKrJuUqKOSQBWTKj13AU27fqDtfQ+otKYKwc3FWHsV9Bd2SL/DVmg4uQqM1Vf4K/aoQtuCtvsdoE28CTQJoyWBMHVZcpXan/8K+vxdfGZN2PTv+Mj9ZJ67BL/fsAvahAbD8jmT+ar38GsxyC4shrQ3lvKZPFhlV//ab/ms+Wief4tVsxHRp0McZD1zP5/5NsaaUqjb+3eoO/hPvuIc6ugU0PacCUF97wdVRGe+6jr1v3wCdfveAEP5eb7iPOqoRAga8gzo+j7AV5wHxaBuz+t8Zk3kghI+8hzYVRr/Lr1de8GvMxALK0zdeZXAC/foJfHdxhXwe5SEALlcUcVHvk39iRVQ/fVkl4UAMVw9wy6myqXDoXbb82Aocq1LsaH4GNSsnQs1Pz7ZJCFA8HP4efwe/L7WxMsZIyCpTSSfeQ+/FoNLTvbNX7znFz5qHs58z5XKap8XhPqjS6BmwzzQFzevo7GxvhIaJPdCFZ3MVxyjv7gLqlbPhvpT7jHH8XuqVt8HDZKr0ZrAYKK3ITGQwIIX7sDZ7yn0YTHAi6ZmyzN8Jg/64uqYVNB0HAbqNt0l30h8FJf57kHOFSJtOL0Oqr+/D4zljZl6cmBsQNM+nT1w7AhjeR5Ur74HGnJX8xVCDj93E5y76KrrG+BEkXLQzxH4efweZyi85ptiYKwsgLptz/GZPZq4XhAy8T2ImHcGwh/YC2Ez10P4/ZkQ+V8FEPHIcQibtRGChj3H3mcmaOB8PlJGX3QUan6YD8bacr5iDfvZY/4MEb8+IT1yIOyeLeyBY1zD1yx/rh31VVC7+88AtVf5AmGLf1sG5fYXXajgTPkHzXQVXPm8r7oJNVtfELoGmuQMCL1rDeh6zuQr1qjC2oMmfggED38BwmbvgohHcyH4pr+BOs7UGdkRGGPAnQM58CIPnfYN6Ab8RrIE7Psf4Bq+hu9REgRDSQ7UHnibzwhbAs5NiA0N4SNrFu8xFaJoKq58/rITgc2WwFC4n4+sUbcfCKETFoEqpA1fcQy+N6j/w3ymTN3BdyQTfg2fWYNuBoqLKrwDXxGD78H34mdE1Eli4GpAM1AIODGIC5cXg9LqGjjpID9ABH4OP28Jlr7WaeT/eX3RMjBUFEiPfD6zJihtjuwd2R0Y9bVQf+R9PrNG3bYvhE5awmfOEzL+bVBHCDoVST+vIVc59yRQ8fOYgf0dGBtWtOMts21pak9/uc9ha+64MPmf44tiYCzN4SN71JL57yn0p9eyZCY5dGmzJRGK4zPnwSQo3QBxU5L60+v4iLDEb8UA69KL3IRx3eTbYjfVVZD7nEkM5K0QX3QTMLNQhDoygY/cT/0p+bu0KrIz6HrdzWeuo0t/lO02yGG4kgUN57bwGWHGb8WgoFx+WxEtg3Gp8n/cKB7Y0NMV8P22ooPuQdfYaKFLUlQlLwZzPl8P4977SvbhKheuVsh+Dz7wCK0txgZrN8eShrxNfORe0CJAy0AObZfx7LxBU1FpgkDTUZzBpz+/lY8IM/4rBjJWAWISg0ThrsLnh07wkXPIvf/hoaZiFa66CRN6dGG18uQeyw+LzXg5copKZb8HH3hc1hZVmDgmUJ+lnNLdVPQXd7KYgRx4vqC5qDsO4yN7WltWojcIOMsATfee7doIrYP3M4/ykXPIvR9dBETsJsiLwXjJfcE23XJ8csC1P96TV8r4yJ5ucfZ3XNwaFIEHhTBf393oC02diOXAA0fNRdtlHB/Zo79CYmBLQLoJCFoHcuSVXoOzpfKJL7bg+/D9tgxNNG2DicSgorYeiqvszfLO0RGSdZDEZ9Zgiy5XEJ2cRCGUQ9N5lPQfcSYh5gG4WxD0l+TFwJUtTCWUjjUbKy4qnoAMRALSTUBuFgQREeyK6wxy75vRrzsf4Tam+BivKAtxQndxU9ADLpTZRjdBjtt6pfCRNehj67rfyWfyoCBgqjKeOWg2DdVgKDrMJzYEu0cMEKW4Q3PPXvgbgWcZ8KQjbM89JkX+eK2z2YRy73vYorilyDJARKnSE7ongUat4jNrXNn6FLkJo5I78pE92t6Oo/d4iKn627ugIe9HvtI0Gi7JJzgh6lDviAHUV/ABgQSsZYCIrAM8Z3CuzN78twRflzvPcKtFu29FMRD8ft3axgitg4/3ZfORMhiTELkJQxPj+cgebeJYCBn7Fz4Toy/YA9WrZkDN5gVgKHEt4HodBevCXW4CI0QsBsY65f/HgYbfisElgRluud0nyjdAVhxRjt7LvW4blFR0ExQSj0Rxg7KaWrZl6Ihjl0uwIpkdQRoNJMUon5PXpc9jh5GcoT7rU6hangF1ma+5fmEpiYGX3ASoI8vAkoB1ExB0E9BdkMORSS73uqWLgChbBgpiILkKIlZlWZcckwPFQI7xCt9rCR5GwjRgp44HSyJQK4lB9YqJTBycRTHu4EbLQKn0mZHcBCv8Ugz0BiMUCxJ7bPMLRK7CkYIrwrswruPrtsweaH1irikxA6RffFthPOPj/Y5dhWOF8mIwJEG8fWgLbu2Fz9oAOicPG2EwDt0GdB+ciicoXIjNSTayBQumChHkOAQqfikGmIosh1w//Ik9xNF7kasgt449923BpCOVfCzQYU0DTECSY+/5QqjT6/lMHpFlMCTB8ck/S1TRKRBy098gdPp3oO06ia8qg0JgjicY68RbtIqWgcLnXEYjFmSVLpyPCMQvxeBabR0fWYNVZ21B01m09y7KRpRbNycaWYK7AqIsxBKbU462ZAjiBsjqbOWcA1GhFlFuhSO0CaMh9PbPICTjXWG+vy0snrBsDBiKBZaM2tSuXA4sg+42auT/LRi61lta3RP4p2UgEINYwYUpukjwLpxfbm3O4hzXbbGNF5hpKwgiXquVt17MDEuMv568ZMvXR8V5ECiEcjsho5M7QUSwfHajs+h6zWLVjYJH/sGpeIKh/BxUfjaalR2zRanHAfZDcBfGWrEYkGVgTUC5CdEh8nejqWld+cge28QiuUQjzBwUpRGL4gblvEW3EqItRqXzEyIXYWJP54uSKqIJhqAhT7oUT6haNVMyFazdIsWGJ260DAzVCqXNSQysCCg3IVir4SNrJkkXCl7QcjgjBnIugpnIYHkBcmQZIEquwvYzF/nIms2n5EuLi85iNJXr8YSpy0HTaQRflcdQegpqdi7kM45WfCG6001Q/C4SAyv81E2Qv9CCNfJigIguFuyBZ4784zPObXlIoax1eJD86UhnLIOxXRMgrYN8cY/vsk/zkTWrZdYx0WqU5CZ4Am3yeAibscbhwSL9aeuyZt5yE5RiBloPFm1pjQSUmyCyDJCZ/XvwkT1ma0DOKgjRaiE5VlwKPFzgPuiNRqhtUN4VQDIEuwpyvwsmWu3OK+CzRpR2TNwF5iUo7ThgWTXL3gXqNt34yB63WgYCMcDiraAV7zQEIiQGnKl9ukJ0iPypPfNWotyWopKLgIjEABG5M5aIXIW80nK7XYP1J+TLh3nKKrAFKxQrYShurAiFbddEJc2w0EpTOylZghaGKDNSHT+Ujwgz/hkzqBHEDBTcBETkKvx0+iIUVVazZ1seGqpcClxJDMoFv6claBlg1SQ5bF2C7wXHnEcLEpjcDW5BapMz+MweLDdmiaat/A4Mos/fzUdNR39hOx/Zo2nfj48IMwFlGYQIqhuZmTOoNx/ZI2eWI4MdJPKEK/zMa3WOxQAbcIpcBcu4AQrL6mz7VGVs9JoukxDlKVRR4lwGwzVrMVXHil0zd4gBdo+WA1vIazqN5DPCTGAFEBXcBOSuft2Ex4flXIS708V/zGYiBLsJiDM7CojIVcAdBXOJ9i2556FOb2BjSybLlDjzKEb738GMOsL6+LTSBdmQu1Y2P8FZMO7QcHYDn1mj7T6NVVAmrPFPN6FWPlLvSAwQUQIS1g60xVG8AFF2E5zLjUfLID4yjM+sMWcjbjp5jj3bohQY9QS2roAlqjBrKwp3IEQdkIzVRVB3yLnTk3LUH/8SjDaWiBldt+aXVPNHAiuA6CBmgIgyCeUQme+WKAcQnbMM8DtESUPfSa4BHsySixfcJlkFoixGT4D5BEpigNuQtmgVLsy6Q+82qaS5sbIQGn75mM+s0XQYCJrkCXxGWBJQboKjmAFyjxOmP+LscWB3WAZIhiAbMbf4KnMR5Oo2umoV6C8fanpdwPoKqNn8hPAAEm4lyiUnocmuRO2OP/CR81R/e6ewpFnQoCf4iLCFLAMZbnQi+u6Mi4CIko4QZy0D5OZuCaw4iS24y7FFxoVJbhMliUFjPUZnqJfuppXLb4WabS9Y5QQ4AkWkZuN80Odn8hV7dH0f5CNr1LE9IWiouAU8WhpVKyZCw8lVfEWMvmAvVC4dJhQCXe97HIpPIKMySvCx3zD87S8g89wlPmvk3em3wLzhjreUlh44Bg98IR98MmN8/Uk+UgaDfGPeWcFn1rw0/gZYmKGcymvJhPdX2sUGsGELHk22TTZ6duxgeH3yjXzmGLygq764mc9MYANTbGaiju0O6rg0q6AbWhCGslyoP/YFExElsJxa6J3f8Jk9mFdQ/fVk0Bce5CvyaOIHgzZ1Cmik71NHdgZVUCQ7DGW4egYaTnwF9dJDhCokFsJmrFXcwTCDVaCx+Ksc2HLeVbAztRmsCoUY9XWg0oaAWrKWsH8Ehq2DbnievWb++ZELFM5VeAC/FIO+byyFrMJiPmvko7sz4MHBzrUIVz33Jh/ZM6BTOzj45Gw+UwYrGg9+axmfWfP0mEHwxu1j+Mwxf92yF363biefKbPniXtdihfU/PiUw4sak4TUcb3BiLGBSnuxlQMDhCGTljALQImG02uhet1Dkio53m51FUxwChm/CLRJzjVmURKDpmB5UTOLq7YMancuhOCbTX9j+LMw2Bk65XMmVhWLe4KxqsjrYkBugoDhXcRVhF0JMrojgGhmWloqHykzpU9Xl4TAKF3Y2ETF0bFkY3Uxa6jirBCo26Y5JQSItuttEDZ1Oeux6E7QugnJeMdpIfA0mJjFUAeZkrT4XNdvLtQfWczcInW7/mzN2/jp1qL83cWZAKKZXytc8M7GCxB3BRCRXu1joUOE/BajJU+MGsBHzqEKj5dM2d9B+N0bIWjQ4245549NU8OmrXRKCMxoEsdA2O3LZHcdmgrrBrXpcajPlrfOWgp0ESxRt0uHOkkMcAclqJ9kIbUAAbWb4IplILrgE2MiIcwFUXFXANFMuuSiKPHA4N6KBVWVUEUlQ/DoP0LY3ZtA1/8RacH1Pw/ctgsZ/za7Gyv1bxShbtePHYvGCs0YI3AHGFeokQSh8qMBLhVt9Rwq6R/KOhlNpVKBNvV2qM9Z6XSJOXfjlzGDhRvlU1nHdE1Q7KRki+X34P8sBP+5XAn6Yb3CVzfv4TN7XPku5Nk12+H/tsk3IMHU5cwn7nG51qEIttVYkgP68jwwYqBOepierTMD8aLVJN0C2pSJbB/fnTScWQeYjdhwZj1zU+yQLip1dDITMnV0Chgu7VXs4YhgIDQofR5o0+awIKQtzWkjh38ntpeUZQAR0Z/fBg0Xd19fx5/H3AW1DhryNkPwiP9ha7af8zR+KQb+zH3L1gkrHf129EB4c+pYPvM/jHUVLM2YPWrK2MWPuwq24A5HzdbnWO6DEqqITqDrM8frF52v4pdugj+z/4J8v0Usr/b4SOeKlbZWsCCKOjKBnXbEO6mcECCYTxD5m3MQNOQpviKPOjgKgocqvyeQIDFoRSzaeUjYNg2FAFuzEY0Ej3wRwufsBp3ki8sRNORpyc0I5jOC3IRWAh6UGveefFINZhounzOZzwg5MIOx9udXwVBqOoqOyUuhk5XzKgINsgxaAVhLYd7Xm/nMGqyRSELgGNYh6v7M6xmEzlZ2DiTIMvARbI9IYxdp7LqEbdyW7BOfBHQ2LZpoBDtHu5L/ECiQGPgIuI358ibxQR9bBie0h30L7uMzgmg+5Ca0QjBGQEJAuBsSg1ZEp6gIdtKRYgSEJyA3wUfILiyB5YdPwFdHT1mduMTUZ2wMi6Xc543oDx0jqQsQ4RlIDHyQkqoaOHmlDOLCQ6BbHOUOEN6BxIAgCAbFDAiCYJAYEATBIDEgCIJBYkAQBIPEgCAIBokBQRAMEgOCIBgkBgRBMEgMCIJgkBgQBMEgMSAIQgLgP4bWiVRdgy9dAAAAAElFTkSuQmCC;" vertex="1" parent="1">
                    <mxGeometry x="440" y="40" width="259" height="155" as="geometry"/>
                </mxCell>
                <mxCell id="11" style="edgeStyle=none;html=1;exitX=1;exitY=0.5;exitDx=0;exitDy=0;fontSize=16;" edge="1" parent="1" source="5">
                    <mxGeometry relative="1" as="geometry">
                        <mxPoint x="440" y="300" as="targetPoint"/>
                    </mxGeometry>
                </mxCell>
                <mxCell id="5" value="GUI" style="rounded=1;whiteSpace=wrap;html=1;fillColor=#1abcfe;" vertex="1" parent="1">
                    <mxGeometry x="240" y="270" width="120" height="60" as="geometry"/>
                </mxCell>
                <mxCell id="6" value="" style="shape=image;verticalLabelPosition=bottom;labelBackgroundColor=#ffffff;verticalAlign=top;aspect=fixed;imageAspect=0;image=data:image/png,iVBORw0KGgoAAAANSUhEUgAAAZEAAAH7CAYAAAANTqJrAAAAAXNSR0IArs4c6QAAAARnQU1BAACxjwv8YQUAAAAJcEhZcwAAEnQAABJ0Ad5mH3gAACm7SURBVHhe7d15mFxVmcfxXyXpJd2dztrZN0IIgYQlQMIuyCayCihEFBURl9FxQEcdHxzFGR0VR3QcZnBAQEH2TcK+ypoACQmEJITs+9JJZ+klvXfNvekXnxCSdPW9VV1V53w/z1NP3vfUk3+6b9evzr3nnptIBgQAQATd7F8AADqNEAEAREaIAAAiI0QAAJERIgCAyAgRAEBkhAgAIDJCBAAQGSECAIiMEAEAREaIAAAiI0QAAJERIgCAyAgRAEBkhAgAIDJCBAAQGSECAIiMEAEAREaIAAAiI0QAAJERIgCAyAgRAEBkhAgAIDJCBAAQGSECAIiMEAEAREaIAAAiI0QAAJERIgCAyAgRAEBkhAgAIDJCBAAQGSECAIiMEAEARJZIBqyGA5JV69W2drlaN6yUNq1VW9UGJbduUrJ6i9pqtkkNdVJjvZINO+x/oCO9xp5mFTpUWBS8CqWiYqlniVTWK/gB9pb69Gt/DaiQKgZLvfvaf0C+I0TyWNv6FWp9f47alsxV67L5alu5UMna7fYu0oUQyYCepdKQYdKwkdKI0dKo/YOAGWhvIp8QInkkubVSLXNeVuvc6WqZN0PJTevsHWQSIdJFwpnK2PHtrwMnSuXBDAY5jxDJcW1rl6nljWfUMvM5tS6YaaPoSoRIlux3gDThMGnipPZTYMhJhEgOStZVq+XlR9T88rQgON60UWQLIZIDxoyTJk0JXke3X2tBziBEckg402h+7j41P3+fjSAXECI5ZsoJ7a9wpoKsI0RyQPMr09T8+J/V+t4sG0EuIURy1Oix0gmnts9QkDWESBY1P3evmqbdunNVFXIXIZLjhgyXPnZ6++wEXY4QyYLml/6qpgdvJDzyBCGSJ8IwOeWT0hHH2AC6AiHShcKluY33/pda571uI8gHhEie2f9A6YxzpbEH2QAyiRDpAuEd441/uW7nRXPkH0IkT4Wnt866MPgFcr9JJhEiGdb81F/U8OdfSDtqbQT5hhDJY8U9pXM+LR17sg0g3QiRDGnbsEqNt/ybWt581kaQrwgRB0w4XDp/qtS/wgaQLoRIBjQ/f78ab/qJkuFmh8h7hIgjioqkCz4nTT7eBpAOhEiaNdx4zc5TWHAHIeKY406WLrrMGsRFiKRJ6+rFavzv7+3cVRduIUQcFO4afMmXpEFDbQBRESJpEG6QWP+7q7l47ihCxFHFxdJnv9K+wSMi48mGMTU9dpvq/+NKAgTINw0N0m03SK88ZwOIghCJoekvv1bjzddaByAv/fVu6cmHrEFnESIRNfzhR2q8P/gWAyD/Pfe49CALYqIgRCJo+K/vqvnJO6wD4ITpf5PuudUapIoQ6aSG316l5hcesA6AU2a+Jt31R2uQCkKkE3bOQF582DoATnprRjAjucUadIQQSVF4DYQZCOCJmdO5RpIiQiQFjX/5NddAAN+E10ieYNVWRwiRDjQ99ic1sQoL8NPzj0uvPm8N9oQQ2YdwB97Gm39iHQAvPXyXNP9ta7A7QmQvWlcvUf1vr7YOgNfuvkXauN4a7IoQ2YvGG74n7aixDoDX6ndI991mDXZFiOxBuBKrdeFs6wAgsGKp9CALbHZHiOym+W8PshILwJ5Nf1GaNd0ahAiRXbRVrlHD//2rdQCwBw/dKW3ZbA0IkV2Ez0RXPY+0BbAPjQ3SI/dYA0LEND99l1pef9o6ANiHeXOk11+yxm+ESCC5vUoNf/6FdQCQgscekGqrrfEXIRJovOM6qY6DAUAnhMt+2RaFEGmd97qan+X8JoAI3nhFWvq+NX7yPkSa7v0vqwAggmemWeEnr0Ok+ZVpapnLmm8AMSxZKM150xr/eB0iTQ/eaBUAxPDCE1b4x9sQCR8w1bZ8gXUAEMO61e2P1vWQvyHyKA/kB5BGrzxnhV+8DJHm6U+oddl86wAgDdaukt6ZZY0//AwRNlgEkAkzXrTCH96FSOv7c9TKiiwAmbD4PWnlUmv84F2IND93r1UAkAFvvmqFH/wKkYYdan7mbmsAIANef1lqarTGfV6FSPNLf7UKADJo9utWuM+vEHnF7+0JAHQRj+5g9yZE2jauVuu7M6wDgAwKt0Lx5OmH3oRIy+tPWQUAXeDd2Va4zZ8QedPPu0kBZMn8t61wmxchkqzesvO5IQDQZcLnjNTVWuMuL0KkZc4rVgFAF3rf/e2VvAiR1nf93F0TQJYtec8Kd/kRIvPesAoAupAHj851PkTaKteqbf0K6wCgC22ulLZWWeMm90Nk0RyrACALVi2zwk3Oh0jrkrlWAUAWrHb7TIj7MxEePgUgm8KHVTnM/ZnIyoVWAUAWrF9jhZucDpHk9iolt/mxfw2AHFVTLdXWWOMep0Okba3bF7QA5IlNG6xwj9shstHtc5EA8kTVJivc4/bprMq1VgFAFjl8r4jbM5Gq9VYBQBZt32aFe9yeiXBRHUAuqNluhXvcDpHtbm83ACBPsDorPyVr3U1/AHmkvs4K9zgdImpw9xcHII80NljhHrcvrDfssAoAsqix0Qr3uD0Taay3AgCyqLnJCve4HSIAgIwiRAAAkREiAIDInA6RRFFPqwAgiwoKrXCP2yFSXGIVAGRRUZEV7nH7dFZxqRUAkEVFxVa4x+2ZSFlvqwAgi3q6+4XW7RDp3d8qAMiisl5WuMftEOkzwCoAyKKycivc43SIdOs/xCoAyKI+fa1wj9szkYHDrAKALOrr7ql1t2cig0ZaBQBZ1L/CCve4HSLDxlgFAFlUMdgK97h9Oqt3fy6uA8iuXuWszspn3UeNtwoAsmDIcCvc5HyIdBszwSoAyIJhbl+bdX8mMvZQqwAgC0aMtsJN7s9Exk2yCgCyYKTbC3zcD5GBw9RtiNvfBADkqAEDnb5HJOR8iIS6TzzaKgDoQvsfaIW7/AiRQ463CgC60NiDrHCXFyHSY9KJVgFAFzrQ/dWhXoRIoryfuk88xjoA6ALhqazSMmvc5UWIhHpMOc0qAOgCEw63wm3+hMgxZ1oFAF3gkCOscJs3IdJt0Ah1P+RY6wAgg8aOl/r5sW+fNyESKjjxPKsAIIMmTbHCfX6FyEmfsgoAMugIfxbyeBUiKi5RwRmftQYAMuCYj0mFRda4z68QCRScdolVAJABU06wwg/ehUj3Ayepx2HcwQ4gA8IL6qP2t8YP3oVIqMeZn7cKANLouI9b4Q8vQ6TguLPUnYdVAUin8OFThx1ljT+8DJFQwblftgoA0uBEP3fF8DdETvm0uu13sHUAEMPQEdJkP6+1ehsiocKLvmEVAMRwyllW+MfrEAnvYGcrFACxHHCQV3eo787rEAkVTb3KKgCI4PRzrfCT9yESPmek4PSp1gFAJxx9ohePwN0X70MkVHTZ95UoLbcOAFLQs0Q660Jr/EWIBBK9+6voiz+0DgBScM6npTK+fBIipuATl6rHMZ+wDgD2YeIk6ZiTrPEbIbKLoit+HExRS60DgD0o7imdz3XUDxAiu+g2cLiKv/bv1gHAHlxwqTdPLUwFIbKbgo9fpIJPXmYdAOziuJOlo46zBiFCZA+Kv/4zdR/vx0P2AaRo9P7SRXzB3B0hshdF3/o1y34BtAuX8158uTXYFSGyF91HjFXxVddbB8Brn71CGjTEGuyKENmHHlNOV9GVP7UOgJfCC+kTDrcGuyNEOlB4zpdU+JlvWQfAK6eeLZ1wqjXYE0IkBUWf/x4rtgDfhI+6ZVuTDhEiKQpXbIUPsgLggcnHSRd93hrsCyHSCcX/9BsVnHyBdQCcdOSx0tQrrEFHCJFOKr76d8xIAFeFj7i99CvWIBWESAQ7ZyRcIwHcEl4Dmfpla5AqQiSi8BoJq7YAR5x2NtdAIiJEYghXbXEfCZDnPvVZ6ZOswoqKEIkpvI+k5zV/ZIsUIN8UF0uXf0s68TQbQBSJZMBqxNC2Zqka/vt7al34lo3AFb3G8iHjnFH7S5d8SRo01AYQFSGSZg1/+JGan7zDOriAEHFMuJ07u/GmDSGSAc1/e0iNN/1YyR01NoJ8Rog4oqhIuuBz7ct4kTaESIa0Va5V4y0/VcvrT9sI8hUh4oBwA8Xwkbb9K2wA6UKIZFjTM3er6fZfKlmzzUaQbwiRPBZePD/nM9KxJ9sA0o0Q6QLJ7VVqvPM/1fz0XTaCfEKI5KkpJ7RvoNirtw0gEwiRLtQy73U13/d7tbzzmo0gHxAieWb/A6UzzpXGHmQDyCRCJAtaXn1UTQ/eqNZl820EuYwQyRNDhkunfFI64hgbQFcgRLKo+YUH1DztFrUuX2AjyEWESI4Lw+Njp7efvkKXI0RyQMurj6n58T+rZcGbNoJcQojkqNFj2586OGmKDSAbCJEc0rpgppqfu0/Nz99nI8gFhEiOCWcc4Wu/A2wA2USI5KBkXbVaXn5EzS9PC4KF2Um2ESI5YMy49hnHpKOlniU2iFxAiOS4trXL1PLGM2qZ+dzOmQq6HiGSJeFMY8Jh0sRJUsVgG0SuIUTySHJrpVrmvKzWudPVMm+GkpvW2TvIJEKki/TpJ40d3/46cKJUzv0d+YAQyWNt61eo9f05alsyd+dy4baVC5Ws3W7vIl0IkQzoWSoNGSYNGymNGN2+q+6AgfYm8gkh4phk1Xq1rV2uto2rlKxco7aqDcEMZpPatle1B0xDndRYr2TDDvsf6Agh0gmFRcGrUCoqlkqCoCgtC36AwYwinGX07S/1H9B+aqp3X/sPyHeEiGN2bJGq10s1G6W6qqAPXvVBdjTWBK9aqaUheDW2v5CayzzcrWZdcHwsC75vrAyOlzX10vrGpDY3JVTVlNT2Fqm2NaH61qR2tNp/MCXdg0lG8CoNXn16BJkR5ElF8BpSnNCwoqRGlyQ0piTog6yBGwiRPBYGxabF0pZlwWuFtHW11BT84SO9XA+RZTuSml2d0NxqaV5NUu8FXzaqg6DIpN4F0kHBRGViL+nQcunI3gmN7mlvIq8QInmkflvwDXGutHG+tGFB+0wDmedaiGwIZhkvVSX12lZpRnhMBbONXDCsWDq2b0In9E3qpH4JDWS2khcIkRwXnppaPUtaM1uqfN8G0aVcCJElwQz1qc3Ss8Fr1rb8+JOf0ieh0wdIZ1YkNaYkYaPINYRIDgpPSa2YLi2fEQTHQhtE1uRriGxrlh7akNS0yoRm5klw7M3RfaTzByV0wWCpvIcNIicQIjkknGkseVFa+pINICfkW4jM2Crdsz6pB4JZrIsuGZrQ1CHhTMUGkFWESA5Y+br0/jPSRmYdOSlfQuSvwazjtjXSLE9uFZrcW7p8RPsMBdlDiGTR0pelhU9KW1baAHJSrofIPeukm1cHx1Ktn3/K48ukK4MwmRrMUND1CJEsWDFDmv9o+7Jc5L5cDZGHN0o3LE9qIcu6dzqoLKF/GJXUhYMJk65EiHSh8CL53Iek9fNsAHkh10IkXJr722XJnctz8VHH9pWu3i+h47kpvksQIl2goVp6+z5p8Qs2gLySKyFS2SRdt1S6ex1/sqmYOlT6wf4JDSy0AWQEIZJhYXDMuad9yxHkp1wIkTvWSj9fnFTNbtuMYN96dZeuOSChy4bZANKOEMmQ2vCmrjuk1TwCJO9lM0RW1kvXLpae2cSfaRxnVAQ/xyBMRrG1StoRIhmw7BVp5p+lJjbKdUK2QuTedUn9aJE+sskhogk3hfzZgdLFQ7jwnk7d7F+kyRu3Sa/dSIAgnn9ZKH3nPQIkneqCn+XVC8KfLd+b04kQSZPt66SnrpUWPWsDQAQLa6VzZiZ1x1o+6DIlvL507qykFtXxM04HQiQNVr8VBMiPpU2LbACI4InKpM4LPtzmVNsAMmb2dun8WQk9vckGEBkhEtPCp6UXf8PpK8Rz86qkrny3/ZQLukZ1S1JfnpvULauZkcRBiMQw5972C+hAHD9fkty5AgvZ8eNF0q+WWoNOI0QieuNWad4j1gARfX9hUv/L3mlZ9/sVSf2Q5/VEQohEMP0P0qLnrAEi+sf50p1rrUHW3b4mqasWWIOUESKd9Nr/tu++C8TxjXnJnQ+MQm65f31S3w7CHakjRDohnIEse9UaIKJwBjJtozXIOQ8G4X7VAgI+VYRIisJrIMxAENf3F7Y/sha57f710g+5KTElhEgKwlVYXANBXD9fEl4D4YMpX9y+Nly1xe+rI4RIB8L7QFiFhbhuWhWuwuIDKd/8foV0K/eR7BMhsg9r3uI+EMT3eKX0U+4DyVv/ukh6ZrM1+AhCZC+2B1PZV2+0Bogo3AuLi7T5758WSIvZa2uPCJG9mHGT1MxWJogh/Mj5zntJduJ1QHVzUt99zxp8CCGyB+FKrE2cfkBM3w8C5B02U3TGW9tZsbUnhMhuwgdKsRILcd29TroreMEt4YqtB9Zbg50IkV3Ubmp/qBQQx/Id0jXv843VVeHvdnWDNSBEdhU+E72FgwMx/XhRUo1t1sA5ta3StTw76O8IEbP4BWn1LGuAiP60Rnqhyho466lNSf2FzTN3IkQCDdXS7LusASJaH8xiw2eDwA/h73pzkzUeI0QC4bYmPJkQcf1qmVjO65HqFrZFCXkfIhsXSEv+Zg0Q0UtVyZ3biMMv4Qq8GVut8ZT3ITL3YSuAGH63ImEVfHP9cr+/PHgdIitmSBt4AA1iCu8beHMbsxBfTQ9mIo94/HwYr0Nk3jQrgBj+h915vfc/K/w9BrwNkfABU1tXWgNEFD4fZFGdNfDW/Nr2R+v6yNsQWfiUFUAMf1xtBbz3x9V+XhfzMkRWviFtWWENENHDG8QsBH83ryapxyv9m414GSJssIh0uG0N10LwYbev9W824l2IhFu8syILcb2+rX1rcGBXr25JarZnx4V3IbL0JSuAGO5hm3fsxT3r/JqhehUiLY3tGy0CcWxr9nclDjp2Z/AFw6ftb7wKkeWvWQHE8NAGAgT79tAGKzzgVYismG4FEMO0SrY4wb49stGfLxrehEj41MINC6wBIlpSJ81kixN0INwKZVW9NY7zJkRWzbQCiOGpzVYAHQgfXOUDb0JkzWwrgBieJUSQomc8OVa8CJHGmvbnhgBxbGiUZnEqCykKnzOypdkah3kRIuvmWgHEED54CugMH44ZL0KEC+pIh9c8f4IdOu+1re6v5PMiRDa+ZwUQw4xtVgApmuHB6U/nQ6R2s1Tj0Y0/yIzl9dK6BmuAFK3YIa1x/LhxPkSqllgBxMBmi4hqTrUVjnI/RJZZAcQw1/EPAmTOO4RIfuPhU0iH8IFDQBSuHzvOh8g2Hl+KNHiv1gqgkxY6fuw4HSINwTSynnPZiCm8oF7dYg3QSZuapM3By1VOh0j1eiuAGJbtsAKIyOVjyOkQqa20AohhJUt7EdMqh48ht0OEzfKQBms82dIbmePyMeR0iOyosgKIYYPD57PRNcLNO13l/IV1IK5NDn8AoGtUcmE9PxEiSIeqJu4RQTwuH0NOh0hTnRVADNtZ3ouYXD6GnA6RZi6IIg1qW60AIqptdXdLeKdDpIVz2UiDHcxEENOOFk5n5aVWVtUgDerbrAAicvkYcjpEAACZRYgAACIjRAAAkTkdIt0LrQBi6MlXLcTk8jHk9J9HjyIrgBhKelgBROTyMeR0iBT0tAKIoay7FUBELh9DTodIYakVQAy9mYkgJpePIadDpLjcCiCG/oXu3m2MruHyMeR0iPTsbQUQQwXX1hBTRQF3rOelnv2sAGIYzCo/xDSkmJlIXiobYAUQw3AWaCAml48ht0NkoBVADKOKrQAiGunwMeR0iJQPsQKIYUyJFUBELh9DTodIuDqLi+uIa2jwLbKcZb6IqKJQGuDwdTWnQyTUZ4QVQAwHlVkBdNJ4x48d50Ok32grgBgm9uJeEUTj+rHjfIj0H2MFEMOh3LiKiA5z/NhxP0TGWgHEcCTX1hDRJEIkv4X3ivQabA0Q0X492y+wA50xuiSh4Y4fN86HSGjQQVYAMRzbxwogRT4cM16EyOCDrQBiOL6vFUCKju/r7p5ZH/AiRIYeagUQw0n9WaGFzvHhmPEiRIp6SYOYjSCmwUXSUX0IEqTm2GDm2q/AGod5ESKh4UdYAcRwOpt6IkVneHKseBMiIydbAcRwJiGCFJ1Z4ces1ZsQKavgAjviG1sqTeaUFjpwXN/gi6snjxDwJkRCo4+zAojhvIHur7hBPOcP8ueLhlchst/xVgAxXDiYmQj27UKPbnD2KkR6FEkHnGINEFGfAukzQwgS7Nnnhkol3a3xgFchEtr/JCuAGKYGHxTAnkwd6tcXDO9CpOIAachEa4CIjunDpoz4qHBXgyM8Oy68C5HQAadaAcRw+XBOaeHDvjjcCo94GSKjjuZhVYjvgsHSgWUECdqFD586e6B/x4OXIRIaf6YVQAxXDGe5L9p9ZYSfx4K3IbL/x6S+o6wBIvrcsITGlVoDb00o83fFnrchEpp4nhVADN/ky4j3vjna39OaXofI6GOlwROsASL6dPANdApboXjr+H4JnT/IGg95HSKhQy+wAojhqtFcG/HV1Z4v0vE+RMLnjIz9uDVAROHDh7iL3T+XDm1/bojPvA+R0KRLpMISa4CIfjDGr+0ufFfeI/id788XB0IkUFwuHXGpNUBEQ4qla8byoeKL8Hc9oNAajxEiJtyYccRR1gARfWm4dEp/a+Cs8IFTnx9mjecIkV0cdZlUEHybBOL4t3EJFfGX5ayy7tK146wBIbKr8OmHUy63BohovxLp5wdyWstV4e92BF82/44Q2c2YE6Vxp1kDRPTZoe0rd+CWLwwL7wuyBjsRIntw9Jfbt4wH4rjuoIQOK7cGeS/c+v8X45lh7o4Q2YtjvyoVsicSYgg/bq4PgoRlv/mvVw/pNwdZgw8hRPaidzBtPf7r1gARjS+Tfncw317z3e8nJHRAKb/HPSFE9mH4kdLkL1oDRHT2QOknnB7NW/8+TjpjgDX4CEKkA+M/IU083xogoq+OTOgfRvFNNt98e7T05RH83vaFEElBuC0KK7YQ1zVj258/gvwQrsRiW5OOESIpCldshQ+yAuK4brx04WA+mHLdZ4awEitVhEgnHPd1acwJ1gAR/fcE6TyPnz+R6y4KQp7FEKkjRDrp+H9gRoL4bpyYYEaSg8Lt/H/Pg+o6hRCJIJyRcI0EcYUzks+xiV/O+MLwcAZiDVJGiEQUXiM55FPWABFdNz5ctWUNsubboxP6xYHWoFMIkRgOv1ia/AVrgIjC51Jcy30kWfNv48JVWNag0wiRmMafKZ38XZ6MiHiuHJnQzYckVMoWKV2mV/CzvvXQhK7gPpBYCJE0GHGk9Imfsmkj4jlroDTtqIQmsWljxh3RO/hZTw7+bitsAJERImnSZ5h0ZhAkXHBHHOFeW49NTugybkrMmMuCv9VHg7Aex15YaUGIpFl4wf24r0k9eGgNYvjl+HAHYLEDcBqFpwp/e3D4syU80okQyYD9T5LO+WX7Bo5AVJcMTei5oxM6o4IPvbjOqJCeDX6WFw/hZ5luiWTAamTAouek2XdLzfU2gLxz2V1WZNEda6WfL06qptUGkJLw4vk1B4SnB20AaUeIdIH6bdLb90lLXrQB5JVcCJFQZZN03VLp7nX8yaZi6tD2DRQHFtoAMoIQ6UIb5ktzH5I2vmcDyAu5EiIfeG2r9NtlSc0Ivpzgo47tK129X0LHB/8i8wiRLFj+mjT/UWnrKhtATsu1EPnAwxulG5YntbDOBjwXrmz75ih2Se5qhEgWhae33ntS2rbaBpCTcjVEPnDPOunm4BhaWOvnn3IYHleOCE9fER7ZQIjkgBUzgg+Ap6VNi2wAOSXXQ+QDf92Q1G1rpFnbbcBxk3tLlwfhcf4gwiObCJEcUvl+++xk6Us2gJyQLyHygRlbg9nJ+qQeWG8DjgmXPk8dIk3pYwPIKkIkBzXVBbOT6dLyYIZSudAGkTX5FiIf2NYsPRTMTh7ZmP+zk6ODwAhnHBcMlsp72CByAiGS46qDb5OrZ0lrZrfPVND18jVEdrUk+GLy1Gbp2U1hoOTHn/yUPgmdPkA6syKpMSWcsspVhEgeCe83WTdX2jhf2rBAqquyN5BRLoTIrjY0Si9VJXcuFQ6XCa9rsDeybFhxuDw3oRP6JnVSv4QGFtkbyGmESB6r2ShtWixtWRa8VkhbV7efCkN6uRYiu1u2I6nZ1QnNrZbm1ST1Xm0wA26xNzOkd4F0UKk0sZd0aLl0ZO+ERve0N5FXCBHH7NjSfgqstjJ4bQ76YLZSv11qCD4gwoBpCb51tgTfRMMXUuN6iOzJuuD4WBYcLyuD42VNvbS+ManNTQlVNSW1PQiYmuBV3xq82uw/mHDDyJ7BK9zssG9BQv0KkqoolIYUJzSsKKnRJQmNKQl6ZhnOIEQcs7a5Rksaq7S8aZtWNW3X2qZqbWyu1eaWHdrWWq+atqbgD79FdcG/SE3d4T+yCsDuCJE8trRxq2bWrdHs+vV6p36D5tVXBkGRIye4HUKIAHtHiOSRDcGM4vmaZXqxdoVeqVmh1c3V9g4yiRAB9o4QyXGLG6r0WPUiPRG8pteyP0o2ECLA3hEiOWh7a4Pu3TpfD2ybr9dq2aUx2wgRYO8IkRwyvW61bq96W3dsecdGkAsIEWDvCJEc8OC2Bfq/zbOYdeQoQgTYO0Iki+7cMlc3bHpTc+s32AhyESEC7B0hkgUPBDOP6yun650dhEc+IESAvetm/6ILvFK7UmcvvVNfXPEQAQLACYRIFwjvFv/H1U/ozCV36MWa5TYKAPmPEMmw26rm6PCFN+rWqtk2AgDuIEQyJNy36rPL79e3Vj+urS31NgoAbiFEMuDure/q6Pdv0rTtPEUKgNsIkTS7es2T+srKR1Tdyl7rANxHiKTJooYqnbr4T7pp81s2AgDuI0TS4PHti3Ty4tv0et0aGwEAPxAiMd24aaYuXn7fzk0TAcA3hEgM167/m/557dPWAYB/CJGIrlrzpH698TXrAMBPhEgEX101TTdzAR0ACJHOumLVIzt33wUAECKdEs5A7tnyrnUAAEIkReE1EGYgAPBhhEgKwlVYXAMBgI8iRDoQ3gfCKiwA2DNCZB/CO9G5DwQA9o4Q2Yv3GzbrylXTrAMA7AkhshffWP0YW5kAQAcIkT24avWTeoPNFAGgQ4TIbu7aMlc3V7ESCwBSQYjsYmXTNl295inrAAAdIUR28YO1z6q2rck6AEBHCBFza9VsPcoz0QGgUwiRwKaWOv1o3QvWAQBSRYgErl33N5bzAkAE3ofIK7Ur9actb1sHAOgM70PkPza8bBUAoLO8DpH7t87Xy8FMBAAQjdchcn3ldKsAAFF4GyLhA6bm1m+0DgAQhbch8j+b3rQKABCVlyHy8Lb39E79BusAAFF5GSJ/rJptFQAgDu9C5M26tXqxZrl1AIA4vAuR27mxEADSxqsQqWtr1m1Vc6wDAMTlVYjcu/VdqwAA6eBViNy/dYFVAIB08CZEVjRt08u1K6wDAKSDNyEybdtCqwAA6eJNiDxRvdgqAEC6eBEiVS07dj43BACQXl6EyPM1y6wCAKSTFyHyIhfUASAjvAiRV2tXWQUASCfnQ2RV03YtbdxiHQAgnZwPkZk71loFAEg350Nk9o71VgEA0s35EOHhUwCQOc6HyPyGSqsAAOnmdIhsaqlTZXOddQCAdHM6RBazKgsAMsrpEFnRtNUqAEAmOB0i4T0iAIDMcTpE1jZVWwUAyASnQ6SyZYdVAIBMcDpENrewMgsAMsnpENna2mAVACATnA6R2rYmqwAAmeB0iNS1EiIAkElOh0h9W7NVAIBMcDpEAACZRYgAACIjRAAAkTkdIj27FVgFRFPCMQTsk9MhUtq90CogGkIE2DenQ6SsGyGCeHpxDAH75HSI9O1ebBUQTZ/uPa0CsCdOh8iAHqVWAdEMKCixCsCeOB0iA3vwAYB4BvUoswrAnjgdIsMKy60Cohla0MsqAHvidIiMLOxtFRANxxCwb06HyOjCvlYB0exX2McqAHvidIgcUNTPKiCascX9rQKwJ06HSEWPUg0sYIUWoundvVjDC7iuBuyL0yESmlA80CqgcyZy7AAdcj5EDus52Cqgcw4r4dgBOuJ8iBxRMsQqoHM4doCOOR8ik0uGWQV0DscO0DHnQyRc578/q7TQScMLyzWW4wbokPMhEjqhbKRVQGpOKB1lFYB98SJETi4bbRWQGo4ZIDVehMipvcZYBaTm1HKOGSAVXoRI/x4lOrGM0xNIzTGlw9l4EUiRFyESOqv8AKuAfTur9zirAHTEmxA5r894q4B9O7ecEAFS5U2IjC7so49xSgsdOLZ0hMYVD7AOQEe8CZHQZ/pOsArYs4v6HGwVgFR4FSKX9D3EKmDPpvadaBWAVHgVIqXdCnR5/0nWAR/2uX6Hqm+PntYBSIVXIRL6Qr/DrQI+7Av9OTaAzvIuRKaUDtNJ3I2M3RxdMlwnlLI9DtBZ3oVI6MoBR1oFtPt6xVFWAegML0Pkgj4H8bAq/N1BxRW6mAvqQCRehkjomxVTrILvOBaA6LwNkXAlzqE9B1kHX40vHsCKPSAGb0Mk9J2Bx1kFX32XYwCIxesQCe9gP6kXK7V8dVzZCF0azEgBROd1iIR+OOhEq+CbfxnI7x6Iy/sQCZ8z8iVuQPROeE2MB08B8XkfIqFrh35cvbsXWwfXlXYr1E8Gn2wdgDgIkUBFj1L9bOgp1sF1/x78rocVllsHIA5CxHy5/xE6t/eB1sFVnygfq68N4O50IF0IkV38atjpKutWaB1cU5zooeuGnWEdgHQgRHYxqrCPfjv8TOvgmutHnKmxRf2sA5AOhMhuwvsGruzPBo2u+VL/w/VFVuEBaZdIBqzGLk5Z/Ce9UbfGOuSzI0qG6OVxVyhhPYD0YSayFzeOOEfl3YqsQ74Kl/P+YeS5BAiQIYTIXhxYPEB/HHW+dchXN408TxOKB1oHIN0IkX04u/c4/eewT1iHfPOLoafpU33GWwcgEwiRDnyjYrK+N+h465Avrh54nL498BjrAGQKF9ZTdNWaJ3Xz5resQy4Lnw9yw4izrQOQSYRIJ3x11TTduWWudchFl/SdqFtHfco6AJnG6axOCC/STu13iHXINZ/uczABAnQxQqSTbhl5/s5txJFbwhnIn0dfaB2ArkKIRBDOSK4cwF3tuSK8BsIMBMgOQiSi3w3/JKu2csDVA4/lIjqQRVxYj+nGTTP1z2uftg5d6ZfDTtc/VhxtHYBsIETS4PHti3Tlqmna3tpgI8ikcLv+8JTi+dxICGQdIZImixqq9I3Vj+p1Nm3MqKNKhurGkefq4OIKGwGQTYRIml295kndxE2JGXHFgCP0++FnWQcgFxAiGXD31nf1nTVPqbq10UYQR2m3Av1m+Jm6rN9hNgIgVxAiGbKqabt+sPYZTdv+vo0ginATzF8NO0P7FfaxEQC5hBDJsNuq5uhf172gra31NoJU9OpWpJ8NPUVf4X4cIKcRIl1gc8sO/XT9i7q1araNYF++2P9w/WTwyRpUUGYjAHIVIdKFXq1bpV9seEUv1iy3EezqxLKR+uGgj+mkXqNtBECuI0Sy4IFtC3R95XS9s2ODjfgtfPLgPw86Thf3nWgjAPIFIZJF4bbyN2x6U3Pr/QyTCT0H6lsVU/SFfofbCIB8Q4jkgAeDmcn/bZ6l12pX2Yjbjikdrq8NmBzMPCbYCIB8RYjkkOl1q3V71du6Y8s7NuKWS/sdGsw6DtOJZaNsBEC+I0RyULgH171b5+uBbfPzfnYSzjo+3WeCpvabqL7de9ooAFcQIjlucUOVHqtepCeC1/Ta1Taa28LgOKv3OJ1bPk7jigfYKAAXESJ5ZENzrZ6vWaYXa1folZoVWt1cbe9k1/DCcp1QOkonl43WqeVjNLSgl70DwHWESB5b2rhVM+vWaHb9er1Tv0Hz6iu1LcPb0ffuXqyJxQN1WMlgHVEyREf1HKoDivvbuwB8Q4g4Zm1zjZY0Vml507ad+3etbarWxmAGU9W6Y2fAhJtC1rc1qy547aqkW4F6JnqoPAiJPj2KNaBHiQZ2L9WwYJYxsrD3zr2rxgZhMbyg3P4HABAiAIAYeMY6ACAyQgQAEBkhAgCIjBABAERGiAAAIiNEAACRESIAgMgIEQBAZIQIACAyQgQAEBkhAgCIjBABAERGiAAAIiNEAACRESIAgMgIEQBAZIQIACAyQgQAEBkhAgCIjBABAERGiAAAIiNEAACRESIAgMgIEQBAZIQIACAyQgQAEBkhAgCIjBABAERGiAAAIiNEAACRESIAgMgIEQBAZIQIACAi6f8BwE2SddJHWgIAAAAASUVORK5CYII=;" vertex="1" parent="1">
                    <mxGeometry x="440" y="240" width="118.64" height="150" as="geometry"/>
                </mxCell>
                <mxCell id="7" value="&lt;font style=&quot;font-size: 16px&quot;&gt;figma&lt;/font&gt;" style="text;html=1;align=center;verticalAlign=middle;resizable=0;points=[];autosize=1;strokeColor=none;fillColor=none;" vertex="1" parent="1">
                    <mxGeometry x="474.32" y="390" width="50" height="20" as="geometry"/>
                </mxCell>
                <mxCell id="10" value="" style="shape=image;verticalLabelPosition=bottom;labelBackgroundColor=#ffffff;verticalAlign=top;aspect=fixed;imageAspect=0;image=data:image/png,iVBORw0KGgoAAAANSUhEUgAAAmkAAAFrCAYAAACKUR5EAAAAAXNSR0IArs4c6QAAAARnQU1BAACxjwv8YQUAAAAJcEhZcwAAEnQAABJ0Ad5mH3gAAH4pSURBVHhe7b0LnGVVdee/qqq7uhu6aWhoaB52gwIaxAeMQWJEDWpmEBPQhISJjwwMMyj+TeQj6kyPjE4wZCQ6MDqiThBmCCYoUSAGTXxFNFEkDmgEAjQPu3k1r4am3/X8r+c++5x77q1bdW9V31v9+1atu9dee+199nl07V+f+xpYtt9BkwQAAAAAAHqKQS8BAAAAAEAPAZEGAAAAANCDQKQBAAAAAPQgEGkAAAAAAD0IRBoAAAAAQA8CkQYAAAAA0INApAEAAAAA9CAQaQAAAAAAPQhEGgAAAABADwKRBgAAAADQg0CkAQAAAAD0IBBpAAAAAAA9CEQaAAAAAEAPApEGAAAAANCDQKQBAAAAAPQgEGkAAAAAAD0IRBoAAAAAQA8CkQYAAAAA0IMMLNvvoEn3AQCAGfByCkppbfbpKWr+9E3rryH+dAIAZheINAD2GFhIhZaKf/UN2qqF2BroRyHWIZPt/HlskpMf41JKO2MCAAD/+YBIA2AeMKWAqmn30EAzYTbVmPNNtLUlyJgp8iZzEdYytTvbAwDMXyDSAOh3pivQsmqtQKsbb4pt9KNem7b2adahxUBTC7ZpTAJiDYA9Dog0APqdpgqpEs+qDeKsOkbNmFMLsSYJEp6rvzIxhSm31/6EWmqjusaaWEmsCbVjttpQBsQaAHsMEGkA9DPTFGi5OBsYWkBLVh8VtYYuDfXGQHOmVnRzg/51m/pP3OQEy6ixEZoY2UUTO7fTxCiXIyM0MDkurZZUhcMNLVUBNZVga2xmaoNlINQA2COASAOgX2kphLI2d0t3z7jvwgMOplf82T9OR3rNayYH/E/h+DiNbd9Co889SyNPPETb1t9L2zfcQzseeYB2Pf4wjW59lgYmxizXqdVMeRBiDQAwAyDSAOhHprqDluuxFMuDAzTMIu2E/3OrB8BUTLIgkjtsOx9/iLbefTttufd2Fm/raNdTj9H4tudofOd2FnijkmkdnJKOale4NTQ15jYAwQbAvAMiDYB+YyqBJrBb+7qzrO+ilYfQL1/1Y6+BmTA+Oko7H3uQtt77U9r2i7tVtMkdt9FnnqBJFnS5uGrQUE0EW+s7bA2BMhBqAMwrINIA6CdmItCij5dRHT7gUBZpt1gFdMzE+BiNbHqCdmyQp0fX0XN33krP3XsbjT3zFLfKn9niT23SUlVRVSfWKilGbdCAUANg3gCRBkA/USvSckEWRTh5G0dTdYCG5U7alRBp3UaeFp0cG6PRLU/TyFMb6Znbbqanvv/XtP2RB2hgongjQoOWikCloV6sVTtXgFADYF4AkQZAP9GGSGsQaF7mAk3MRNqPLARmBRFsIpgmxkZo063fpke/+r9p6wN3Nrx2LWmqXFxlfvOnQEuVRvLxAAB9B0QaAP1CK4GWinCKsizOrBzgoIi0V3zhhx4Dc8H4yE4Wa9+hJ755LW29/w5/p6jcXRPsT3FJV0WlTrDleUpDoABiDYC+ZGjRkqUfdR8A0MtMIdKSQBMk1/OtkAczEWiTbAv22ocOOe3fSyOYIwaHFtDeq4+m/V/1Jlq0ajUNDA7RGAu1iR07PMNEtZ+6wsmC6TxHTqIhUJAGBAD0ExBpAPQDtYtsebEuFm8uY0HXwuOSwQERaOIv2GsZRNpuYnDBAtqLxdryY19JS553pH6Q7s4nHyUal89fK85dOn/mpFLOtZ5vqXqTUaqUiTEAAH0Dnu4EoB+oXWA9xkVJoHlZdBFH6i7QtGGAFsmH2V7xD5oBdh+T4+M0svkp2vyzH9KGay+jXY/+Ilrcsmcr2376s1Qpg6c+AegbBr0EAPQqhdrKKGJJoGVUBZoEcoGmpbhgtzMwNESLVhxEK193Or3sE39NB57yNhpYtFha7DyJF6crzqHHBTn/eg0UIUYqpUBB1hcA0NtApAHQd2SLbLj54q2LcGFyBy2PS11N20GvIOdk4bLl9PxzPkJH/uEnaO8jX8oCbphb+M+0nLtBOW9xGqXucQ1wIedT29yU5JTJ+gEAeheINAB6mVYLaYv118gTxDdxlhboAfzz70WGhhfRyle/mV7wnovpwNf/Ng3tvQ/RJJ8vsXQeNdXOY1aKUFOxZhVHnFQpkwYCAPQi+CsNQB+TFmShbsEdHPSnOaVZH9TUH2QDPYmcn2VHvoTW/Lv/TGvOWktLDnuBnbvsfGs1nDCndF0k6mJM1g8A0FtApAHQV9QsqPninFwXYupKWfG5HMCdtJ5n4dLldNDrf5ue/54/oWXH/grR0BBH7fxJKYW6QVZRoZa3KQ0BAEAPg7/SAPQqpdW3gq6/WTvnFunil98oYHfOBrXPgNxBS22g1xlcsJD2PfaVdPT5n6T9fvlkogUL+CzKn+44h35+w7LXqumP+pZuJKcg+gIAegqINADmFXULsJjH3U932UDfsHjlIXTUH36SDnrj79DgXkvtHKbXqdkpTqe1cn5FrLnjlNsTuC4A6CnwYbYA9Cq1CybHPJwWXrlzwli6PLDF3RTJknJgsHQHTZ7qXLD3PnTwqe+UTh0zOTnBD2KT/WlMPwjXoeHFtPzlr9G57njkAZrYsa1h3qlajcf1kmiyv31wHADYU8CH2QLQq9QulhzzsC66ksNWpIrDlp7yYnGWciyur0Vjf/iAg+n4//Ut69Yhz97xY9q67qes01ioNVDzJ6bH/uqIgB1ctBcL1+X6MRgL9tmfy321Prh4LxqQpxjl+PUI8h2gT3z3K/TIVz5Hu554mAZYaOqXuacDK3UpvB4lox9+W1SZUqUg6wMA2D1ApAHQq9SKAhFc8uttksNmqRFrFGjqy500FWmSN8gibVXXRNojf30VPfndv6LJ8VGPGOU/Llxr8ddmYE7/ElU2JseEj8/A4EIVZPI6MBpaSIMLF9ICFmt7rXkRLTvqZbT40OfTwuUH6Nc67U7RJoJsYnQXPfUPf0MbrrmURp5+VIJmad/qhVrb31AQ/QAAuw2INAB6lQYR4HUumos08QdoUp8CFdFhgk0FRQi0gSEtRaQd9+lvSseOefSGL9DjLNLsuyeFxj8rdqcnYyYiQProvrZBV/6yVQYZHKLFq1bTfr/8etr3pa+i4ZWHqWCTYyzMtXCTY/rEd66jB7/wxzS+/Tm9oxZxm3vU46EoG8VacspEPwDAnIPXpAHQqzQs+CKwwhPfKnqHzDw1E2JS5nfUpPC65gzS0N7L6OBT3qE9O2XLPT+l7b/4F17QJ2R4xrbjFUXmFeaBsrWD5rVp1fHbNu6ekEpmvH9jW56lrffcRk99/0Z67ue30PjObSyOBvTu2+DCYTvOc4Qcy72POIaG9lpK2+79qT4NWkw/89Qt6gKfiXCccjsAYPcDkQZAr2IrawbX9dfj3m6ix2NSqhiLu2ZeylN5qW7tQ0tYpL3p7d6vM7bccztte/AuE2mCTCesXFFkLjbvDJ1fJbZb8HlULdoyG3vuadpy9220+c5baOfjG2hs22Y+rktpcPESPsTymWazjxzHpS94CQ0OL6at999BE7t22OzSnA2reszb0rWUqNaZyjgAgLkDIg2AXqVhceS6/no8FlotzdR3Uz/EmTzVqXd4XKSxP7SX3Enrjkh77t78TprPIRA3VUuVMr3+tFrsV27OxK6dtPPRB2nLvT+j7RvuodFnnqSF++6vgm0u7qzJOd778BfqnLbex0JtbKQ0v8BC5bheT6VQY7+6sQAAsw9EGgC9SsPCaItpSaSxFQuvCzIxFWd+R02eDtU8KYs7awtYpK065W3SuWO2hEibGPcII9upxcRYw2vUmsJ53dJvaUrN5jZN9JjGWFyOj9Hopsdp2/p/oefu+iea5PqSgw/Xp0FnnaEFtNfzjqKxrZtpW5yLpueAadVWx3TzAQAdM/v/xQMAdIHpLZAh5Mq9PCpCTcvpjTk1PJ6MWTeuiix5MLWlAq2lyWeuhXE99e3QasfPttPMpiL2221ydJR2PbaeHvmrz9Ld//3dLGL/mSbGRnmoNsaaISK+F+6zHx361v9Iy499Jf9196dbOa7CXM+6+BbLTa8MjbMpyQEA7EYg0gDoe3xB5cW2+Cooq6e1VmNRYSJnNgghksr0oCIlCTQLFJaJKQtZ7tyYTqaJScFlWMSmws/FrscfonWf/gA9dN3ltOPRB2ZdrMk3E6z+t+fTXocckeYg10WDUBOSo9FwnKItkeUDAGYfiDQAepGpFsPpLJacWyzAyWO6veCGiBG3UYSoMKmatWhbblPe2QqTD8/NrS6nLZvgonEe/KvzK5kWUorTBnKuWJg9/Q9fow1f/B/0zP/7Hk2O7PTG2WHZC4+jw37vD2nBkmUeMewpb/WKS0hjVoFQA6C3gEgDYD7A62Zp6Wy1kHLTZEOHLpKLFxc0InhSPLVL3MRRSZQ1FVsSN7N+7NsGCstyyiZtM7GyeDOkdEt5Up8C3q/tD/4LPXr9n9FDX/08jW7Z7A2zw/6v/Dd08Gnn0MCQfI7boN1lFfT7PoVMqAlVoQYA2O1ApAHQRzRdQNPCWyFbhYunu2aRECtSqGtCrCxmXJzViDGJqSCKnJJJzIwfLL9tq44VZu08mG3bjYO1lubnxkE3KTxvCkY3P0VP/+NNdP9n/wvteHS9j9N95EN2V/2b36P9XnGyXQch1ErXgQs1fSgoX2flNqWSDwCYHSDSAOhXmi6U1Xilzv26LthEZ4iACZ8fVMhkgseETSGEoj23yKWJvI9bJXdaVh2LjR/YZJuSE3XfburnZTZO/tRqxHLRx8HSWLWMj9P2B++iB/7sI7Tl3ttpYnzM+naZhctX0CGn/XtavPJQO+cs1BrPv5fa7qZ1NyU5BZEHAJg1INIA6GNaLZPpbogUNQvqbKyx9v2bIYJcyLhJXIWctpmvpbfpTxI7nheCKM+dieXj+FgxL7NsuzLPMC2kjLrNK0zj+dw4R+PRX9B6Pbs2bqCHrv0UPfvTH9DkWHylVvcQMbbsBcfSgW/8HRpcvLfW5cSX30iQXQvhSHtcP4lqnUkdAQCzAUQaAPORZovnLC2q8p2RIW5MvIhrdTUWN1JPwkbbpEVimSDztkI05X63rDymzS0TWjwPy8nydB/EZNL6wL+WZ37ZrK/toVq01SBC7ZHr/4ye/vE39XPVus3goiV0wKvfTEtf+DKuyJ98vgb4OmjnHZ9KpQoAmDsg0gDod3wRLV5vlMH1IpL5lbTOMRGiOkQFCYsejqmI8bo8NWi+SB5pywWSiyEx+RBWyVXL/dwk3srq+oRx+7gb14unM8crc2BjPyy1aT32i/djwvYlhF3ErY/E/Pho4WWF0ac30mNfu5KevPmvebPdF2rypfAHvfF3aWjJ3n6NsPm1YkLNaLh84kKpxAEAcwNEGgD9TKvFs9rmdX1nZ7IuIdpDzQWMijAuRaSIAHLf4iKUXPh4mwq4MM219ubm4zW1uj5lS9tNMe6XzSHaw4pxbR90n2LHtbD2tK/JqrluFcaee4Ye+/rV9NQ/foO7sEDsIiLE9j/hjbT85SeZKFM1JnfTYgkorgd9TDlSt9LIfcfzAADdByINgD6g5TJYXe93y5rJwsUFiIqbsBA8WrjgUdFivggiK/2uVdzBkvi4tElfN6l3w3y8EGQSMz+2XZjON2w86kU5EX7sE+8rPyTf2mxb6ZhIvYlYG9/2HD3+t1+kZ372j7x5ubNXbu8E+WqqNW+/gIb8tWkm1ngK8r2uKrSkbrGku9xRoRaxwilIHQAA3QQiDYA+YEZLdeo0+wuobipESggQFiZSyg9XzFchZhZCZkAEkbSJeJKuFRGVTPp2bHXj+rbDfA7yDtMB7hMm/XPRFWOFQLOO0r/wk8kxiD5yRCImqF8w+swT9AQLtW0P3NnQ1ilLVq2mg3/jLP7Lz3/6VZDZtZE+Q01xP2Je4o4aAHMPRBoA843adX2WF1AWE7YF3jj7KkJUYBT1spARcWbiR0MiiqRdhYxZiJ/CYhwba2rL86fuF9vVOaj44vwQbjo/F20+RxFsEivyi5j21RNh/WL74odpXXOk8NLZ8dB9ekdt5NknPNI9Dnr9b9OSQ56vvgkvM72bln3QbS1NwgCA2QEiDYD5yhwvqCFCVKiIiUwJMRLiR0oROipoJJfbPG53qeQpPhM83GDGsUazPq2trl9unJONH9tNc5A7fHqXj3Nkbmq2f1Lq3TVvT/us/c20j/gq1PQA+biS58dKSmu0mCPxLXffRo997f/od312k4X7raQDf+2tNLBgiK+R7GnP8KUiv+rKQ1aWqInV5gEAZgpEGgD9Tk+siy46kgCRwoWHih0RLF5niztTImpC2HCSj2Mxy7N+yaTeieVjyXY5xo5bbJfNBSJnWZ4IOc0tzPZBpuyCTWNculk/TnBfkyVfxxTfLOZj7ZqgiEh85iffpSe+8xVv7w4DCxbS8pf+Cu31vBeaqDI1ptbsHcKB3nmrNAMAZg+INADmG9VFdi5IGsKcSb1DFQLHREhx9ywETMUknlt8REbNi/4bcpta5LvlY7GRluOFRb/ke1k7V2kTK8bnB5uzWyHWxDjHS34ofMnTuhw7a1OT2tgYPf7Nv6St99/h7Z0jd8uWHPYCWv6yV9PAYH43rbABWRo0njqZiVsSaskpSJ0AAJ0CkQYA6Bz5qgEVG/IrYsJESAgO/bBbCbsgsYqVmhfxECwierzUuI6VW8Snsmq/3IptaKnp2TZlLjofK1VUiSiL/r6PKab5Npa+dk3atN37a56NLT/yq3EZKeJSakSDWozv2EqP/91f6Hd+douhRUv0btriAw9jTSWiKxdejr4+LRNqVZrFAQBdAyINANAVXHoUYsNtQOJRD1+eSnQRo3G2QixJPeJSZjliKngy83EarJRTjG3j52NXt1XJz0Wblza+vB6t6BfbNUFmfePNEZZnuZrDvvzoASu1Wz9rkMJiW++/k579fzfTxGj3Xp+27MiX0JI18pRn3DWzUqz8bk8LR5vWSwqtnAsA6B4QaQD0G5UFtCdIusJERZgKjmQiULhUgcaliB61Sp7EuDTRY21JAImljblFv6qVcryvW4yXtqHCqqinuelYnuN5+uXv3la6s+aW6rJfad9s/Bg3cuJpYTHLy3yduzGxYys9/U/foZ2Pb/C2zhnaex/a97jX0OCixVyTayrMMWXm1oQWTQCAzoFIA6DnmWIl7M6a3REsK/RRBUaakN9FE1GTCw8pXeRYlpUiWiIvCRZtc3+2LLaRtmMiyubhgirmm2Jc+n5pLBNe/GA5eqfN+3KuPf3pfTSfS821UuKpPfyYE7Njwzp65vYfdO1umjzNueKXX08L9ton6TF76tPvrFmaxrWIgDvlu2kVUjIAoBMg0gDoNZotcE3XPXmqqgcWxUxgmAjxmBQiNipCRIsQOi5aTOhog5b6dKGIHM+ZTYttpe1lAitEl4kxrmuOxMSk7vug5q89k73WXMu3UNFPvjvU9tmtcnyS73F5l+zT//A1Gn3mSY51h+F996d9/9Xr9JpT0aWlYE956nXlr02zcLmM7NSeE7kAgBkDkQZAL9HnC5sKDUfuomk1RIe2mq9Va/R64UspbzSwNxt4m8fV5E0K4eexOmuWl8dCOOXbYxEVc7CcMMsV34SaxzjHUvhB4vnToP76uyT42NLr9OQdpjKWdU7bSvXwJc6Mbd5Ej3/nyxyTcbvDytf+Jg0Mybs8pcYPfA3GmwnSR3JEmxZeNtAsDgCYKRBpAOwxzO4iamJCHXmoCAypR5sjfp7DZYM4i75qjrqVNsmts2Z5tWR5bGkOLsaSaFMTkSTtfldMc6T0PmIc03bNzYWa9JGxPOZW2mf1JR6+x5lnbv0O7Xx0vfrdYOmRL6XFq45Q8aX6K4kwrdhVI3fT5DeahKjkMQBAV4FIA6BXKK2AQZdXwNlaUFVEFOTVwmXPRUdE88fABIl6Xgri59Yp1fGqJmR1nlOIqJJYU0xQ2Z01E1a6DyzEQuBZLudkbxSQYVWouXCLeBJk9mtk8Ymd2+jxv/+q1ztncMFC2u+Vb7DrT6/BKM2tvtOzNdPJBQBMBUQaAL3AtBZCpmn+bl4kRTiEeNAi6iwypBpEXso14VMIj7wM34hu3bYyEggTirrMUefJwqp4/VrRFnX9kTDnaB8RbRoXYeavW+PftN8Sk4D2s7Yk3kpM0nM//yHteuIRr3fO/q98I68GthyYTuMHczzGZfpeT6Z6/VWqAIDuAJEGwO4iFsLqgpfI4pKmD0XM3CzHfXlML+jW8c0Nmm6uYwoxoa9Hy5FqiI2q5nBUmJjnZYFqFrcSeUMn1nIoF022E2wsnNw3MZWbCDK7OxZ31lSc6WvPvM3HCqEmloSav5mAHzhDtiOu9/Eccce2b6Fnfvp9i3eBRQccQksOeYFfL3L18E9cKFymNxFoXB4tLiY/Zap1AMBMgUgDYK7xxa1tGtbAJn0j3NA+VX0OyUSFea1Ehmc0S+mSQFFkrNxqKIel4sYiKvoVT4NaaSJKBBeXfifNxJrH/U6Z1LWv5nG7lPoo+eJK6SaB0VHa+i+309i257jeOYPDi2jZi17Ol45fG1oUwizh8TyUqIsBADoCIg2AuUAWu7C28LxUNO8nC2nt64byWNvb7RAVEVXqYkKzeBvUbqeL5KIo21ZjKBwJmvhKQk3FW3YXTHPY/A6b+nK3TOohzKKf1EPUeTzGidjOpx6h7RvulY13zMDCYVp6xLHs8JIQ14oUyfdrLH/KM6PV9QkAmDkQaQDMJrKwxULXFpLr+alo7G9DNsar2yrV8rlMa06gEEcFRdVEk2FiSoRaIdYKkzZxzTehlt5MkO60uflYKs4Ui6nHsbFnn6Tt6+/RL4PvFPmi9cWr1tCCpfvypRHXiVv1WvGqpdS3AQC6A0QaAN0mFrnqAtYSyW3MLwk0H7OcFTUpo03ypLCYWTxmTGt+bVI7ZrPtzML2Z5skoIzMZbwyUAgrE2rF3TTrUPgq1ESMaUzypOr9446bjivt2uQPXIyN0o6H7qfRLc9qvRNEmC1Yvh8NrzxUKmpxKq2wmFr+4baCJ9b9ZwIA0BkQaQB0SixeYVMiOVXLXDZZNNOil42tw2vY2xj7wFF2Up77QircEaJtN2OzKOZir3/K8QwuGps8WLW5QoSSW+ayuSOyi8tCnJlQi7o+lel3zjTm+fo0Jxf60Ry+HX0TgpSu0oq8Sdrx2AM0uvkpi3XIgqXLafHKQ9iT68yPpR/XqFePcPND3rQBADANINIAmCm+gLWH5IVVyMIippKgyscvbSd8Xzy9rcioy2VK4bzSLVqMKU3ZXFvmSltNc1tTjm3U2WxRK5Ak5sbtcUdNfBNUheiymN8xSzk8ZRd2WvG44SXXdz31KO3a9HjWNnMW7r0PDR9wMHt+rAYH3YtjV33tY+bn8TwFANAREGkAzIS2F33Jq+RGyC2EmfwkYnwp3bcicjibA8Wi6XlqUrV2bYm4VaycLXxbLEu41IBvM9s7q1o85iN92GLO9pSaoInmMtElbFp01HkKQky5a5SFUyHUCvGlpTytWbpb5oIsvXFACvPtdWxel/iuXbTzkQe687q04cW0cL+V+iaCdHykUJNjphF2I+hkx7J0DQMAOgYiDYDpoItVOwuR5FTyspAsZvGTiLFjfC/zkGGBXKAVC2c2YhYrBrFSs6TaLWRMHd/IXEcCss1osNIEZPFnqCTUShMUP6xAu09lnttAntQtkqjSghHHxRhTvJnAhRibNkUsciWu+UWetBnua4xoh4i0sRH1O0GO+/C+B9CCJXtLLYLu+zXDVr6bBgCYTSDSAGiHthZzW8TMnErIlrqsXaiO7fVyWBwzEzbeoH5RapgfTOh4QH0n/GjvOrE9K2Ue8hNN2qbt7ksRj14PoZb2Ifon8njVauCwDJVbAy0bZ4ZrKMZEVQi1wGSYeVZwmcSY+RaSupcas3rk7Hz0QRZpYx7rjAXLVtDgkqVW8eOhRyQOSyrFCXO6eOwAAMbAsv0Oin/xAIAqUy48lfZ8zWpoa15v3EwEBmhSXhs0OESDQ0NEbAP6WVb2/yvzRdDkuVyRwIDkyizYl7jEfCzJXbjiQHrJx/5COnbMo399JT3+7evsjs7kBP+KmBjXp+xMVIigiKf5pF2+UsniheYQX+4mOalByP2CQrBMQdO8apzr9qtznxjdYd8WMBPspChxftT03IT5eXEb0PMj59bOsZ4/Pp+TfM7S+Ut9vH14ER3zR9fQ4v1XyUY6Yuv9d9AD//sjtGPDOj5H8u0Hdicvfegux6SUO4JxXtM5kNL94px7GwBgRkCkAdAMWQibUtPmIRVFOdVxsnqpaZIX5gULacHey2jRyoNp+IBD2N+HBhctpsGFi2lor71paMneLNYW2uuGhBhAC37QX6m4ebst6up5iMvFe9HKX32TVDpmCy/uOx5aZ19rFIuz/brPNqA19W3tlgdpE1/ccCRU+G2R9W1Ky5TGxpFNT9CTN19Pux5/uL3x60jHXx/V12PPAX3aUC0TXSqwpRShxnkuzkx8hyAv2onz5eeo9/9P2udFx+vonbDz8Yfovs+spW3rfsa7LKKaxZm+Zk7OmYlrPVZyPMJn08MjD36cSsKt9YEHALQAIg2AKrJgtqTS7lVZLEvk42R+aXhZdIeX0F7PO5qWv/RXaNFBh9HCfVbQklVr2H8eC7OlLMoWeDKYS7atv4fu+9QHacs9t1kghMd0kXOczrk7LLQ0qA3SzqXeJYsyBNmQ13nzDXfTJEfSBul57/gAHfia37SxO2D0uWd5ny+g5+68lXdX7p753c9xLuVH76iJxd00E2qmxfz4SFyEWYp5HAAwbeS/YwCAQBbBlmTt4nq1JNBkjBgn8wuXH4aGackRx9DhZ3+Ejv3YX9ALL/iftPrf/iEdfMo7aOWr30xLj3wJLVy2LwTa7qY4fZkzTVTMuJ8Ey0TxJgKTNO5bGXeiTCgV8WQWsF+ujz71mMc6Y3DxXjSwcJHva1hRGHml1AAA6DIQaQC0RbZgCe6KOEsCrVBhJT8PTw4ton1e9mp66SduoJd/8m/okN88i5a98HhacujzaWjx3pzniaCnSKclP5nTJGkrIfcFF18qzjQxK12MDUSnFC8Y2fyUe50xuHChPr0uW1Mq+1rUao4Brl0Aug5EGgCx8NYuMhLzeLhsSZzlfd3kdUVFlR+Ghmn4wNV04Bt+l17x+e/pi/WXHfkSXRD1heKSA3qQOC9SFudUKVXaQIVVFOFn3+/JMWuSupUeMd/z4g5b4Vt8dPMzFu8QuRYHRKTl++b7Kj8pzkX5I2DcBQB0FYg0sGfTcnXJ2ty1pSoqWcnmhSPOIIuzQ2nVKe+gF37gU/SC/++/0+KDDrNm0Pvo+ZTzGCfVyuIcdwKLq+w7PkOYmWvCK6wQaDKDLGaZytiObe51zoJhFmnZfx7S7qbDUByA2v9gREyKmmYAQPtApIE9l5arbdaW1pw8FkEri6HY4crAor3owF//t/SCd/8xHX72f6Z9XvSv8PqyfkTOpZ7cOMGV812c+KlRYZUK0ViK3k3TCls0alVEWNYmaMyRXM+fHN2pZTeQj/Qo9tltOvvJlP6tAABmDEQaAA1kC4ysT/6TkAUrzKuFM0BLDjuKjnzPxXT47/8nWvGKk2lIXogN+pbiWxDknEvETnj5vM8UuytWPO0poYoQi9L99C0ECc4fH3W/c+KdpYnS7mXHotxgtY6OBQCgCkQa2DNpuphk8WqK9AnLqvxoNjBE+x73Gjrmv15FK1/3FlqwbLk0gn5GT3D2mWbynaISql4cdiFMjYurksbKSE9/ikwTX+su2tjP+xW5TOZ2hdhf3a/Ml2qQ+0K1DgDoGIg0sGeRFp4qEpO23PU7aGmBMrOCH6KNywX77E+rTv19etGHr6DFq1Zru+WA/sbPsZue0+zL30unuFRpQRJXRVloLPakPRdk6oRJYe3huzcrFHtawffV3jwQBgDoNhBpYM+h6SJajoswkx+rlEsr+CFK/ie05PAX0prf/0/0/P/wERoaxlOb8wY+2cW7b80an/rUtIJSpR0KsWWvTRM3ZFcuv4q7aQaX6kc5C6R9Ke2glwCAuQAiDewZNF08szi7SZwJ0YdLca3qMbmbwgv4sl86no44ay0dePJbud3bwLwgnU09/1zT85sJNb2jZlnaNBuwAEuiTUqtW1Uw1+KzQ7Zj2U7O1u4CAMpApIE9mHwB8jKIBUkXZHMtyY0F2l5HHENr/t1aWv7SX6XBBQs1A8w3+FzLBZBdD4I9zRfkfptUxJYIrfJrzCqiq65ejXUJGbXhPxxezx+n2u/WrQCAdoBIA/MbWVyqC47iMSkkxX9Svpt1lQczXbxYoC3cbyUd9Yd/Sst/6RUQaPMaP+d6LUgpIavLdWABIa4VccNpl0xsqfAqntq0arRbW0mcia+hLNYldC9iX9UVXxyPC6V99WNQigEAOgEiDeyBxAITRWVR8UXGCnkwk0VK7qAsOvAw+qUPf4GWHnGMJIB5C593FWJ69vlBHuN6yMiqful0ThPRlaKzIMoaaHdfZKe7td8AgBIQaWD+UrtilmMlgaaLjS/DGi7aQqAtPuRwesG7P6Zf6wT2EESo6UUhJV8fenGwhZ+92zOhOVNT1Vrx5oECq5del5Zgn+t+362LyNyL+ZtXsz8e0iIdAwBAN4FIA/OTNhbJBoEmRenBLATawhUH0mG/9W5a/tJXSQLYE4jrSEq9HKT0GKOvTdN6EZs5FbElgkxCVYFWEmpzTLv72rVjAsCeDUQa2IPIFo18/YhFVxdcddwk5O/mG15EB53823TAq0/Fa9D2FNJl4XfQrKaW7qalx6BcmxElEdZCkOWibbZ0m+4nAGB3AZEG5h+1C4vHpGDTJVfyMrNu8qAO102gydNc+xzzy3Twb/w7Glq8t7bNBfIUl9rEBE2Mj9H46CiNj+yk8V07aHzndhrfMYVJjtiuepvgcbqFzq1mG2oxj3bm3AWbGBvV49YNVIzptRGlBLUhxVTEpwYNGclph+p8Wz2JOYuirJb6/eC9dq8FczpPAOYfA8v2Owj/jMD8onZx5JiH0+IieZ5rhTzEgsvri7cv2v9gOvJ9n6R9X3KixmcTFRcsyka3PEsjzzxBY1s20/aH7qHn/uX/0a6N62l863Oeyfg8pYw52z4wg0WbxJKIkNLzF+53AB1z4VWa1imP3nQ1PXXz9TTBYs3u7MSfFRGaE+5mcS3CzwRJ6tcmul8Z3P/wf/9h2u/41+kH0XbC9ofvpwf+90do670/49qEimWd34TMV0qO+fdoymvJTBiaqSskpwafe7ELcl4Gi6dQ2ZfzpPuRyiH1Bwe5lHMsd/k4vuTQI+klf/wXPk5n/OKaT9KT3/0rmhzZZfsU+ynHYHycjwPHfL8lPqDttt9p3+VB2uWYaRwAMBNwJw3ML2Rxa6CI8VLnHuO5dV2KhXKIVp36Dlp+7Cu9ZXaQRW6cF8Vt999BT3zvq/TQl/4n3XfZ++mBy/8TbfzaVbT9vp+bQEvzKqwk0MRNVaukds+fTXRbDdtxP49rIQ8Wa5jjFKbfBCAmfm4Ss5G6hs3Nt60BK6welSZEn5mgakdKK4w5FDxNpm7hDvYLANA2EGlg/lC7IHqs2uS5RRdxbKGPpzjFlr/0V2jVv3mbxmcLuduwbf099NBfXkYb/uJ/0CNf+Txtvv37/nSkzUsnGnPI/CQgNEdDRuQmivps7ksjsa1sm7H9FBKnIramMMP6NVhq7wI6lpn81I7NsaZPeU4TuyNVT2t51j3xNuXUi91U9N9LM2Z4HAAABkQa2GPQRVad6sohdTaOFwJtgIYWL6E1b/8ALdhrmaV1GVmQx7ZvoV/8+SX04Of+K2265Zu089FfEE2Mc6vNJ1ngflmsMJlb5FdycprFu4WM79soz7Oy3VK10taAtGdWqSbrIiHMdB8yi7jaTKm9U8ZD5kKtTrRxTMVc6l+TAwCYF0CkgflBw2IpdY/JWpr8ojRXHqqLsBQDtPLXfov2Wv0CSeoqssBOjI/T1nU/o3sueS8986O/o9HNT0pLNod6k3mVRE/sVxNa3ZmZVTIRUZrDlPOR/WlmmetVJTs+at2Ex0vXhlRlw1rXqhdeSVTrrak9IrvrvAnZ9HW35RhYtYbp7SsAYHpApIH+xxfQWvKmyJNFR115qIgeaeOfRSsPoZUnvZkGh5d4Q/eYGNlJT/3D1+jBL1ykbwawyZTn4BNsA1/M8zU9LfCloJfuzZIIaBw1IllLbFuKFI5KnbUgjlMcs7aPW5uUxiuPrdIl2371ab9UrcRnRJPzNTnV8ek21X3pwq4BAJoDkQbmIZXFsrKY1hFPc2ru0BDte/xraa/DjuL0+vyZMr5jG23827/Q152NPfdMeT46h9bbk7tSYQXul0JFJeVKGTZbtBo/b0sp4jTJT2Q5U6UKXT5ndjnJg5+fFuep29eLkISYHrt2DsAc0mPTAWC+AZEG+ptWi2KTJusiDyzJuGICrbBF+x1I+77s1TS0dB9J7Boi0B76q8/S49+8liZHd3mUiW1Pk7JY8wU8VcX3mFeTw6b9ItZtfBuyAZuf19W3qj1YLPajmfGDdLB861yQ2oLpH8em6GmR8WzMOEUNW5jBuZsx1d2dRSancyzTMZB/U+4CADoGIg3Ma/TOWMCrR76AlASaLi7mL3neC2ifF7/S6l1ifGSEHrnxC7Tp1m/6GwOYtO0KIUzatLKYiTIbR1f2yudVpbZu0SiotB7zibgWVi/Nu4XxIxcxnnW3cZyIzxZ6muI8SennLUK7k1ne9WnRC8cDgHkGRBqYZ/hKoWto+FLJBZo4NQKNGRpeQstf+mpauGy51ruBvEngqR9+nTb9+FtEY2O2zWIyhguSkuDIY61MPjCUS/a4kFj0zcaINglGXR+7SNqWCCoLiVPMqahbrE3z/ROzvi44+TcRuaVgN/Bzpaercs6UuMqqbXW5fUT1+qzWhboYAKCrQKSB+Ue+djQsJF7P4nEHTV6TNrTXUtrvFb/mLZ2jn4F2/8/pqe/fSBO7tpe2m1Bx4YTYSIKjTZP8EGv+afAWF9fbuaJ+5KvfJXQ8dXxYqds8BlI8m1uYdiraCrNYtHOlMIlEmxcRV3K/A/RM5acrzl1+DuvaZ0x35j17TG//en1vAOgHINLAPKJYRNJdNCetn1rygwQ06A3sS3XvI36Jlhx6hMW6wMTObfT4d/+Kdm3c4JGMTHSUfFceIVTaNe0nZSUmIkl9r2vh2+gqsYkYW7cphc8lE2gWy8RY1mYm9aJdc3ToIsdCHheibTZJFxITfh5TqvWZwvvoHgBgzwQiDcx/0iLK5SRbtqjaXTT5Z2DxFb/yr7no3j+LTT/5e3ruzlu95lTFRPJFeLgwyZ7iU5N6M9OcEDRWRh8ZR2J6Nyvi8h2M6utGu4OOJQ8ybswri8U82Zf5aI7PsdiHGkttth9p31JMxhNftiXDh9NNyteM0PB6Ra82/RiOrjMb+9ldZm3XAdiDgEgD84RiSUh30UorpPhsEtN45kdocIhWnPBGSe4K49u30KN/fSU7/kaBKiE2XLiUBEhqN0GTxIguzmaFQMkEj9dVCEme1m186+axNE734K3wQ8zBIyHCxJd5lQRZsV+2/3UWuUUffjCLWKpz0XXkwmiFt8/KtgEAezoQaWB+EWuqqi4r1Y2qFeroHTNt1wrt/YKX0MJl+3pCZ4i4ePzb16lQSySh4cYruwqREC5e6t2viXEvpR59LDdM6haLPlmblDKWm9blXaWyWRnP27sFb8Xmr3Pl37Rfsh33fZv5vnHAc4q5hvGDWuyTmtRZ9JZyvE19/p015FoxRx9L6EWWUZMyv5j3OwhATwCRBuYBTRaMfOGUpzm14FKtculzbPmxr/RK58gH1T79o7/zGiMCIpU1QiRZITa4Zj8hdEp5uVl7Gj/iKlzMpK5x/fgPG19zu0U2XrEP2XbdVMhJKH5STjFXM8vXdv7xgbUtjaP9vY0pxipiXaF0eZUqu5cu7yYAoPeASAPzh1g/M3GW67TG1xEVd9HE9nnhy72hc5792T/ol6erYAjRoKUIC62ktkKkSGltJnTY0h0iESBmuW/1GMdjaWypFz4/qG/CxuNdQr4UXMYtzycvPd6wb7Ef0T/M4vxQ5OicZWuWk7epr0TZTSrXTVC9nhqYqh0AAFoDkQbmFen1aCUsVve5aCHQhhYu0q+B6gbjo7toyz230+TYiEcYFRGZkHDxpWJD6tqUixMpi7reFXPLfa3nOVxaXyltO/FUoJa+bfFt291CxvJt5tv3+VhTxG3bac4tLOWkflLKuL4/7vNDEdf5dJm4XprQurVdujMKAGD+AJEG+pwmC1u+qLJbuovmfhJ0XB/e/xAaXLK31Ttk5PFHaNeTj5rQEEJEqMulig8TKdrmvtXZvD2Eilq01VmWo+JLfN6eibBifC29TXx9/Vi30G3IuD73ij8Z33ggvsTSnC2vqXmO9Amxpv2z/dK2LNZNsqtmelSnUSfy6mLTocPuXaEX5gDAPAYiDcwPeLGo3kWzNZAfJuu//knTuZSf4ZUH08DQkHTomJ1PPGRfni64eEhCgoWGlmrawq7E2KQt2v3F9SJK9GukxBcbzyxi+oaAvC+X+uJ6j+k2ZJOcy07kyU+30JFkTNsQ//pcPKYm22XT+UlZ3bc6830wP8bP5i8blhi3x3a6tlv6OkaxGvRa8lb3S9R1q8trSfWKBgDsaUCkgflHvhhWV7nUxiX7IdiG91vZFZEmImHX0xtpdNtmEw8iJbRkXEiEilCRETE191V0yYfQcl3eualNXKqfWYpZu+RrHw3IOOz7NjhgvxJXJD/8buDjsaXtu291E1lW2jytPcLs5+ZxeYh9SiJTG923nbIy9nMukcupukm5prJYuuQEv97KwZnQaX8AQD8AkQb6n+oimApvSIui35lg36reztGF+6zgfw2di7SJsREa3fw00ai9Hk30RDgqJMT018SKCg8RFyKoXGhprosVFSPSrvEm5u3Rx8YQk/6+3RAwUo82+76m7qBDy9jiyPhWN7+YS5g1NW/P90nGkn3SNydoPLZjJj+l2FwTl5E46Zpqnxl0mXV6cEoA7JFApIF5QdMnhiYrLabOzBd8hRxaug9HO//nMLFzJ41v3ew1EQxsSWSJiJBfifGjC44QGCquXGhZvtRNyDW3yC36iJvqsg0ZQ36sIdu2zLFb+GC6XSl4/NhmzEXN2ouYt2unyGGzQXwMnr8cE7aBlGfx8HXM6KP9Zokml1mutMxrltgmvajcWqCz9Y+5AQB0D4g0MO+oLhXpq3ryhY99ezOBlYOLlvC/hs4XmcmxXTS+c7t4rBVYLKjICrGiGRyz14upmHChMSB5Ip4y4aHiRDtxXcrUlhm3SY7m6ngyvrRJl+gTMc8Jcr9T0vbU0VAaP+bAZvsovsXi2MS+pp+Ya5jGuBSxlsVTDrfrpvRxdrDLZ7rXyPSvqcavlsrqlTYAwPwGIg30N/maFQuYFtXFzO+ocU7REh7HBhe43xkT8oL9kV2uG0RuOOxUxUcSGEm4WGlmr0vTfBVw1q/BNO4iSMdnkx+NS8hiqbTWlD8b6KixvdI8pEF83xfNFDMBWVgRr4o1iWoZManKj9atbdbx66wknqagWWoRbzGm7JLEp7G9TpmDowgAaAOINND35LKrjN0la0BCuuhFZTYQ0VCYyosQIFJnS09vphjXk2DxurfpnbA68zbLDeOYb09ceYowFzrWLoWVXWHAtyFwKT+2HX+K0uOl+UWO1nPyuFk+toRsTPE9rnis27QSR9rm7V4Ud8LKZXWYVsMmpkiajlAEAPQfEGlgftFk0dLFTNvydpF3Fu/mWqcyIYkHFw4qLgqxlN4goHUXWSLQXHDZa8a4TcWY5EjV8s1iaG1Q07E0UcYo4sVruWJ7UnpOV+FxfTtqgWxP9kHa8kfN8ZrkVKzA8pJo1ZDUrXRHw1F0n+ICMa/xgsn/s9BMPMVlWG6OSqVPJJWLIg4AmPdApIF5jd3ViEXNl9F8ldTmaO8SLhxCaFjp9YhLqeLLTdRF1hYm9fjJ4yrE5Ed93YiaPs1pgSImpeIxbRei7AJpyGxM334i1aWMUD6/MrZv1bYiP92ha6BZvAs0vVSiYbrXUjm/9Hl+FjLy61WKlKcVK+eKud4eAHswEGlgHiILmBSxiFlhMbEsMKsLTiYyQnCwyV00C0vdRVXc2UomRVaPO2s1pj/VuEVtG4LeyTKSV4S6g25XHS8NC1usaCnnlOYeFqif1YW86rkh3rpK6fLQi6di/JiqVhdEbNndtIilpIoF7FevxVJ/gf3qu5UT9VEAQH8DkQb6mrRkVRe42o/eKEppjfZq145wgWGiSdy8LuYCzWMqpDKBpjG1eOqT/Sg1L6yIq4DzTSdHKzaW+NoU8TCLdgXfQkHL8S2uczPHyinx/SnRbt8OkYukep1IPV08VpbucDFloVaHtUueZnm+9VPXY+4r7IQfbQCAeQlEGpg/NF2wauKSq/nR1qzv9DHBEuZ1FhchmMwv7owlIZU//ZnF+SGNVeAxbWf8TpulR19p0IDGvFFL+dGmOaezjXbvLLVPCCZ5ZZ9dMiGi2KSUuiS4H/F4A0Eh1OqMHz2veMNBRsMYWqkvAQDzDog0MG8pXt/DcOlLac2iJnnudovQIiKMXEDZi/c9poJJ7oC5r/XCtztG5VitcbvlCla3wn11rVRyH7RPrRDKrqe8WXMlVhFq7gcSE5Oc4lp1AeimPTye2upoEgYA9DcQaWBekdaznFjYGhYyDkib/XYZE096x8rrIpDK4ktCEZdQ+FpJdfk6pDpTtPQ+bt5isahpm7mKts02dUdVYjM92s3GmyVi6HT9cBnmjbnwD3GVRJa0cRkiTCNSugkh4op8q2o9LOrmZHEr9SeaAQDzCog0MD9ptmr5omYLnP4a3fxKmySARBiZacjDIZ5UTkWuP/2ZC6tcjEk8NyEJNUVHc9iLthTMckv9ukOIjkTD8e/k+Epf7x/j1g3X7Jx3go5p48ojnxEPSclObhla01jRFmItt6Kv5ei1OSB/lu0qFdKxTblO7qdsAMB8YmDZfgd1/y82AHPEgHwperaImTvIZb4Icn3QYqQlL4IaG2KTvEE6/O0foJWv/y0aXLBQh5opO598lDZc8wnafMctpF//5C/u13d0ymvOsq+E0jJe/C91fQOA+SLAQoxprAHb59J+ysKe9tdist9St5jtr9Y5vmj/g+lln7xRx+mUx799HT39o7+l8dFdNl3dRy5l//hH918S075n+ya/qa7Tlkf1037FV3bJfvCP7HPsq36dl9SlD+/XYb/1blr+4hO4ids6YNcTD9MjN15J2x9ap/ugT1vzOZTzpudHJx7nL0ruKOZO+nw4jTVBd03m7vvgddt1OXfiSzzf92K/xZYcdBgd+Z7/Lh07Zv0XP0lPfPcrNDGyq7hudf/E92/CyGJyXIrr1SxeXxnXOgBgZkCkgb5mapFmvuVJk9Rl4eMyRAvH1rytiyLtz//URJouamYNi50sXrHo66Lmi5kvdOVFrxm+3yJGdMdjMZf99cVdS99f3WfZXz4WHF+0gkXa/+iOSDOB0mquc4geFj8WHdBT+9QGnYrSACINgN6hO/+qAdjdiCBxNxGLdF7mlsj9buGLFhvLxRTTBSsz+Ul1zWtXoAnWLvnR3/qpmxfentHW+O1jQlhEYA+YCtLOz2lP7VMbNmu0cSz1Shro3vUEADAg0sD8oY11uSGlC4t5K3TZYkFkmkglGRs/VkWTwDEVXA1Yr8LapHYsAAAA/QJEGpiX6FOdU9CNuy31sDgKgdQglPI2K6xe5JXvohXxgjxW0163TQAAAH0HRBqYZzR5LVIKze6dsxK5WEp+EVOP4/mdtaJVyHKLFCdv8ztwWbvdsxOnHBfSU6IAdAouJQBmFYg00N9MdTestl1ev5bFJafL2i10kL4eTX2WTbk4Ul/aop1z1fd4RkO3RDnP6kme1dOyEYA2KF+EAIBZBCINAKXLKi1TQ+pV17U217m69XDma+SMO4I9GYgyAHYbEGlgz6F6V63buqyKLG6lBc7rEcubmOpr0UpdAegpcHECMBdApIF5TOlJzd1HjdqySCHI6t/V2RwIONDr4BIFoHMg0sD8J7+DVlVtU72mbUbULU9ZLFNYU7yCrA1q+tcquE63A8D0rqGe+A8SAH0ORBqY/+wOfVIRSo1T8Ejt3CpBGStsOqT0afYDoELtO4LzmF6f7gMAugZEGpj/lP5LP5f/v6+uWl1YxZoItbY+ViNP0fwuzAeAEngtJQDdBCINzC+aabBZeVqzezRd19pZ8Zp9HY/sMvfPW0XMFV9TBUB7pH89UGAAzCkQaWB+0WNriE2nzUlN87sPW66X0tjQPr3xwR5MRcw3v3JwTQEwm0Ckgf6n2RsDwp/jdaQknsRXs2DTpyUr8WZptXhu8WG4RrqHJkU+oKRZAUBL9LKJa8dLi6mrTPedyQCA9oFIA31MrsiaIAKuLq0k7NoYZ9aYwQI37UWxms91GQOLK6hDLouGa2OqehNwiQHQERBpYP7SZIHYnZJMabZwNayDM13hsn75GOrPdEywp5CuELleWlwznX98DABgKiDSwDylhRTrlTcRzFiEzYTykmrfKYpFFkwTXDMAzCkDy/Y7CP/qQJ8yQANDQ0l0acEPA/x/j8lB+f8H+1JKLJVDXIg/yL/cQeIcW/N776eVJ7+VBhcs1LFmys4nH6X1V3+cNv/zD3lBm6DJ8QmiCS7ZZ4dDUed/dinOjI/zQ/xT9I8xaLUg5vusgpT3jSuTEpD9lH3kfZOYJqkv+y4+l7LvC4ZpyUGr7RiU8mwsOUYR50fzzWsTnr/ugu1H5jLJYTfzBd2OOvaYqsX206M3yvm1fSc65DfOpn1+6V9xE8+/A+Rcbvzba2jHIw/q6670nIXx/HXW8iBv+ND2CEghpcRTJGEzNmrb4iE7DkVcyiLePjKRmKNch+KwxbWoxtcil6PPPkVjW5/la9La9Bqd5OtTfL5OI1+vZR5jIMbQvfFtRI6PCQCYGRBpoI/hxWsaIs18M1nAZ1ukhSCbUqS5LwuckS10rUj7HYu170+237qvsp96DMoCdVJLMTuG1hZ9OS79YzwdS1x5cJIfZTbffO7hl3Znin1L+HYDnYcEfE7RKPvhbavf/gHa92W/avvRATseW08PffnTtGP9PbwLPF89R4KcH5k/m5QN+xft4qZge+g+Gerl+1g0WTzLNaSebS+fQ3L9emNT369Bna/EJliMyX5KTIRcuka9dOFmdSuln5a2Ba3G9RzjAgBmRmd/xQAATahZmDyka9YsLVz2TjteHPPtp235oqmlRQSLqecFlxHzfDUtpBTHfXPcnBSvUNIUVYGRI21ueVoSJhWBxr7VzR8cXuR5HSJCQ+9wynA8XjZm2n4eL5q1PfWJ9qnI8qrbKx2HID8Xivt5XP1wQ1AV4slKy9P2HGlL51byOEfi/phKzVOncAEAXQEiDYBeoc21vJGalVFCaZHN4bqHitelWVlauDkWd1Akppb1tbqXVQuqdaG0j1KpMydz2xI6nDO4cFjvhpqI6ozJyXGaGB+t2XbN2JGjRdGe5iHlVCZpmmq+kftNyI99HO9U1wq7fh61SeJRD5NC4l7Pc2uojzpN+gAApg9EGgBdpo1ltQXTWODaXQwlTXJTvvtat1J+jCKmcS3tqa0Qb9YmbvhNrIqEasK1lHSKV0LIaJnFMlEzuGgvog6fsg4mx8ZocmSn15xsW62FYLt5U+EHrHrs6o51Q90e7BxGTHwTaBa3cEmMR1xi2paPIWYxAMDsA5EG5i+drI19iS2mxVOeUmRlxKXUusXDJF60lX1dsOX1SfoaJYnli7oO28T4Iaw+ocbKrvWtksWy9qG9l9HQosVe64zJsVEa38UiLd9+5utxCRrmaPV0HAPxWxg/cmF9Ul8VS9qiOWZFSE1eP6a+lNyP63KO9DWQKSZ1e+G/jcul/Eie1AU/r0XMcqxNTNqKelxrZmUaIwCA6QKRBvZcOrrDMcfIYhhWS0085foyq/2jLr5Z4YcAy9ryMusTsWo+PyTL29sxfuB+QoxRwds1N8h9ZmjvfWhoeInXZo5sY2J0F03s2p7qBTJfK6vbt2lLXJq8Tcqwqchz3aSXjBUWcX4oLGu3nFxEe8zzUqxal1KyrDCy9jJSL8caUgAAHQORBkCv0GyRq65+eZ39hmYv1ZNGNY/I4p3FpbCPUIhF3drzui36toibeVu6S2P9ucXbzapCYSrjRy68ryLxcN1JbULh2/YmaXifFTS4eG+PdgCPNbbtOZocHU1jq+k+aoI8GNompVY0X/cm9ZFwVu/Q7BgVgjrqdce71OZ3QbmSza8YZ6DaX3LUpPA+7gvpY0lyqnUAQEdApIH5yx65XvBOy0Lpi2WxiBYxK33R1YXZn7bKF2lpTXVeyEWQqSiT0ttSf+8TOSnX4+2YkNVDOHBFfxWtq+NtFQYGaMG+B9DQks5FmjwtOLr5aa9ViXmFFbE0r7wMP/pNy6Tgss5qj7X4IrzM7HwVQkxyrIy88L1NnzaNeNGnmIo4HgMAzDoQaQD0I7WLZJOFMxZa94uF1xbnom5WCLJymy78Grd2e42TLOiFcePMTPrGtoS0zWgXK+JSKbdN0uDwYlq04kAaWLCA450hIm1k05O2jbCabeqcvJ5y/dipaYIfO8+ZnpWPr1iMWR7bzc8JV4pzJH0iJn2k7uNHXO6ipQ+4VWxc7SO52s+tAcl1V4h8AEDHQKQBMBvMxRqVrYzltdPfPKBBWUCtUUs3XUSljAVb745JLBZ2a0sLv/reR+q5yafQ5367lo8hlm2PH3RbhdCI+emOmPm+xbzk9WiLDjikw3dTOuNjtOupR9O2Ym4xr3QsNO51n7fVLT/2Tdu6ZNXjqLEmxpOw+eixklhx3LWfz1uKlMt5nGDHQetSmq8Ol8VTnWKO1jMqzQCA6QORBkAvU1346vAcK8L3flFInU3D4fsqqqXEXKjpXRVdqD0vFm2PWw/vE6aCwNu1TztW5PKDj8GljB7xfDtpu8U+eEVt4T4raNHKw9jvnIkxFmlPPKLbaJgHHyf7Jqio27zTnHm/Ih6xssVxmo7VjRPG25M5xPFT4z7yI21S17nYOFKPvnauZYct3yrWJr7UyjEJpELR5qBUAQB0CkQaAP1Mi0Wx9PEIKc9LqSfLFmh9TZK/mSAWfl3gOUPLEAPmq/mP9udfK9u1fCweRWI6vrVpPY3tphuRIqsPDtHig55HC5evsLYOGXvuGRp91p/uJJuP+lLlBz0Ovn2bt+1H+VhJu8UkrzAdohKrs8hrletjc5L+cD2Opc2FTT92w+chMTYRZ+kpTillIzqOtasfltrM8ru0Ca0DALoNRBoA84HSIsn+gCzY+YIqYfNtAc98WcBloc5KWbxlEbe65Pt3Osoir+3iy5duexnxSREEYRFrNO7Iv7nF/KSd55UJBRM8UreYzTnrw8g3DSw9+uUdf19nsE2+r3N8jL1iHnL3TOen+27zSfOSOeo8Jbfoo8YT1R/Pb9/yY9nMivx0PqSeCzOZg89XLMRZCDRt9zaLmdnUw5eKYX7Ui3iJJmEAwPSASANgHpHWUi9lQTWhJgu5lGbyk3wteZGWuyhp0ea4L+RyV81itpAXokzaZWG3fsl344emFsIiN27g39iOzCvyfT55m44vdZn2BA0u3ouWvfDlsstdYev9/8yPtt3Yjs3T6xxQ3/dT/Sy/2C/fj9rj4f3bNc+vHuc6K/pIGWJaTI6dzNHa0vzUt1K3I7if75vdnQ0ir1xyDy2tPXwAwEyASAOgV5ji9e6y+OU/iXyRZLOqPFjcWxlpM9M8Wax1wS7iZsUdmiQKxqWUPhYzoWZm7VyKeV37ZS9u15zcqnHe1kSMpXPwUrbp80pzYeNAypEd3Pdlr6YFey3z/ewMGXfLPT9Nx0XGT8cithtzkXo2R2mb0Lib7JPuZ7avYs2OSyvz/Pw42LjFWOm86HxjfJ+jn780f8nRnRNfd1JNC20Xnyt2AFSgpbqahg13OENLAEB3gEgDoMdIC98UlBbE2k4SY5O2MK/HYqs/vHjLwq8mC7fmmh9iQ+uaY/mWYn68vkmNcwZCJOSWBENhOkheSpxzbXuyAdlO+BK3mPqyHwpvf+Ei2v9Vp3i9c7Y/dB+NbX5Kt2dvEIi52bZlDnlM55Lq0m5+MsmRNrckojowOcZmfswlxqbziXPEpiJctynb5nMQY+icOcf7mC8mTVb3ipdSeF0thRtpFgcATBuINAD6AF4+3StTiseqyWVpATWlwYWV0styvK4LtYT5QRZzbSsEAQe1rhYCQ8q0+HN+WBqyiMXdupKYkzHCRDzIWL59m4MZB63kJvNtrBhTbPlLXkmLV62WhK6w+Z9/qNuxO0c2H52AzEn3V2Jc91hpvtrmdfElxlbeb+7nx2bGZrvOVo7H9tV4WyHM5O4oB9g87pbmK311wGiXXI8x5ac5mahqH6vwDLQEAHQPiDQAeoxufaOorZ2yiFoZwsMWVlmMJWZlLMzipoXb23XB1jxZ6KUe5gJARZbfpVHxVjbLyY3HFRuXfJtPSbTJ9mQOsv0oI+77YeUEDQ4voQNe95bufDYaMzE6Spt//mM9Tkn0yLZk3rJdn4fuU2Z2zHh/tZ3FGNd1n3w/0z7LODqW53dstj3x7TzEnPx8iChTYWZzT/sh/dRkX6StsDi+4uv1En3snROWxp46VVKopg0AMG0g0gDoVZotgmEOL5vuMdGn1LfwZbFNd0VkEWc/LdKyaOsCL3VuVxFlJjE1z4m+3FiY9s2t6KP9tK+Mbbn8YHkuYEKwpXbPV7HhY2m7TM5jy1/+q7TXoc/nWHfYvuFeGt20kYe3ORT7zNvM56Nz9xhbKcf3R/db55mZ51qbjVE26zNtq5yHsGJbVrJTzFG2p8dSzHOkn8dUqEqboHdjza1DxwEAdB2INAD6CLlflEzWRV8bbbmNSlGKa1V5MNOFlxfq4q6axGSBLtpSPQRHLtiS+Z2bUt3u4JiJP87ji3ksb49+7Gu7+uLGvCwuvvXx+WlJtGDZfrT/if+aBhctkR3sGBl787/8E43v2u7bsDnYceDSj13MneLF+j7PJMx0P7wMX+u27+yw2bFptCxfLI7plCa5YUU9nbPsjR9a6hzK8y1Eci7Q3Ny3wutu8hNpRnIAAB0CkQZAv1Cz9umTfFlcF0x1yqUV8hAmMVuM0+uk1GTB5lFi4ZZcbfe4tpnpos55JZMxKnXrZ+Oxp2WMyQ9aSo7WWWBwRX61NLNx+MFL3u+hIdr3+NfQXs87smtPdY5teZa23fdzmhwd5c3YdtO8fNs2d/Z536RNjl1xLGLukiN9vJScBrMxpjTJa2Z1+WxxftQ4T+enfbhd6r59FXESS8fVrgcdQ8r0vwCxSDE/lQCAWQUiDYAeh5dT91qQpaT8yoJarKvimOlizaaLs8SidD+JNYkns8VdthP9k4UgSCXnhmV1y7dxNM6ChiPmu2k4q2vMt7nooMNoxQm/rt/X2S22PnAn7Xz8Yd4Ozymfi05Rtutz9Xkngeb18j4VdSlLxyFM42VL4qod4y62jbLxQ5pD7mt7bFdi2T7GXVXtr3ibeIVrZBXuIQ8ZpQoAoEMg0gCYDbpzc6cpshSGpU3VrY+xoGYLrhFOxLnkBTwWa7NiIVexwe0l0SYLfljWR3PkR/sVlsSI+tanNJ710jHMxNfpMeKbybcL7H/iKbT34S/q2l208Z3badt9/0xjzz3Nm7DtpNJUmlm2vyKUrPR98DtncaxSrr9BIj8WhXm+m+33dCybU5jHi3HN13h2HMXsTqrNRWN6wMUMDYWTcgzu5V5QrQMAOgUiDYA+o+XS6JXSAhoLq5fFWhs5UkZbsXCXBJu1mnG9WPzDTBgkU7GQ1bWn/3g9b9eYxi3H4iIqLM+aLL730S+jlb92Oou1hdbeBXY99Rhtued2FlRjtj2fv85FHmUuuQASgRZxna/H2dK+hzCLPImFSU71GLVhdtzduL8JRN9OMmvnBzOZn+B1uQOYizMxy/E89zUsJKeAW8NxGnMAAJ0DkQZAr9DGOpdS5AZSWIZW0/ppP1bhsmJW8IPmiPHCLj1CBEhbiInx7INTpa6dpXTjmL5gPfX1usbNcmES4sI2LaVs10oJyqMg40hlwCML9llBR5z9YVqwZKnWu8EEC7OtD9xBOx6+v5irzEe2qfsR87Y553fQLBZxrssL9LWZ6zp3i5fNj1Neb9PSMRTT8euMBRi363mqMZuvGSfLEdDS5iwmw9g+Vi1+5FdNSU4Z6QMA6AiINAC6TKdL07T7Z0Ktbt3URTXIF073ff11xIlK+FYvFnGu82Kf33ET86SyRX8VBd5X4xKWmUndfK1rqY3mB+wvWG4CbdF+B3qwO4xt3UxP/+jveIr2wn/bthQxH4tp6WYCh/cpj8udM61zm+awiTAKMaRxa1PjWH5XqxOz7fPYSYjZ9m1bvl2Zg5oQvtUlLRGV6O/YvqmTUaoUlAYEAMwUiDQAZoXKLS7BQ/oyqi69lipRN1y2TuoCG+SLb+bnYfYyE/K6WQiBXBCUhIPgca/YYykm0cI3pJ61c+7Qsn3p4FPeQfu8+JUe7R6bf/4j2v6Lu3VONjeJ+p2mmKu2cVjKmF9qc1HkMfVL4sysdGzEMjHVqZVFWNWEcky7ZFaueN3hbP1ppC4GAOgmEGkAzBJNddgUa1u130CtAqshS0tuq21lC3G+QIdbNIuTW1CJc4dcODSINXO8ZCSW2q2oY3DxEjrgpN9k+42uvg5NGNu2hTb+3V/qa9FU7KT9kYJLtUKsJfHlwsxinOt3sCKPH5IfoiwdG3+DgeZM10ofi5GbUBcP40cuwuoDTKUus3XHLFGqlMnHAwB0BEQaALuLqe6m1bS3Jb6qeG5acHOqC2qlXlmzHQk0BJly3ESP6AqPpYFkJkWeoPXGDfFfqEHa7xUn0yG/cRYtWLqcD8kUx2yaPP7dr9DIE/KxG759LXg2SZhFyckqrKSUdk3kkOdIWH6yPiFSU8wGsULx+nRMxqqLqzns6iYrlmgIMDUx2R93MqRSzitRHRcA0BEQaQDMNSWdwZWS8GghQrhJlsCUUbdeZt3FDYs8FRLVTrFAxwKb191qQpJYY0JRbyrUvGjFwNAC/cDaI876z7Rw2b5dF2g7Hn2Qnv7+DTqnJLpkYi6yUkxDceeMS80pjB+13ROt9PzixflmFguzVDV5PVu3rDQwW9zlC6u0yxz5sfjRmLT5tJVSpZEYDwDQVSDSAJhtVCmZwGgqNCTepgZpWApj/QzrhGYLbU28ozW5YV/LgcHFe9OKXz2Fjnz3H9NQF9/JGcjnoj3x3a/Q2NbneD/iwLHFTkmZm7fLTwid1C8r46lNdlIfsQgrUcmtE+rGy60G2xP78UBhJWqDZZpsAwDQORBpAHSZdm+M5WjaZPPkuteltTl096hZjGe8Ptf18wMnH7Nx0L/+PTr8nR+aFYEmd72eu+uf6Lk7f0yT/rloMh+dEvtxJ0k+9kP3z+ta0YAXpThPP+rFYPJgueGkChP1Tq0FPKPaH/ktWQNNG8pMsX0AQGdApAEwi5jsCDmVyyr381AdmeJToZblx/IooaoFbS617TNLi3LMedEBh9Chv/0eOuTNZ9GCLn7lU86uTY/T0z/6WxrZ9KTvj5uKnsanA/lBzcQN24THUo58jIY/HZrgbG8unMyPegXbSvd+EuLmVsuUCWWa7AMAoHtApAEw10x5q43lmKqtujamEs6X1qopOpa5PUN1/9hdtGo1veC9H6cDT/5tWrB0H27u/qQnRkfp2f93s95JU0EmR0l+XTjpMePSRJf5xd2xyHFfiTKQuvSxWnK8b46NVP5pQELdsKa0lVSmZl8AALMDRBoAs4GpLPOZ6tOVVovoAE1yvomScp6OEybV+NGYBqY2J/Xlnxnj82iPIlf2T8n2w5xBWrBkb9r/1b9BL/njL9HyX3oFDS1caPs3C+x45D7a+LdfpMnREdYZLIvEXKDk7+jUSGqTmJkUFhK/uOuWhJz08PbcSj9S13jq0txaUtdhutYG2X6oAQDmDIg0AGYTFVOZ4Ii6hLJwCY2zjIn2cPJxmBBc7f5MScytGTVtzdO9gROqAk2EmfiDi/aiZS88ng4/5yP0gvM+Rgv32c/aZ4ldzzxBD/3l/6Tx7c9ZIAklEU1yV81jWrrvZqLK27jRRJmjflhGniPUpBTBmdgsU9pnAMDuACINgK5To1w0VBdn+aTiJbublr2BQJtyR8oU7JAYq50xa9rLIalEwErZl5SiyWws0CS+ZPXRdOhbz6Xnv/siOuCkN9PQ8GLLmyXkq58eu+EK2pZ/s0AudkKQlO6O+dOhYloXN157ZjE1fSenYU1FXeCe8lBDbXD3EvtU2QcAwO4BIg2A2UBEiasYK4q6on5etyLdddKA+UUoHEb8Tq0ZU+Q2hvKK+SLEZF90fyKZy8UHr6Hn/d75dOR7L6FDTjub9jrsBTQ4tMDaZ4nxkRF6/O+vp2duv5lrmQhxHZLukoUwkSL5Lui0XsQSyc9igsdVoJWQelgPEPsWBgDoKSDSAJgFQrbIBzkELl+SaNEiiZg8bqURMW8OJ7fpUjdGbhUkUt+sLeYqdicwBJqFrNPig1bT4f9uLb34o1fToaf9B1r6/GP07ll5X7uPfNzGs7d9j57+wY00sWunfcZZJpRMgNlTnSHGpKzeRVO8LWL2Ab3ia6ulyYM6Eo4GKzJnbok51RkAoKeBSANgtsgFiPry9J8/BejiRUVKlNLCpQqcQfmnWcTCNxFkoWSDHJuOVfvXmuSZaSDmkqyY34A+hWlPY+rdswULaGivZTS8/yra97iT6Jf+0+fpZZ/8azrkN8+ixQceqt+/qePOMiLQtqz7mb5RYHTzMypKRJaoNlGNIg/29Kb4PHNvM9EW8VR6LLRWikW/DI6E41QScnTMWTQAQN8CkQZA12EB4iIkRI5W1aRugsaCEjbfhIvHxVioaUxfoxYm5PUuWWw7maNutc3mGja5YCEN7bMfLT78hbT8pb9CB77mdDr8rP9Cx170F/Si/3IFrXjlG2btIzVasf3hdfTojV+gnY+t52NYCC8xE1FV8eVmActJdXGLtvQ1VzpGuOV86W5ksZxqPgAAVBhYtt9B+CsB+hQWCUNDXNjir4UIB/6/x6TfiRqQUmIieNQ30zs/Q9ZGg0O05vfeTytPfisNsuDoBPmg1Edv+DPacs9PeQGWF5mzOJAPP+XFWBf5iXFbsie4bcDa7JPqJZjlqR8xKQWVDY1Y5+mR9FJ7wkkPLR+bwUVL9FsARHTJF57LB87KNwQs2n8VLT7kcFp04GEc32/O7pY1Y/tD6+ihL/8v2rbuZ3Y83eJjMyxmbwKQO24Dcl7kMGoZbXJ+/I0Cnifx0jcLyDnRQh6slJ/yiSpVCqIPAAA0ASIN9DG9J9Lkw1JHWKiN79jqEVmi80XbnXyBzvySl6X0AgN8nOT4qFgbXsS2WEupy5eh705RlrNt/d0q0LbffycfWhNldoz5TOgXkIdQK0TYQBJjJs6ijR2LZ+25SLNS3KKUn+LcJacgcgEAYAog0kAf0w2Rxsbxbok0sHvZ/tB9tOEvL6PtD97FYiiElVjhh9iyO2Psy92zdLeTY+RtKsy4KrFo03wu5WM3tIv1U7xMwk3JfafUDgAAzeEVCoB5SpMbO71xvwd0k0kWWlsfuJM2fOlTtJ1LEVaFQBOBJUkm0MI0qHnRJgKNSxdvEU9t7itauC94nDO1NHKfyfsDAEAbQKSBPQ4sk/MLEWib7/wneuhaFmj33yER1kImiEqCTJPFDxHmcfH1qvC2yPOY5jH6ZoFSXApra6RZHAAA2gciDcxf2lwncWetf5nYtYOe+P7X6KEvfYp2bLiXz3n5DloyF1sqxjQmry0TsSZNEXNBpqXFTaB5jD31q2iOtEieuo14DgAATAeINABAXzKyeRM98jf/hzZ+7SoafeoxjpSFUBJrIp+8jDcDmEkhbXL3zNtTW5YXJF/6uFtLy0YAAGgbiDQAQF8hwmrn4w/Thi9+kp78+6/S+PYt3mJtqqBURZlYSgLN45GT4tqW34GTXlFYTJ/qzL6jU4l8cTVPXQAA6BoQaWB+4otnTrM1FGtrfyAianznNtp8x610/+c+TM/9/EdEY2N6rqWtEFni21OZKp7kUWL6bk0RXP5mAYmnNwlEPykqT5lKZvItJ+ICR+ShOVkuAABMB4g0MH+RF5vlC2TtYokFtB+YGBul7Q/fT49+7f/Qg1/4I9q1cUN2PqVkkzpbSaCF4FIxNsGXRIgsjktMs6yfN7BJEXXG84QIKaVKUBcDAICZAZEG+hhfEPPFsrSIelkl8msXWdBLiMAafe4Zeuofb6KH/vIyevJ7N9Dkrh3ZuRPRxb6b+RbXunz+md8tK9q9rjnVNjcdJP/6p4wsxr0stRl1/QEAoE0g0gAAPYmIpi333Ea/+POP02Nfu4q2P/gvLLjGM+FTFlbJ97jdUQsR5mX+FV2hrljEWTVrYyt//ZM1J0qVoC4GAAAzByINzH90na0soLWLLOgVdj3xMD34Z39E931mLW25859ofJu8OSA/Z4WY0lryM2EVd9DE13Zx/elPj1k/rtoDP1pbEmjpzQJeat+MSrVENRcAAKYJRBrYw8DC2YuIIBrfsU2/GP3hr3yW7vnEH9CzP/0+0dioiZ1kIrJcaLnJh9lqKT8pZgJN636nTPK0rnk+hrZ5Hy11MsVVoo60SSHtbhbV0sh9xnMAAKATINLAHkC2YNatpVhQdxsinHY9vZE2//OP6JEbv0D3f/ZCevI7f0VjW54tzks6Py6k1DU/hJUKJvUlVgi09EaB7K5atCeBpjHrKyKw9psFKnDUmpWaBAAA6AL4gnXQ1wwMLXBnwL5gnZdl+fL0SamoyZep51+0Ll/Inn/BOudwbM3bLsAXrM8h46Oj+g0BW9b9lLbdfwdtZ3+chZmJpowklsTl0tvjnZnWFCIrv8PmQi29cYDbIi/uvLHLjo3l+eXXoWmC5cmDOhK10gr3czwPAAA6BSIN9DUzF2nuD0KkzRVy12zkqY30zM/+kbbeezvtfGwDjW15hiZHd7kwqmDqyF0uQyQ1E2gqtiQodRFfXHpskqyP5mhMa57Hok1gvyrS1BXE8Yr1U5dJTkHqBAAAnQGRBvqaKUWa1FmgSUwEmYk1s8EQaeyrSHv9b0GkdRl5anHX44/QMz+9WZ/S3PHwAyzKRqTFEuoolBG77ieR5DENh98o0ORdnMXTnibQ1B+Xu2jy63nRzmVLgeal9bOqUaoYqSMAAHQGRBroa+zOmAkyE2mC3SmbFEFWEWmszMxnk3Igv5MGkTYlJorM7K7UGE2w6JoYG6HJES5Hd9HIs0/R9kfup20P3MWi7H4afeZJe4pxKlTc2J8j0znZtiKofh7nkucR80rfJqCxTJxJyQJN2+yBC2kzgZZM8rQt8opSx/CQUaoY0QcAALoARBroa1qKNBVjmUiTdvFVvEk5pCJNxNzKk36Tlh97Ig0M+XiabIV6xeCZn8VqqfzTarbA98nCLtPUd0iOjepTlGM7d9D4tudo9LmnaXTzJran9QX/8tVNIojaJu2/iyM5NhHj0sSRmAbYtbrG4w6aiy1xLcYiTdoreamvlvUCTbBqxA3tk8h9p9QOAACdA5EG+pqSSNOAPIRIszgnqTCTWOlOmvsi0gaHF9PQ8CKPm3DTEaWu+TaWjqEuPwhR2oYz+J9V+pclosDKFIu6PKbFPWtPNAR2GzpPuUNFEzQgTye6GCqOwTSoETwhoLxidfclx+ohsHJzAeYfVCt1rlksE2LRT+ft7S3fKJAq0sKlhzKnIPIBAKCLQKSBviaJNK3E3TQRVq1EWsSG2GcB5q9Lk1y5k6YxEV2eq3feNCYplqeaTEoLWllHvninhd+KcMpiJIfr1dDuRne1xf62Q9pPK0v7734STlrNhBSXDa8/05iU8hRnxN3XXPmVBxmnEG36URuSLTHztMlcy1FX+prjJKcgdQQAgO4BkQb6mnqRxg9JTEnAxZfEs9elmeASsWZPjaqQc0EWQk76m1Ar7tjpFrSUulYNbytRt3iXQl7hvIbMfl/4G+Zf1EvCzMuGGOdrTNqkb/hs8toz8zlN7+55O+XizNu9rSrQbHtu9qttipc2rrpMcgoiHwAAZgFehQDoc+oWyrTYWiF1dSXuFou0FCzTyrE8V133vV6UbkKeE1YlhcQp2msy+xDei4Z9l9LMwn6MM2uIWXaKy4+1sQBj8WVvDpA2SSyEVxJobhpKfhFXgSYbcTQcTlbadtUFAIDdAkQamFfEOivY01n5Kus+x22ZZpMct1jI47VNkWPxTADInRtpD4Gg41ihlpPHtS05io1T1HW8sJ4km1+DeXtmsX+6j3G80l2uOKZxHLnQPlzXYyxx88NUoMn5UROfTT4DTeI6lsdlOHvwuORkd9C8zUyKcinzKFOtAwDA7IOnO0Ffo09DqiNPPdrTjfFUpJTxujR77dmgRMtPeWrdn+KM16Zpm/n2lKgMIaU6aWzzpRoxqxpRafznpSKhSl2sDslrPvQcU7dv+qi+ku+X+2n/U1sW11gmpNjEL+50SrMJLhtH4iLUGBFykRP5EnO//BSnYKWKPnUiLi3sF1WmVDGyfAAAmA0g0kBfUxJpXppI04r6ItTy15RpuwgxEWeak4k0j4WIs3wpi/E0pnkWk7q5XjLh1f7jarW477aFf/rbNcFToRrzepHrpWingRBNApcslkwcueW+FhZLwsvbNe7W4HuO3VUVV/qqp2nmWk7ALfKQUaoYWT4AAMwWEGmgvxExFZIoBJRW5cFEld1NE9FlpeboXTMpReRJHsdVmPH6mwm06Kd1QWNcV19y1JEHbQp/ahr/2dm6v5v/OU5HfNTkFqLLqdRNAHmMS/P4UYWXuCGu+EjqU5gWs1wpOS/5ltfq6U1F69amZr8eK0od0xwnOWWiHwAAzDIQaaC/qYo0KUSAaYzNRZVZIdQ0tSrG5Idj8nSo3n3ztpK403FlaIl5W5D8LNbAFP/cdrcAaHP7KauU735piCR9PJdNf+XBW6RkE3GlT2tKyF8XqPGUW6lHe5TaMeKF6FPTVsnVqMeK0ntbmpKcMmkAAACYfSDSQH/TVKSppyZCKv+KKMsTn0v2i5iJNhVeFaEmlt9Nk5/wo3SviLVDm4t+ZLUaud1/yHVjaF+ei0x96illCTW5SUQlpF6JS+l+Emdcaii1Sd1KNW33NvE5mvyIe156B2fErOZV86P0zEhxShUj+gEAwBwBkQb6GxVfIjxceojKEMGkVfGlLISWBEKU2R0yr2uuC7RU8rrMbTp2JS4P6lvFSG4WYzTNmXqd74F/jjOYo4mpgH2tWiy1Sem+CKN4nZjFpZC6+XInzMSTNlhbmETr6p5bvEFA8Lg8quvx1C6t7BdVplQpyPoAAMBcAJEG+hu90yW/roRURImA0oqGtEx3y1xcaY71tac9PZYEnZXi6gfderui8ahnMfOYwuuM3vmnWYienCzm7VZ4PPqkvlzmMfv1mFTMTJwJ7GWvVSv6hO+57hdvDpDS/Ci9yZxUkVape0UpVQqyPgAAMFdApIH+JoSWuJlgMiGlFQ8N+hsIpB7tUrIA86c9U8yFmo4XcXn6U+vyW8QVL/NHJdrbpaeEgM2ldkbVeeZ19/WR/XiNWSmefeSFiiT3tTWPuUCzu2bqyIPXzbdUr2vM65pntcJh3NdtZOFKpSDvCwAAcwxEGuhvRKRpKb8uijIBZYU8sOnTmuJaXQWZP9WpIb/blgu11OZi0NpkSddKqidKdclx18mrtf/wekkUtJpL1qae15MoEzyWUtVh41JDqUHeiSm/1qZIKXlStQcPW24eS+8MHeC6hmoEmpe+Zc8LSpWCNAgAAOweINJAf9NMpHlZaCbPy4Ra/qYAfvDC6qlN41ZaXdwYV2KyxFu8tWDbjXRBbFSf7iyLsfSgRWopCSTzi3E8xnWNSDzMq/yY1cMvYi1fe5Y7KSAZ7BdVpyFQ6gMAALsLiDTQ32QizQp2MjFVFPIQgovXYBdhWveYjKWux4o2syTCUsx89byqRF6/0kqgZE3qlnLdtwZ1pd28yOMyYtFXSvetyOvhW138RnFWlEWYnVQxGgVaub1EpS8AAOwOINJAfxMiTQjdJE5JUEkRwqkQW/GxHPYrD9Im4k2btW4xK7MGi7lv4agz0sfdfkP/GLQUKFmbJasb1IqnLC+1S5ltpxBjWrFC+5ZjSaClpzYFiYWbgsnXcczJKFXK5GMAAMBuBCIN9Dcl8cSwmyRSCCkRTSlFHEmyLLuj5nHNK9q10Kaoa41jVkZdIiVSvKFlTol/2K3mkP/jl7zSH4OWYqXSluUWoijLCZ/LFC4ci6tbjpmbl2FGkZ7nGBBnAIB+ByIN9Dc1Qqm4y8WEz2URFscqklt+16f85vWsX8pz3E+iTcjbG2jVNlt04Z93rXhJEsio5kjdY/qYmiXupTxmedW2tp/WzEtHZ1cOMQ0Bo9IXAAB6BYg00N+URJH7XDQIpxBUKSyOV+LNBNbRSxFn3q6l+al/MVAejLQonHKtN2j+z75e29Tk14mbJJqiRzgeFzinLKLc8b4lcZa9YzOIpsJh3NdxzanQECjIxwEAgB4CIg30N7lYqiikKYWaOJMR8ztqVrFS+rOvtUpbGtuLEql/nzOVePFmK7JcdfN6lqF+Y5sKs6w+XXEm1Au0UqWRfCwAAOgxINJAf9MgiMriqRBT5dKKlMSLdcTzpz+D7K6aEH4pR7Pcy6gJ9Szxl0DmXPmrkARQHa1EU6pW+nOeCLPA7pxVcryeD58qpaBkcr0cYhoCZSpjAABArwGRBvqbilAyspi7rcWakBJ58eYHbjA3EiTmbuFoXlA0Z+39jguZRv1T92fDY6mpyAlBpo9538q7NPUxay5VMr8kGvP8cqWR0uAAANDbQKSB/qZWEFViXC3d5Yo+XpaHiEoRjLtohWBjyp2cuhgj4eq/str+s0ArURJTaPsvQJPEmm003iVzSqJMyPPcEfJKZfz6pzWFhkCZyjgAANDrQKSB/qap2KnEudrwdGT09bIYqpIXdU6IlpJga4DbWjX3A/pXob0/DSVBpg/Vfs3rpdRqv0q9uTgTaoMFDXMCAIDeByIN9D9NBVMWd7f2jlrg9XK4kqOUY6XXq7WgtbCbe3JxNR1Kd8ZyGu6SBY3B0hB5pWbs5k9tCo35JWa4jwAA0AtApIH+p6X4ydpKbl6p98vDlioVWrW1R7tCrx2aiqiuMdX4je0NU6qbYyXW0Z0zAQINANDnQKSB+UO7Yk3wasNToEJ1nCbjTl9XTbtDd5HNl/61d/ZPv6UGatbYJN76bpnQamMZEGYAgHkERBqYX8xAqAVNX7NWZQp1llpbp/UsonNk6tP6w9BKHLUjzITatDZnAXEGAJiHQKSB+ceUt7hq2rNQ7d01oZ1bZ+3k9BPTFT9T5LcnzIRpbBcCDQAwT4FIA/OTtsRSTU4l1FSwBfNNlE3FNAVRgygTmg4xzT9FEGcAgHkORBrYc2lbYE1TiM0X4TZjEdSkX4SbHR6ILgAAKAGRBgAAAADQgwx6CQAAAAAAegiINAAAAACAHgQiDQAAAACgB4FIAwAAAADoQSDSAAAAAAB6EIg0AAAAAIAeBCINAAAAAKAHgUgDAAAAAOhBINIAAAAAAHoQiDQAAAAAgB4EIg0AAAAAoAeBSAMAAAAA6EEg0gAAAAAAehCINAAAAACAHgQiDQAAAACgB4FIAwAAAADoQSDSAAAAAAB6EIg0AAAAAIAeBCINAAAAAKAHgUgDAAAAAOhBINIAAAAAAHoQiDQAAAAAgB4EIg0AAAAAoAeBSAMAAAAA6EEg0gAAAAAAehCINAAAAACAHgQiDQAAAACgB4FIAwAAAADoQSDSAAAAAAB6EIg0AAAAAIAeBCINAAAAAKAHgUgDAAAAAOhBINIAAAAAAHoQiDQAAAAAgB4EIg0AAAAAoAeBSAMAAAAA6EEg0gAAAAAAehCINAAAAACAHgQiDQAAAACgB4FIAwAAAADoQSDSAAAAAAB6EIg0AAAAAIAeBCINAAAAAKAHgUgDAAAAAOhBINIAAAAAAHoQiDQAAAAAgB4EIg0AAAAAoAcZWLbfQZPuA7BbOPnim2jtq5Z5TbiXrnvdOfR5r82cZbT6JUfRoo230bonPQTAbmDp6mPpqL0epdvv3uQRAACYGtxJA/OSpW+6kK75xk105acvo89e93368ifOpGO8DYA5Y+mptPaab9MNV19Of/q5G+jb111GZ+BCBAC0Ce6kgSk4jz77vTPpKK91hc230MWnfZC+69Xu30k7kT5y3SV00kqvKiN015+9gf7gi14Fs8g0rpnxERoZIdr65C9o/brb6NYffJu+8717ab7cbzrhozfQxa9b4TVj5OdX0Jvee7XXAACgObiTBuYhx9OqkkAThmnVi17rPugZhoZpeMkwrVh9NB33+jPp3I9eQV/+zk105SfOo5MbzmH/cdxhZYEmDB96FJ3kPgAAtAIiDcxDbqOHNrqb2ELrf3Kz+7uDFXTUm99Jaz/x5/Tlb95AF/+6h0EjQ8to9SvOpLXXfZuu+ehb+Mj1L7evf8y9gq0P3EY/cB8AAFoBkQbmIbfQxX90Nd0Vz5mNb6J1X72E/tuNXp9jTrrwS/T179xAn73gHDr5FWtoxfBCbwGtGaZVrzufrrnqQ3TSUg/1GbdedBF98efFk7eb7r6ePvnR670GAACtwWvSQIfUvP6o8pqzqZi9d3f2Bo37t4VuvfhUWvtNr847aq6J+66lN5xzuVdyVtBRr/gVOuHk19LrTzyRVje5bTbC/S/g/nd5HQAA9gRwJw0AsBvZROt+chN98ZIP0tlvfQ39zkXX07qt3pQxfOSZtPbCE70GAAB7BhBpAICeYdN3LqV3n/lxurXm7Z2rTjqHzj3CKwAAsAcAkQYA6C223kRrP3wtrRvxejB8NL3+93E3DQCw54DXpIEOmePXpC19J33qq+fQMcNedzb98ON09tqbKJ4pa3/Mxvlv/eFFdPrab6m/4pVn0llvfwuddOTBtHSJhvSzvTY9cgf94P/+EX36O3Wf6PVGuvjGC+mE5V5th6mO2co30rnnv4Ve+aKjadXyYRoe8vgIz2XjHfTTb99En7v6W60/X+zXL6Eb1p5I+Wvw1133Gnr3Z9hZejy9be35dMYr19BSGXt8C91+5an0gRl9rtx0XpPWnGMu+BJ96s0He8158mZae8aFdKtXm7H0uLfQuW97Kx131MF6vBI7ttDG9XfSj795LV311dvS9dKSpWvolLe/h0551dF05MoVNBzXgcDHf2TrY3Tf3bfRd665lG6svmiu1TFvwdLVp9Lb3sXX3YsPL81/ZPNjtP72m+iqz1xNt8q3aLznCvr2GUdbo9L89Y7nXvF9OuNIrwj5NbfyRDrjrHfSab9q11cwsmk93fmDq+lPLp3i2qrSV9crAL0L7qSBPuJYOveydzYINHlR+UczgdYdVtBpH/0SXfPx8+iUl2QCTRiSz/U6nk678IY5+CaDY+mMi79EX7/uQjrjVcfS6hXZgicM21xOPvtC+vKNV9B7T8qFaZusfAtdfPVldNarfMEThpbR0n3d303c9bmbaZ37iZVH00mtnvJc+lp67+duohsuPZ9OecWaskATliyjVS86kU77g8voy9dcMsWn/y+jk/7gCrrhxj+n9595Ih2zuiLQBD7+wyvW0DGvegv9m1/zWEfYdfflqz/E57ssmITh5QfTUfyfjYu/+CVa+6YZnOsaVpx2EV3zxUvo3Dcd27g93rfjTuNrq+1vSthzr1cAZgOINNAnLKNTLv4YnXFkZdHddAt9+n3dftffMG/rSnrv6w5mrzUrXnEerb3gWK91GRYc7+fF6NxXTT0PZfnRvMD/OX1kWos3C98/eQ+d0IsfRrb1JrrvYfcT+9OaZp8Ee8yZ9KdXX0Snvai9/R8+7EQ695NX0Lm14kOuNz6Wbz26EAKzzrF01uV/3tZ1R8MH08nvu5TO3dvrM2TRmy6hz53/Wlo11QZXHk/nrv1Q6/+Q7OnXKwCzAEQa6AuOec+l9N5XVf4yb7qNPv/hD9I3unsLjWj1O3mh8W2Nb6GND95L6+6+lzZsqr5Iylj16+fRWaXP8Xqa1nO+9KnvN0KbfMzCfkHPeKshdw0vpFNWV5a78U204Yc30Y1fvZ7tW3T7hi3e4AytoJPO5X7tfq7YEefQKVXh2zOsp7seqewfL/9L961Z1JeeShd/7Dw6rrp4b32M7vqOHCu2r99C656snIslLBQ+cH6D+Fj6zo83Xm/M1o330q1f9/HYvvHDO2jDxuocZ8Yxf/AhOuOYesEiTzvqdfLgY7R13IPDR9MZb8qf6pwua+ht552YPix460bfxoZNNBLbyDnsjfSus5sJKlyvAMwGEGmg51nK/9v/6BlHl/93PnIvXffh99F1s/DBWUsPO1hfB7PpJ1fQB047ld5+1jn07nedQ2e/9Q30O5fe0vg6muFj6YTfzxcvFo8fsj5i19y9y+PBLrrvL4t2tQ9dTrd7q3DMBRc23DUcue96ns/pdPbaj9OnP3Up20X0gXee2jin5SfS297V3t29NS891l7zs+MxuvXKC+nsN7+G3vC602ntlbfQQ89qym5l49ZGBb5iVfXNA8vojIvOa7i7sunHl9LvvPl36Q8ukmPFdskH6d1nvIU+8NV7WSYXDB/xBjrrjPz8LaO3vebYyt2gLXTX1efR6WeeQ2sv8fHYPrn2PDr7zFPpDW9+H/3vv/fUmXDEefTeN69puAM1svFm+jSf4ze99R12nZz1u3T660+ni2+8t/On95cfTKvk5D95G111/qm8b76Nd55Obzrz0pp32A7TMa96R+k1YgGuVwBmB4g00Nsccx796fuK/+0bm+jWy86nz8/iJ5tu/fHH6ewLrqbbKyvhphs/SB/9m8av+lnz4re41w3eQme9rvKCeX1a99KG+Qgypy/+pHyHYtUrf5dOcL8Vw8O8sG6+jYXA79Laq2+mDTo+H9+rP0gX98CLsG/f1MZdKrm7clz5Do++TvFD1zcKahZbt7NY+MYGryrL6MW/9ruZ+DiR1lS/N3TznfSNK+/wSg1bb6PbO7geT/j9X6ejKgpt5MHr6YIzL6Qbq3efeK++eymLxevKYnNGbL6FPnnW++iLt1e28eT1tPbDN1HDt6utPpZOc7cA1ysAswVEGuhd9CmsMyuL1witu+7DtPbrbSzeM2XkDrrxouZvRLjrK7c1LF7D+xxMq93vmHe+kV5cul0xQnf9DQuLZhNibvzuneX5TvUC+wSLlmtYCMg7BfuU495+YuXYb6IfX9nqdYrr6aqfrHffGD7iWDrFfXm6eusOd4PlL6aTuvRC/UaOpze8qPrUKu/Dn13a8rWWd32mKjanC19XN7a4ru66lm6vviZweH9aVb2ucL0CMGtApIEepclTWD+8lD7wmRZ3NLrBA3fQVS0WGHrwNtqw2f1g2f6Uf7pBJ5xxXOWpXfoF3XnlFKL067+g8v09Xkxf4W4rnryNrrtuFgVvh5x8aOUODbN1073uCWvo5BdW7+L8nL77Q/ebsPXux8oiYQmL7CQSbqM7H64ek2V0wvuvpc9+8Ew6oXqXrVOWvpaOXOV+8PCP6Kop9kHE5o3/3HhXt32muq7WN76GjJbS/qXPVsH1CsBsApEGepKl77mUzqo+hXX3bHzURiNbNzV88MMcsoxW7Vt53ouOpjO+9336dkurfC4ZL5tLD3S3BVsfuGXKzxzbnRy87yL3ghHa9ER+F+xY2r96g2vFa+kjtccos8rnb1XFx42fuanxw3SHltFRbzqPLr7u+3TDtZfT+8+oPg0/Q151cMM4Wx+5g9q5SbZhRweCZfOmxo84mTa4XgGYTSDSQA9yNJ1SfaPAxm/Rf3nXnvAF2yfSwV1Z+dtj0yPfd68XeSO9+NCqAHia1v/AXWUN7TedDw1ulwcvpw9cdBOLIK9XWLrqWDrlPZfQl7/xJfrTd72xM7F21IqKYGQx8uQs3y3uGrheAZhNINJAD7KFNlVf8b3qtfQf3zNLn0e2B7NrvIefOjrtVDqmKsA23kHffdD9WWbrDz5OZ5/xPrrqe+uLj72osuRgOu7MC+maa6bxMRJtsGVH+TVzwOjp6xWAWQAiDfQgj9F3Gr67cZiOOuNjdPGsvXi7V6h50frW2+iqC95HH5im/Y8ve/++ZA2d+xv+cQsZG++8qfRRJXxwaLT6tOSGb9HamuPR2j5En6t7DRgf+y9+9B10+mnvoE9e+S26q8lnog0f9kZ67yfO69qbR/bn/5S0w9Kh6tPBcw2uVwBmE4g00JvcdTl94LLqZ5KtoBPeP91PKO83bqOnq5/3tHR/WnH3bXT7T6Zn6/r4HXDHvOdCOq36oaUjd9A3Lr3NK8F6err6IsXly2j/muPR2u7wj3Nowtb19I2rL6I/kM9EO+ODdNUPH6OqNhx+0an0rl/3ynRYt6nhdZZL91/jXmtOOaLxjRVzC65XAGYTiDTQs2z9+gfpo9XPgpJPKJevw2nrewT7k2/cV33H3ho67j+0t2jPB44587LGDy/mq2DD31xOX2wQUjfTXesrcmn5i+nkxg/z6h5P3kJfXPu7dMFX11eEmnwv6Az+A8GCr/rs/vCRJ1a+xaKGpWfSCdUPV9sN7OnXKwCzCUQa6Gnu+sz5dFX1gzbl63A+dklXXwM05yzwsoYN37uj4XPYVp9y4bwWpsrS4+ltF3+JPvGu4xteiD9y31fpE5+qfzH9dbdXP9R1GR33+51cH2vomCZfz5Rz1182fl7e0pXHuzcNtn6V7mz4PLJj6bSLzmx4urdgGZ2y9kw6rgf+Deyx1ysAcwBEGuhxttB1F17e+BU1K06k9152XusvfO4RntlRvf2zjF7+1hZz/8nV9IP7KneHRJhecgW99/Ut3kq3dA2d8q5L6MqrLqKTPdTzrDyajnvzO2ntJ/6cbrjxMjqr7su5n7y59ZfoX309/bT6uXVyfVxxCb2t8jEuJVaeSGd88HL68qXneSA4mt7+sevpmovf2eIz0VgInlX9EN0R2rjuZvenw3q67keN3x6w9Ljz6MpL39koxETM8vF6f813i+4W9qTrFYA5ZmDZfgdNug/ADDiPPlv9zKPNt9DFp32QvuvVqTj54pto7avyxfReuu5159DnvaYcw9u5jLdTWcE33X45ffT8axsW8LbGVBrnv/WHF9Hpa7/ltTreSBffeCGdkL/zsNU+n3EZff09xzeKj62P0YaHt9AuWkT77/sL+tyZFxb9m+yvov0eo/vuWs8SdpgOPuooWrXyYLZlNDzE7c3m8uuX0A2Vzwdbd91r6N2f8UrXqLkmZsjIgzfRn7z34/SDVq8XY+T7Xa/8YP3nlsmXk69/hI/XOnkd2VJafcwa2v/Aw2n1Cj+4911LbzjncvOV8vndtOEOuu+OdfTYTqvT8jV03EuPpdUrKydn6230+TPfR9flc237mJ9Ia6+9hE6ufqitMD5CW598jB57lq+UfbPzzHuz7r6n6agj89elbaFbLz6V1n7TqxnnXvF9OiP/xOU2/p02/jtqMn5fX68A9C64kwb6g9o3EhCtOO48+igvGj3wrE9zrruZ7qwTGUsPptUvOpqOetEaWrGk8i69JvuraL/j6eS3voVOe+updMJLjqbVq2LhnieMb6F1N15Ebz9raoEm1L5+0RlesYaOesmJdIoerzfScXzMk0BrgxWrj6UT3iR93V5/fKNA4zN16+UXlgXatGCh8kfVdzQ7Q8O0dBXvg8w7O88jd3+VPl19KcDuYk+/XgGYJSDSQN/QbCFe8arz6U97+jPUrqf/dvnNtKnZZ201Qfb37Auvp3XVp/KmYNMDd9B97vcd45tow/euoLVnnkrvvvRb9Yt+E+76zDl0weduoY1NPoC2FhaDGx7o8HP3N99LN174js6/T1aEzoeuprvaON+bfnI5XdBjH+68R16vAMwyEGmgr5A3Enz6h9Wlu/c/Q23r1y+k3znzIrrxJ+tpU0VEjOxgYfLP9QvV1h9cSu8+7XRa+5nr6Vb5vskdFYk6PsL9t9DGB2+j7157Oa094zX0O+df3dZXCvUCI7w/Wzeup7t+eD19noXO6a8/nc7+6NV06ww/juGuaz9Ibz/DPtPs9g2beHxvCPR48fH++S30jSs/TmefdiqdfXH1qe1v0dpzPkifv/EWukvHqDvmPMZPvkVXXSKfoXYOffoH3bmjtfX2K+gP+HxffO0ttG7jFhrJhb2c57tvpqs+dDr9zgX2FP9xK3rrmp/v1ysAcw1ekwYAAH3KGZd+m849Ln/qdT3d+OZ30Kdn/LQrAKCXwJ00AADoS95Ixz2/8tq4zY/RfRBoAMwbINIAAKAPWfrOt9DLK99tOvLIHfQN9wEA/Q9EGgAA9BvHnEd/+vZjKx/rMkL3/eR69wEA8wGINAAA6AHOvfwGuvLi8+mMk9Y0/0gZ+QDY86+gGz5d85lkG2+ma67skY/kAAB0BbxxAAAAeoDSh83KuyA3P0brn9jlAaJF+QfwNrCJfnDx6fTfaj7EFgDQv0CkAQBAD9DwjQDtMr6Jbv3U2bT2xul8qhwAoB/A050AANALjHk5DbZuuIWuuuAdEGgAzFNwJw0AAHqCZbT6TW+hM159Ir34+Wto1fJFNLyk8vSmfPjv5sdo3Z3fou/+3+vpGxvwGjQA5jMQaQAAAAAAPQie7gQAAAAA6EEg0gAAAAAAehCINAAAAACAHgQiDQAAAACgB4FIAwAAAADoQSDSAAAAAAB6EIg0AAAAAIAeBCINAAAAAKAHgUgDAAAAAOhBINIAAAAAAHoQiDQAAAAAgB4EIg0AAAAAoAcZOOLol+AL1gEAAAAAeoyBZfsdBJEGAAAAANBj4OlOAAAAAIAeBCINAAAAAKAHgUgDAAAAAOhBINIAAAAAAHoQiDQAAAAAgB4EIg0AAAAAoAeBSAMAAAAA6EEg0gAAAAAAehCINAAAAACAnoPo/wcCD3rRCWXB3gAAAABJRU5ErkJggg==;" vertex="1" parent="1">
                    <mxGeometry x="620" y="257.05" width="197" height="115.9" as="geometry"/>
                </mxCell>
                <mxCell id="14" value="" style="shape=cross;whiteSpace=wrap;html=1;fontSize=16;fillColor=#1abcfe;" vertex="1" parent="1">
                    <mxGeometry x="570" y="280" width="40" height="40" as="geometry"/>
                </mxCell>
                <mxCell id="15" value="" style="shape=cross;whiteSpace=wrap;html=1;fontSize=16;fillColor=#1abcfe;" vertex="1" parent="1">
                    <mxGeometry x="830" y="280" width="40" height="40" as="geometry"/>
                </mxCell>
                <mxCell id="19" value="python tkinter" style="rounded=1;whiteSpace=wrap;html=1;fontSize=16;fillColor=#ff7262;" vertex="1" parent="1">
                    <mxGeometry x="880" y="270" width="120" height="60" as="geometry"/>
                </mxCell>
                <mxCell id="22" style="edgeStyle=none;html=1;exitX=1;exitY=0.5;exitDx=0;exitDy=0;entryX=0;entryY=0.5;entryDx=0;entryDy=0;fontSize=16;" edge="1" parent="1" source="20" target="21">
                    <mxGeometry relative="1" as="geometry"/>
                </mxCell>
                <mxCell id="20" value="人脸取件" style="rounded=1;whiteSpace=wrap;html=1;fontSize=16;fillColor=#a259ff;" vertex="1" parent="1">
                    <mxGeometry x="240" y="470" width="120" height="60" as="geometry"/>
                </mxCell>
                <mxCell id="25" style="edgeStyle=none;html=1;exitX=1;exitY=0.5;exitDx=0;exitDy=0;entryX=0;entryY=0.5;entryDx=0;entryDy=0;fontSize=16;" edge="1" parent="1" source="21" target="24">
                    <mxGeometry relative="1" as="geometry"/>
                </mxCell>
                <mxCell id="21" value="" style="shape=image;verticalLabelPosition=bottom;labelBackgroundColor=#ffffff;verticalAlign=top;aspect=fixed;imageAspect=0;image=data:image/png,iVBORw0KGgoAAAANSUhEUgAAAZQAAABMCAYAAABK30FWAAAAAXNSR0IArs4c6QAAAARnQU1BAACxjwv8YQUAAAAJcEhZcwAAEnQAABJ0Ad5mH3gAADEuSURBVHhe7Z33c5zJmd+fAQY5EBmMIJhzXOZd7kpa7Sqt4t1ZqnOVXed0Vf4Hrso/+XfX6YJ/cdlnuyy56q58SXcnaeWTtZJOy2VY5gRmECCRiUCAwCDNjPvzzPTwxYt3gMFgwAXJ/g6bL+ad9+3ut9+nn9RPd4f6Rwbi4uDg4ODgsEjkJY8ODg4ODg6LghMoDg4ODg45gRMoDg4ODg45gRMoDg4ODg45QVaD8h/98hfS1t4mw4PDEo1Gk2dNZqGQ5IXzpaSkWBoaG+S9L74vZaVlyV8dHBwcHF5lZCVQfvC//5ecGTojreOtMhYfM7kkzueZT0FegTTmNcrJqrflm1/9ptTW1Eo4HE5c4ODg4ODwyiIrl9fI8Ih0TnbKw/hDaQu1iffTGmuV9li79ES6ZWBgQCYnJ5N3OTg4ODi8yshKoERjUZkyn1goJnkhY5ckEy4vzkVCEemOdktXX5dMjI8n73JwcHBweJWRlUCJR+MSD8UTYyZGkOSH8jXl5Zm/8/JlIj4hndFOedTdLhEnUBwcHBxeC2QlUGLTMYnH43q3tUxUsJgPx2heVPrj/dLT1yPjTqA4ODg4vBbISqAIw/ihRFSXtU6wTNRCMX/z20TehIxPjsuTvifydOipxGKxxL0ZgrEXIshUcDk4ODg4LHvk/8F/+IP/mPw7Y5w5dVru592X4bxhCeWFUhaKHo1Q4UgqMp/4VEyG+59KX88TGRoeFImKFBQWBEZ+IUCePXsm9+7dk9stt6Svr0/zr6io0PwcHBwcHJYvshIop099Ig/DD1WgIEj8wkTPmb/HzGcgMiCPBh5JW99D6R7qlvExY7mMjavbLJyfb4RLoeY5+mxUenq65W7rXblw94KcazsnTwaeSCgWkvKSMikrL3dCxcHBwWEZIzsL5ZMz0hpulZH8kefCJHm0f+P2msyblMHQoHSFuqQr3iVPIk+kt69XOjo6ZGx4TMJ5xlLJD8tYZEwetj+UC9cvyOlbp6VlokVuhW9JZDoiUyNTEo/EpaGuQQoKClRQOTg4ODgsP2Q1sfGP/tP35ZdFv5RH+Y+M3EhYDXrUf8+tCP62VkVK0BiUx8qlOdYsW0JbpKqgSn8bmBqQB/EH0prfKuN5iYF8zq+LrpPdod2yc+VO+dznPi+VlZX6m4ODg4PD8kLW6j7MXkOFjZBIhQzb73mJQXodqDff+Y2jChjzQWC0FrTK6fzT8sn0J5rO5Z/Tc1g1Nn8+vfm9ci10TVp6WuQ3n/yTdHd1uYF6BwcHh2WIrAWKEREp4WEFRup78m89nxQ0VuiQKHUiNCGDeYPSld8lXXld6hqbDBlhws+e/KbzpmUwf1BumM+1x9fk6q2r0tXdlayFg4ODg8NyQXYCJTST6c8QGL5zej55zp63R/KZzJ+UifyJhCDx35fMbyo0JX3hPuma6pL27nYZ6O9PVsTBwcHBYbkga4GiYyJWgHA0ySssCvMKpTZWKzWxGqmIV2gIsfd3e4/3/lnf+ZvrcZ+Ze5idX1xSLEUmLQfgenud3W+EeS90fpGDg8Ori6wECmMbVjBYZp8SFuZ7OBSWiliFHBk9IicmT8jO6Z1SH6uXwlChhPPCM+9N3u/Pz/u9wHzKYmWyemq17N20T9avW5+sSQIwNZjbQtJigBCZnp6WqakpnYDJ30GChXNBZZNeNkFkn4VnnZ6a1uceGx2TyNiYTExM6Dn9zaSX8fk+a6SjYc4vdVtShn2n0HQ6eraYq785vN7IKsrrj//wj+RM2RnpCneppQISQ+iJv/Pj+VIVq5Lj8eNycNtBXdur9XGrdD7tlAeFD2QwPChTeVPP79F/iXvt397vFdEK2TaxTY5vOiEH9hyQhoaGVLlTk1PScrNFert79Pt8CBnLp7qmWg4eOpg8szDQ8QYHB+X8ufPS8eixTJnO19BQL4eOHpZVq1dJYXJeDZ0rMhaRG9eu6+rMXlSuqJTmjRt0z5iXBf39/dL+sE0etT3S50eYwHwAk1SLi4uN9VgiJSbVNdTJunVrZd36JsnPz9drHNIDRt76oFVpeGJ8Ink2gVVrVsuatWukqroqeSb3uHblmty9c1f6entVkWtqbpIDbxyUekPXtp9ZIGz6evvkxtXryTMJ5Jn3XFZWKvsO7ldacHg9kbVAOVd+TrrD3crwQUoImH/heFgFyon4CXn/5Jekrq5OBocGpKu7W87ePStdE53SU9AjgwWDiZsNrABJCajksTBaKPXRetlvPl/+wpdl1arVUlRUpL+BSCQiH/3jL+Tu7bvJM3MjLz9P1jatk+/8zneSZzIHmtngwKD86he/VMY6PDKsy9AUmQ7UuLJR3vvye9LY2CjhgrB2vKHBIfnZTz6UJ71PkjkkQEc9euKYbN66OXlmecIKz5YbN6Wrs0uffWRkRJme1WLte8oPG8s0P6zPzvupXLFCn7N5Q7OsNcKlvKLcCZc0YHWIT8+cUxpGUHuxY/cO2btvrwqWXIP3iyA7Z8p+bJQjVgbnffKu9u7fJ7v27JKVq1Ymr04ABe7+vXvysx//LHkmAd5/TU2NfPO3vqX3O7yeyG4MxQDCY5xD3VLJZL+j5ZBAcVGxCpQN6zfKnp275d29X5CDDQdlY/5GqY3Wplxbesx77uqyx8p4pazPXy/bmrdJfX3DDGECQ4PJ0yFhfJkk1hV7ZphiNkAjf/Lkidy5dUeePn0q0emEmT82OiptrQ/VYhkbSzIEI2i4fvjp8Kw6wJQnJ2dqossNPEebsUjOnj4rly9elju376hQeTbyTJ/LukQ4kmBOLATK7/1P+rU9rhvN99Ozn6o119nRqdc7BMA05ZixZqEpP62MjUZkeolcSVPTU2qZEIoPDUPLVhG6a953T5dRGH0wb1smJiZn1XNoaEhGTD+kPzq8vshaoHgZf9AgOseU28oAzbXaaDAHDh6Ug9vfkF1Vu2V9dL1Uxip1XGWGMPHkVRwvlqpwtaxcuUpnyn+WmDQdCQEB4/R3HL739w88FygvMXi+R+2PjCC5JBfPX1ABgcBYCGgP2qL1/gN1+3UHMCeHzxYoRLi5/G42MGBoGQHh4LAQLEqgqEXiG0RXYWA+1hXiB+d37Ngh+7fvl60VW6V5vFlK46XPhQp5mnxsXpPhSemL9kpb+0Nl6F7YMjimS7mE1caplx+UhcB7Fdw6XcaauHT+kvrWYTpB0PfMuzLPyxgKR39723eAOxB3SCZQa8doyQz0exOuFn7LJciP8Qt/WZT/OmjavC77jvwoLCqUArd1t8MCsTiBwidpSVihoglmY47pAAFv3LhR3jz8lmws2ShNkSYpi5bNyI9kxIpECiLSG+qV9rZ2HbPwa8qUxUB4aWnprJTrvezLystkzZo1UlVVNSNv6oArbl3TWh1wf1kBg4VxI0gYgE/HwHn2mtoaDUJgPIpBXAaOaXPawo+m9etVqGSC0dFRY9W0yv/72c9npDOnz2hwQ64iiXg2hMfpjz+ZUc7PTbp3954GVLzqCBsFaPuO7YFjHuvMe2UMzMFhIchucUjTuXtLemU8nBjEg/mrppOXDCc2n6J4kayOrpZtG7cFRqjAeIgIqq2qkZHeEZmcmtQJjNH86Iy8rPaUFzNMO1YsVSuqpKy0TM8B8oG5bd66RXbu3plK23ZsU60Zv78XXE999h3YnzyTObiXpfcpDy2W76VlpbJ6zWo5dOSQbNi0UZ+JOluXz62bLbqSshcsx79+w3rTYZdXlBdjIy3Xb8rNGy3ydGholkCpqKyQzVs2y4mTJ3SgeOv2bRpYsGnTJtm4ZZNs3WYszo3N2r7xuHn+0TFlSrv37paGlQ3aXvMBgfLIKA8Xz1/UvXRsipr2JjKOeUiZ5DMfeD9YvJ8YgdLe1pYqB/ceUYA1tdVSYgTkiwBWEuNVRE/xtxcrV62S1WtXy4oVK5JncgfasaKy0vSTsPY3Xne5UZq2bNui/WO1URL8bmYEOu3UYmjEC4JdysrKZM++PVJU/Hyc0+H1QvYWiteaMIRJmuH6ssJgtjWt4DfCC5ua1suhXYdlg7FUVkyvSLm6ONp8ouGo9Bf3y4P2+zpw6XVHIDSIRNlkGJo3bdy8UWrr6pJX5Q5YIgivw0ePyJsn35Q3335Tjhw7aoTYLrVgsmV2dFTSZ+VqUY19fCIhTAaHZtUDy2ubESCHjhyW7Tt3KHNvWt+kEVxr1q1RjRbhsmPXDjnwxgE5dvyYHD1xVPYe2Cd19bX6njJB3JSL5YA14k2jRjjlum3Ib/TZs1ll0Q7R6Kvv8oJWV1StMO9su0YdnvzcSXnrnbfk4OE3ZN36dWpxLga0L4rXi6JryoB2UORy5SKl7owpQicI+6V+DupN5CrP8SLaLNfI2kLpK+1TC8UKDpIKFwRK0kJZGVspW7FQqoJj6PUeQ9RohEPdg/Jk+ImMFRjGkRdL5cU1iD22FS4ZKpG19Wuluqp63gF6XkbHow65f+9+8kwClDefhQJTQVMdGBjQqDBvYlCeSCY0spLSEtVicQFBBAgUyzgpf24LpVk7MxFfvT290tXRpRpq/xOjJfcP6KAo0WsQdEF46cdmcCUy14TN0/yhqwAhTZshqGl7fS8B4Deer66+TlavXq3H8vKKjOtPO9IehLN6gSa9fef2tG61hQJmQ+e9evmKWkUWPFdT83pVUtC4XwSW0kKBoUOv3d3ds2jZJsqEhrG2oedEvzTJvDO/2xh6nM9CIRKMfJlX0/G4Q69nuaRBo6gQQQZdUwahxnO9S94RzJy+CG1660z/gqa4hj7JZnwEfnSbfpQIcR/Q6DP68rihKTAX3QLogb5KxBoh8oT7kyf5keAH1J/yE3mGtH3megbaX5/fcy/1pd8zTkV9oPl+cw3vn/aiLO7hehJ8hHa3+VEnm5c3EbY/X5ta0K7kQbt586BuCE/6WzbIeh5KS22LWg1GlOhHYQ78jXuKmfL7xvfJ1979QJqbmxO/z4FLFy/K2bvn5FakRQYrBhN5prI1xGc+q56ukuNNx+XAjoPqv58LNPzZT87KP374f5NnEoAAcDf9i3/1L5NnZuPm9Ztyq+WWvuSFgBh8O1kRBs3L+tu//Bvp8U265Jojx4/qkfBa5h9wDVqJ7WgIkZq6Gtmydatq/riOlnLCGITEfJOPfv6REpsX1Odr3/hArY/Faq3zAcbDGA718AL3y7dM+9bW1c5ictmADgrz+OH//IEKMAva/613Thrhue+FjSHA8H/9y18buruhf3ux/+ABOXT0kFqA2QDmAH0Rvr0QbDfvGovUP/kW4YMw+Zv/89fJMwkQxVlbWyvf/M63EuNgDx6Y9FBDjy3zh6FDw1i7uEGxclEm7WRgP7iP+TGXL1ya1Ye2bt9qlJzNei8h7ffu3DPvsUfHvrgPUKcKo8ysWrPKKEKbZIMpD8GM29pCFYupKSNMJg3TH9TQ/65Ow7CNUMFSH3k2MmPcFmbNmNMqoyypu9fkS56UFQTe56nffKxCwAYVQWO4Bd/5wufUjdz5uFOuX72mSiXjxATCcA2J9mpY2Wjq3iyr16zRdiS/oMi8EyfflA2bNmTUR4nixL2NIuMFQg5hks08PZC1hdJf1i8T4YmZFor5cMRVVRQrksbpRmOhbE1roXhRWFAoEyMTRhN5Ik9LnybyNR9rqajUNUK6aLJY6sprpaFh7kFeiCpbCwXtmPsgAggi07T/4P6UZKf8dBYKv3UaTeSGYSD3795XZg5RW/A7DI88Hz16JJ2G0Azly0ojRDPRPrIBGiBE3dvbm+qQAOa9cuVK2bt/r84n4v0uJZyFklsLZTwybmjosVy7fHUWvc6Vqk0fQZj4g0zSWSgAxst7g454nmfGOrC0RHtzL8+Hdv7QCBsUrsLCIhXcQXTFvX09faYP3dJ5TN76URZa/+2W2ypw0LbJm3IsuB8lDWuDQA/qjDKJJQYN8Tv9DmHEpoEooJTFzrEIExSrmM/1aQUQFhB5IngqjIDB2xD0DNDz1cvXVGhQR+rO8/M3QoX6M16IVcK1tr3Ii7JQjIefPlUB0G2uwTJKWHwDyje8bVJs8kNAZ7JnFErGJdNu5OXNg3LXrl2rAjgbZN0zLZO3DN8b8mvPLQR0mNrqGqkIV0jpZKmuB2bnpmhe5l1NlhgtYqQ/5R7ixXoJKGcwecYM8dMBFpIyrYqOERii4gXyDNzrB88FcamlYxgsL//CufNqwi8F0Owetz+e1YHQiJjtzmBtUIdxWN6Ajkh+Wp0v2fsyBbQKQ0cxQYGCbi1ztLA0Tf5cC71dunBRrl66MmdZQfXHYrl3564GcNg+FJQH52DKHGH6aPzQtLqODIP+q7/4S/n1R79SxY7xWc3LWAjUM12dvM+AYGTcEZ4UBPJgXNDe403Xr17XcunTto4W9m+O3Et7otytWbdW3c8II39+WHO4B+cD7wfXuk7O9uWBErV525bklQvH4gQKCaGSFCzeAXUVAgsAJmNdbZ00NzZL7XitLgjpzz8ejstI4YjcH7wvZy6dkVMffyxnz5wxmv511eSR2OmIYDnBEhfHTACRM0P/ohEqnZ2dqsnkEtQFbQzz3l8nOl+j0daX0t3m8GpA6dow40z7IIoVmvvtW7dVU4apZgruhTFm2hcY74RRlpQUq2IET4ma+iKYKBsrlX6wUOCFeGisMqY1ZNqfLXS8IsNy4Y94VlDuiKYsDbCescSwnKjTXOjp7jYCZUCFlBf08eraGrXOs0VWAkVdUeaD4LApxfw5JhPXLQQ1NbXSvHqDVIxV6AKTXuHEkdDGSFlE2s3nUu9FOfXglJy6c0rO3Dkjl1suyb17d/UlZUMYXhCfz0KHuFf8yTLWXGnrMGy0Asx+1mtiEJvQYz94+WhUd2/dkUFj7uYSaFp0zKBJjLQ5YdK4JnIBmM3c6bl25of+HvNfPzulrp0rmXxgAPwdhFnXB6SXAfQhJigG0TJpvoHqbKHjF5UVypyYo1RTWztj2SQLmB9jFvfv3luQQAkCz0G5jKugzdvnoo8RKLJl6xZTh0T/pV1KjZDRtfc8Y3Kah/lO3W2fJOH+I+gmaKwEq6zj8WN1Q2ULyiUxXqn1N+XYcwA3FuPGOv/L1KcmYOwJIYuFgmCZCx0dnSp4/EBgrVqk8pjVGMrZ02dkqHxIJgsnE4LDPLQ9aqMko7zqJutky8YtGY2hAAbLpo02fvvmbRmuNNZGfmLxQc0/KaxiYWNaFxkGWBqR0fJRGS0YladTTw2THZTIYERqKmvU78v12Y6hEOWEywtfKy/QmziH/zOIobxx+FDK5wyzSjeGAngmOhg+TwZcmdOxcdMGqamrNb/laR0QjP5y0GjQIpgoyLPkApRFdMmDew+SZxKgjmh2x04c0+fm+2KA4EIbxMT3+m29aWhwUHq6EtFBXkDkjStXynR0Wtsz6F47IMvAIooFJv3w8Ew/szcR1XKn5fYMLZdnZOAfTRYGF3QfiTajTkQ3LRa0y1KNoUBDMBqexU/L1u/PYLFfCWNuFQzMXy7X8Q6DxlAsVEGqTywMunXHNj3CEKFl3pFfcHCe51ZXjukTls44D3Nkki3vMh3oB0SnMe5DYADBLLwbop74DcFJeDtzxbzvC1cUz9PR0aF1ouzy8nJtGwbwm01/ZDCc/tloBEqBYeAsoEldvf0S5YRyGMOg3bz9BMuf8Qrqn05gci/CgQVV6wztUf9yIwA5n2/qS37Uh0mo1A0lgOAV+JDfGkEglZlnQIj7QZ1RTC98ykrpHTPeOWXwnnbs3ql0kS2yivL6kz/8Y3m48qEMlw4nz5iMsEb0n2H+cfMSp0pl68hW+cq7X80oysuCl/t3P/mRtNW0yXjRuMTzjFAh4yR48NR3W55hwCVjJdIUa5I3t7+lhIlWkm2UFw1vkx/dRpv67//1z3Sswf/7v/v3v69zMgAvLl2UF0ADIYLr7c+d1CgOiIdngyHCBH/9i19p9EqQMGLOwLETRw1x1SbPLA7Uj3W7PvnNJ8kzCVAnhO+//v1/k5MVZB8Y4f7nP/zzjC0DL/S9J1M6wLS27dwu73/lffmHv/17VSaC2s8LPyMF85ZlTjO+93v/9vc0+myxQEAtVZQXSNfeCJoLn16Qi59eVAblxRuH35ADhw7OKhdmGhTlZUG/O/HWCdlDEIextqEhQPkIBhYKJYrPDwTAP/vd7+r8F6t5824YY/jNr/5JXUpBoDzGE44cOyK79uxWhgt4ZiK2HtxvNYx8ygiUdbp6shcweBj9XxiapC0I5YdpE71lLRxLA9SfZ6eP0FdQRrxAaBFS/1vf/e3UMwOY/k///ida/3TuOSwfmDlRWrQZAgM3N/eyFt7D1jaNaiMyzlp59KUzp86ou9ALfue6r3/7G7Pol+elr3/4Dz/VQX4vEERvvX1STr5zckYU3EKRtXoFE7dJ3V6eNb1sygZIZPyDBfECXQY/5fIif88gvS1PXWG8eD7m6H2Z2cLmA7H6Ey6gxQJihfgRCg1Jk5vyKJcyysvK5ejxo2kjR4aM1vYkg8G3TBHEwC3QvnIJOjqEDbMISumYH+f4LeieVIo9v58sAq/xpSDMVxbKBL+/LEhHy6Qg+soG5AMze/Ptt2T3vj1qKdj8SdSBsTgsca7z9lN+x/K8d9do8j5GPRe4DwHypa98SfdhYb04+hIJpoywP3z0sOlnx5XZ+0H9sMDeN/cjCD7/xc+rMopA4zfbJ239qTeRhoxh+AFN+y2XTIBHY9fuXfKF995Vt5otmyNtuGffXlO/93TlDytoARGfWDJ+Fxx1QEgiOPw0Sh0fGAH1LEDJIpITYRbk0lsIsua+2shJxk5jW0Zv/+Z3NLmFAsEQ9gonk19KkNi/bXkc7d/J9DIAjWqNMY0hiqAXyDmWZWHdsCDLAAsml+MoEDDLb/iRYMy5FSgOry7QbNGkYYRBdI0VAtPCQwDNWSidGcWFPYaYN5MpYMCEs7Nyha6v5ykT/oMAgGGjmAWNS3INwseuRYdAoo7KuwLAedyhQZ4BmHfQ3JC5QFmM62DNkS8CA34GONKe9H9W/MAV561Xoi3rta29oC1x9+JC9Y+J4tokgIBdVv0geqzevJt0z54pFi1QSDOYv/3bpGwqZ0hLoy+4167nZcuweQcdETTmVsViG2WpwZwbfL4QRRCoP50Dv2/Q+BN+0xGfa2QxwNwtKpo9uQzijMVfHk3c4bOD0qxRSnA7pnOZcA2MkcmAjEd4AUNmXgmup0zAOA1L/7DkEUzXMuJsgOBBsHgB7TP+AXNmoJs5aYTlMn9sePjprPKwXCenphZk0a9tWiuMMTFWtVCeRfkEDaCU+oGbF/ciVp8Fc66YM8McL6wYC8pFkK1avVJWVGc21j0Xsn4LyujNQ6WOJvkZPdbGQhEzL4RZq9Qslb+nLJu3/ztl6WeBL+azANsQZwIG6Blg8wNNI9OOlwmYlR82KQiqPZqUCxA9xwRFNMZ0CeZAB/cDjRZfc9A9NhHJYzXMktLiOctCcyWSBzryg/KpR9B9NpE3S5M4JECb05bz9T8W91TL3CgxXlgGPjU19372FjA/XFpYPLkCTJeAEZguQSGM3zCudfXyVZ0Hxs6Wp0+d0eAV/3NSZxYwhYln6g7duGmTuppwz2UDJhqvNm2JQugFYzVMlGQ8DjcXIJiHeT9YUd760a9qTRti7TAOtFhkL1DMx1oGyuCTyeuSyga8GJWgSYFCfjPKsOds2cmySLxkUq4Y4FIBWpyv44GwedmsqeQH7ePVMhYLrCHccOmQq/ZEe2Xw9OjxY7r0TFDaf2C/Dsz6AYPHvYFPPOg+EoPIROXQtps2b5aD5nvQdTaxbzrRa34QlklZQfdoOkY6ogLMwQNDqvPRCkofCkwQ/eOimZqaDAxf9yNf+UDW7GsGqDOMl/Dfy5cuy9/99Y/kh//jBzrp8cMff6hbfrPG3ZWLl+V2yy0dn8AiCQLKXqb9pcD0O/hXtkDBQhCsWFE1Ix8EBiskEAjAEWC1MMDvtVoAAoUVxOlfuUDWT5Ni8MmUshw8n4UCDSESGUtIVSO0CfHTj78Mm5Kf8GRYwpGwhCbnZ9LLAZkIE4AlE9jxDDETXm21j8WCDp5OS6Jz0Mkz1brmAhbB/jf2a2JF4qCEC2PVqtlmPD7wbTu2a9RT0H0kolvYn4XOhZ+ehQqDrtNk8uF6v9uR9sb8px6B95EOHdBnQNt2eI5M6Jpr0KjTXQsPYGvijJBBeZkAbf6jn/9CfmQECYKDhTTxAGRD85m0QS5Bn9q0eeOs8HUUTiLBsEzgFyMjw+qy87vkcE9u3rJJXZG5QNYCRQnDx+D1u+nM9vxCMTo2KgNDgzJdPC2hfM+gvy3D5B2eDkvhaKGUDpRKeXe5lD8ql+qBalldsFrWr2aPkfpZ/tDlBtouE82Ea4II1N7vHdhcDOjg6bQlCHCgfzAnFhH1xazG/50u4aoK8sHjXuJe5sUE3UdC6NhIGI5zlaUrRZvrg54Z9x+CJug+EvmSctX+rwrS0esMmJ+13dIo8ShRQe/ED8pZrOWM0GCQGiFy89pNXR1Z3UQZut384B4Y+7xtkEMgUNiHifErLxAiWCi48JjLgxsPV5hXSELjBP+wNXu2bjc/Fs71k7AMHuFhE9/teRqVz0IwMjwsPf3dMl1uNG9TM5tfqgzzKRwulNpIrWwq3SR7G/fKkeYjcnTzUTmw9YBs3bwtrV98OSFTgqPjBT0LAoDfckW45GOXKvfnCWFCjNZ0dnAIhCGbTPod9MXUgHQoNIwtU0G9GPrHuofRMg/nzq07OmCdzo1Fv8C9RBSY3c46qI7aj5K870WB8T6i3Zgg7VXEEBwIE9bsetTerlaYX0gyPaPZWPJY2rmqc3acF+KxVkNSgGhKMn89GstiIeBhCYftGeiRqdIplfQ2L5t33nSelEXKpKmkSQ5sOyhHDh6VEyfelMNHjsiu3bt1/40gprjckGn90i0cSZRYYcDA9WKA2wut3V83yrcuAAeHxQKLd3JySqM5/YBJ55v++yI8DNAzS+vfvHFTgwEss7X0jwVKeDCrFLAk/I6dO3R+DS5XdiUN0ui5l5SxdZO8fjGgzRgHZIVsv/uWeuDmYjXl7q6Zk6vhqaySjHWTqQDPBFmr8oT02kHxlBDhmGT+ap/QYEifDMBAHBvvDI8Ni5QnHtgKJo7hvLAUjBVIdUW1+sfZdpZZ3AwoL/alvGjApDMhOtbbYadCP9BEvJOccgHakUletLsXaDq4AjCXM+4oDq8dEBREaM037sBW3yzd4leU6MOJ8N3MrZPF9Hu0dxQlv3uLPBEWMOijx4/IB9/4unz3d7+nM8/fff9d3f4aJuzvJxbpzgchV/0JBZPZ/bhj/WA+ii6zPzhzfS+ECNGKzL/JpQDPWqAYdp/4YDn4khUCC0Fb20PpHOgSqTAvlfET82JSFgrJfIoiRbKqZrWuSvwyg9nAYxmsMopWgRvQDwbQMHFzCYiRuP4ggcJKxwg3NDkHhyBAJ9AHk+bmChZhP4+HrQ+VkXsB3TH+WeTTspcK1IMVd/1A22eVCoQHUYONqxpV2bKgz+I5IPmBgOD3F63g4gJniRyiKP3WBoKTeWt+QU+4da6FCcheoCQFB0zfppQQSAqaTMBLIKStra1desa6JVodTeSBEEnmZ/MMjYaklsUfjWR9mUGHY6IUmn8Q+J3JVI8fPVKC8ANhwszaXIKORLiu32WoncRYjy03bumCcpkC5oK5ffaTM/osudLGHJYviDxkbxA2hAoCgR19xjphZeFZDNmQHPNTgrTspQBMNmjFXawkdpJEe09YTM/7AxFod27d1jGXIGUQGodxZ0rruRI88EnqSvut8E2ETlcf+Aez43ONrASKdWelrAd/Mg/I75k0GMzq7p070jncIZHCiIhRUMgjJVT4O54v4bGwVBZXSkVFpTbeywxeMBEYbLDDYJlXo4MAWMn28sXL6hrwR1fRtkRl+JdcWCxoUzREFqr0u9OoL8KNRf3wx1KnICLlHAvasboqW84SPXPJPAebIBG+6PBqAybLPA2UD1ZO9tI1tME5tl/AQvczZJRTNOaygHlBSwHcc0GLNbJOG8qQV6PnOeiLbAZ26fwl7Qt+jR/A74IWjX0RgC8w876mdn7PBWMtWCi5VkrBoiyUFOM3D0PyCgHSfEBL6XvSJ7fu3ZKh0JDEKxLLQKeSLWPaCJTBsDSvS+wJzW/ZQhn2mDG7H7TOTsYUz0V4bCaAQG9cv6kzcO/eNgL1cUdqhi4riLJla9BKuWggtbq8dW7ixi1oU5bM3rlrh84i97cxdWH147Onz+qe+0ySos5YWghFVi9lBvH1a9fl0zPnVJgggLo6OrVdiajJBAUFhSowWaTPm1iGhrGjXGl15IMrAzefv6y6+sS6SssBLPTX/rBdaSLThAaN7zzd6rZLBYQEk/6uXb2mkwChB2gaQYICxR7md+/cnS1MwvlKcwtxeWWqsKYD9O0PtQUM1iMUqTs0TWJnyCuXrug2waxg7V8R2gLewrMtRKDkip4B87cIJPC66ILAopK5mhnvR1bL1//p9/9EIlsiMr1iOmGtmI+FNpChl/B4WKp7quWL77wn65vXJ399DiyTJ0aYXLl2RR70PZCJ+gmJlcdSeemRfzFjCY3kScmjEvnKV74qDQ0N8zYYQKsIWr4ecH9F+cxZzsS/MxeDJbTnWs6Bva3/7L/8t0BNZCHL11vQXlgHLJ3Nhj9EurGLXRAzwD+qy4q/cSAny6b7QYdAO2N5a5hS0JgJ9SUCD8GOhsNcDjoRnWxwcDAxkco30xlGcfytE1rv+ZQB2pS2m5icGVWG6wEmvxhlwg+eFwbiZ3BFhUXK5HJZ1lyg7dItX58NoG9Wsf7gmx8E7othwbNjSV44dyFny9db0HbQCHTNQDtKBxtQ+ekaesK9tGfvHjl+8sQMlxfvJd3y9bil2N+EyavZgHxP/eZjPQZBF5U09QcIddb0mg/wje/+8+8lVj1O8qi5lq//4Ftf1+XymeqQK5wzCt/pj0/rumjpwGoPB01fZEWIXCPrHmNsB50XggWhTAZLImmh2GM6wDTYsvfTC59Ka2erTDZOSqjM5MHH3JdKfCJ5UjpeKk1NTTrolIkwmQ8wLIjEm4iC4OX7mctSg7agY7N0N9p9W2tbICOHoRLVtnP3TnVLLQVgAggIQiNhBEEMlfoiMBJ7NbRq2OUto9ExXsJ4j1+YABjJEyNcec75AC1hicBYvAmhm2sGT35BExgpP9dlvW5AWNOvrl+7psuZYMkG0jXCzyiJ7PHjD3udC9AJKVtU1yS2000HaBnlkRQ0jhkEaB/B41/e5EUC5Y1Q53RAKUXJYJO+pUD2AgWGbzodwiPQ7ZUmaxh2i2FCV25eke7xbpleY6ycEkMcNgzZ3Gvz0+8ThslNlcimTZvnXG9qoYDgvUkZZWxh5mquYJk0g35YVv460HEYND/25nFDMMZCy3FkhheUhZV18NAB2bFrR9pOS5tRV4Qzdee9pms73iX5sAtmpuB6f1oKvKhyXkcojRj6UBoJoA/amrljLIHDxMGFzIdYbD9lLBaliYmKQUqq9klT57no2g/4B+uB8byfFXBlYXkE0TFWNztKsofMUo1DL06g2OQVJMnvykSS7iuAqYw/9crly9LS2iI9Uz0yWTWpYcI6iTEpTFL3278L8iSaF1UTjpf7KoA4d9w3vOD5ALGzLzcuCDb2eRHrR6EprlvfJPuNWcxWyV4TfiHg+dCG2HGQxRpztS+9w/IDfRYagXYyEQzQBhMG2Qtkrnkd6bBYwY8ViosKy4gVfzMdM2PskmiqIHcRihWRY95ghLmwFAoMk5PZRhiXnT9v5qts3LxJXWy5Ltciyz3lzxrbyjSIsSws46eCqSOf6TwpGCmQxvpGFQSdnR3S9vih3G6/I08ZgK+KSajcNKixTOy9/mT3Q4lNx2S8L6J7ihcXZbaPN1pFb2+vmqzsMT5fQmKXFJfozm+4PdKBcEP2Iafz+PPgXrsCLfuIsFQ023eyBan3OjQE9kBgAI1nhxCpr9WE6FwQOC8ejWLHzp26cxu+5oVocYuBLb/W1JXOxwAmZfNOvHX1gmfBZaZ7Y5vOykD6jl2m7kYDRRPM1XpBrxpYDBGXkLpWTD/30ko2iT6Ce3SjYdRz+efplwSHsFkb1oQ3DxQBBnn99zN2ODQ0qIP+3uthZLx39jrhbybCWw3fAvpB4EDH65qaVFlhpVuYXzoQgtzT3SsTE+MzyoNp4tqZa7xzPkCP3M/e8oyhxk2fxbqgLSygaYQf/ZpreT72d68yz8D8LG+deDbmiLFhF/0A4ObFvY+7D77lvX7r1i0aYJOpMMsUQ4NPdWFIyvTyFOp2/K3jyn+WysuR9aC87DA0U/18v3c9JoVeKGq+RUJS2GYk4rqNEpmKSEdfp0TzjeQ27z9UaX4vSAgSvd7m4fvOIRQ3/40aQn4Yk4M731ACtINlc4GG1Kijq7P3rw4CDQ5RsacyBJ8OhDwySGjdZF68/YV3pLo6EbZHR2KAlVBD/7am7D+wiQXdDEEThsv4Cdtysg8M+8EwiAlDYI0ednQjXjzXRLdQENHFOAmMr98woGcjI8pcaIPEqsiJcR4G6hEeaHC4M3BlLFT7fN0A0yEIoquzUyJji4/MgnFDwywVYukxCDBPIvAQDrxPLxhfaNqwftb9aN/QwIVz55NnEoCWKRNLGiEFXbe3ke8z7QvQNYIGRozFzWrObB6HspIO0BYRYkSuDfi2vMb1yzpUuQhOoS93dXRpP6Q9GAeBtgFCAOEAPSNIUJJwveNtuXzh0gzhQxtUGgHMGKQVxAzEX710RfuM7vPkAQooimUu3U+Ud+PaDfnwxz+d4XqjDMKKf/t7v7Mk0V0WWQuUvB1GoiNQgoSCaeN4JC7T16elsLhQ8mqNlVEdk/wyo10neYten7hlxr0pYWJg8xbTLtGnUcnrzJN3TryjG9OkfpsDEKRXQ8oEqoXPkfdcefrv5dogwWMZLNemrjEdDo0CbVXX1TJErBaaMuv5n3WpYZ9Dn8X8w1KzGhDRcWwhTEfDkrFWp00O82NG++YAtHsmtEN56Wg03fvjepIf3ENK5WloGksdIcn4QpFRiggLzrRuwLaJvzzu9x4XC9sG1JkIQ6xF8qYfQtf8betMStcGQc8Gv/C3L5iP12QDBOLF8xc1bNsLrKuDh96Qw8cOL6lymrVAyd9lGqM60RimiWc0DN9hOvHRxLwSrBH2N4HRJC9IXKN/Jj7Jr4m/OSbz0+/kNR2XyXuTsm3tdtm+ZduSRTp9lrCEZ4l3OUPrajqfwrwib2dzcPDCMmtoY7nTNaCuaPdKz4ZnwfhfBqDknT/7qZw31qPXK8JzEGb95a99WaPAlvJ5sn67huUlxjqSzC819mG/G1MxXBmWvHLzd3Hiu/09aAA/6Ls3egx3SigckuGRYRk1DfcqghfNc/K8yx1aV2OZaErW2QkThyBAG9DLy0DXADrWcUO1vJeXMCESlPERJg3jJmU5JFyQuKNxQ95uuT1rLhNuS1x1rK6x1M+T9RtWbSPJ9FMCAsJJ/m2FwYxQYP8xborHrThlKmL+5pxNNj89xvIkNhSTolCRVK+o0gmADg4ODq8bcMexYsXF8xeS1kjCIuFvVt1gBWWvSx4eSvACuzrONV6VK2RvoXgZfjKlBEHyN//31PVGeISmjTk5FpL4YFyFhUSMkIomhJTea8OIo0aYDMck1hOTxoqVsnnjFp0F7ODg4PC6gYhQVtJ43P5YgxUYL2GpI4QJi7D658AQ+MB8G6LqXgSyEiiMa8Ds1ZowjN8mPWe/J4VJ6m/zsdfLuDFMOiZl/M6ExB8ZqXt3QsYfjEtsMKYLQep1yRQdikq0Oyr15fVy/PhxaVjZ4FwrDg4Orx10bGd6WidPBi2fb2H5I+6tvQf2afg47rsXgUW7vPhYAWO/p/62380H19bUkymJ3I7I5P1JaQg3ysljb8k3vvUN+fZ3vi17Nu+VwqEieXrzqUz1T+kaXhNdExIaCElTQ5OcOPmmzhZ3wsTBweF1BJPDWfIIKyQoaswLQoPhmSzVxBSEF4Wsorz+8/f/VMr3lUtBHaFbiXMIFT6Jf4nP1PCURJ9FJTZmLI9ovpSVlkldeZ3UVtdJTXWNDhYhJIgCIfZbJyJ2d0h7b7tEQ1EpMp+mVU2yZVPCzeWEiYODw+sK5iuxyOapX3+s+8qMPns2a3V05pvoBMwtm4UlbRiIf1HWCchaoFTur5SC+gIVHMAKE/t3fCouo62jUltSJyuKKqW4qEQqqyqkrqZeVlSvCFwITiXwwKC0PmyVp0PDOgmKJUBYGsEJEwcHh9cZuLvYRqKzo0MtFVYmZ0L0+FhE+SOCo6KyUlauatQxE2bEMx79IpG1QFlxYIUU1hemBIkVLIqY+WesktEbo3Jo/yFdP2YhM6axWGgwZtYieJwwcXBwcJgJQoifjT7TOSfwVqwTZugv5Uz4+ZC1+GJ8xA6yc/R+18is0ZjU1NRK/coGfciFSEquRbrqbHEnTBwcHBxmgTBghg10mZz1Tbrk0WcpTMCiBAoJhm+FiT2nS6+MxqWxoVEXXHRwcHBwePWxeAslmfR70lphjgkWSl1dXU73MHFwcHBwWL7IWqCwza8m5tEk/2a9Lb7HJmISi8R0VeDPepVcBwcHB4cXg6wESlFJkURHozLZPymTAyZxNGniyYSM941LbCQmpSWlUl5Wrus8OTg4ODi8+shKoNQ11EmsPybP7j6TZ7efycjtkefpzojEBuOytmndC41/dnBwcHD4bJFV2LCDg4ODg4Mf2Y+hODg4ODg4eOAEioODg4NDDiDy/wHkHjJtkJgQwwAAAABJRU5ErkJggg==;" vertex="1" parent="1">
                    <mxGeometry x="440" y="471" width="308.31" height="58" as="geometry"/>
                </mxCell>
                <mxCell id="23" value="dlib" style="text;html=1;align=center;verticalAlign=middle;resizable=0;points=[];autosize=1;strokeColor=none;fillColor=none;fontSize=16;" vertex="1" parent="1">
                    <mxGeometry x="570" y="530" width="40" height="20" as="geometry"/>
                </mxCell>
                <mxCell id="24" value="" style="shape=image;verticalLabelPosition=bottom;labelBackgroundColor=#ffffff;verticalAlign=top;aspect=fixed;imageAspect=0;image=data:image/png,iVBORw0KGgoAAAANSUhEUgAAAVwAAAA8CAYAAAAqlQLCAAAAAXNSR0IArs4c6QAAAARnQU1BAACxjwv8YQUAAAAJcEhZcwAAEnQAABJ0Ad5mH3gAABMKSURBVHhe7Z0PTFRJnse/d2bbmHTHmTbsNXGuGSdCJoiTgxhkSBxdHOaCmCAmrWxQJhA2IEYPDoSdvuPcOfZ6F8RgJIOyEsggJq0kCheBzPlnVDaMEgPJRggRMk53bgM5194zdI7Ye+auqimku97rf9jdtszvk7xQ1U/rvfr3q6pf/er3/kr37t/8HwiCIIiI89fiL0EQBBFhSOASBEFECRK4BEEQUYIELkEQRJQggUsQBBElSOASBEFECRK4BEEQUYIELkEQRJQggUsQBBElSOASxKpBj8RtKTBqRTQSxCUhdWsCIvmI1Qwd7SWIVUBySRsshSnQruExF+zXG3C8+S6c7rvhIAXFrY0o3KpbjC7YMGSpwOnh+cU4ERSvL3A/a0KfOWOFI95j9O4qRbuIEf7JsgzAnCkafCBeuuB6PouZqe8wdP4ihuzUMVYt2lKcvVqEZI2Iu5nF7ZqDsDwU0ddEywT6laIUeD1i7gZOFDRgXESJwJBKYbWyRgONPgHJmQWo7h5A3/kq7KB14OokMwlGL0nIicffbhPBMJC+OcFb2HIMCUgXQSI4SOD+SNB+mI+T3U3IIaG7+hh5BLtLhF9hw+Q3IqiKDsYdBThm6UDP9Xs4d1T87IPRKRsUj7BPYEgEieAggfu2s+CCS75einsy+gwcO1OBZBElVgnObpjP3IB9SWHrtGH0fCNan4i4zC/aMHhrAJ0NFchjs2NDEIOws7sOrbdscIq25bTfR/tvW2BfjBJBEhEdrnOkAfvMN0SMCBdKHe48Ri25MP+HiHqg316EmqoipBvkheA8xltycaJfRIkfH0c7cNOUJCKLTPd+giNfiQgRMWiGu0pxPGCzntIWjDrED6/QYcvfF4kwQRDRhATuasY5AMv1Rwrdm8aQiB0iTBBE9CCBu8pxXpnGnAi/Ys1a/EQECYKIHjGpw9Uac5FXsBPbU5KwOU4LzToPPaSwL524P4DeLitGn4rfgyUuA6biAuSkJcKg10HjqeJccMHx9DFmxu+hrydQ2npklf8S+zLZOxr0y+ksvd/4DQyd78btUN/PD6HocJepwLk7BUgUMTfP78OSV4vbIqpOhPIXtvLXwbgnH4eyspGcGA+9VgON2+h/EdeCA3MzjzF+7you9d6HQrMSAP32AhSbcrF9C0vbo/25HDZMDFvRemHAvUmlrBMftuUq/WRZb8rzchjlps/wdxs9yto1j7nvxzDU3oRL4/7tqMs67sG0WUQ4Uh0r7gdEzoeyHQXdz7UJyNlfhKyfpSDRsAFalf48MzWG4f6v0fsgcE35LXP+rENHYfosDYb1y22CP8M2PoDfNXdjPHynQUImpma42h2lOMVtRrvrULwnA8lG1vg8K4cj7EtT91TAYu3DqYIUcSMA2p041tqHwd4mlO1Jg9EgdXYOe5bemIL0vAoUHxC/qZBc0ISeoT6YC8Q7eqaz9H67S2G2DuDc8Z1v9hjkrnhsEMFXOGYxKoJqRCR/YSx//e4qnLs6gM7aUmRtS/DqWEto1ulh3JqBvKNNuNLfgWO79eJOALRpKG4dwJXGCuSwtD2FLced97w6dFrbUBwOcw/+vDYry0sB0jdJZa3RwfDhThS3XENnzRtuRyuCDdpVHaz8L6K6JBupm+K9hS3nlb14Psoa+9z24llx4l6IaFNLcdbKnsXarVHv3SY06+ORyITyqV52f0eQh4ciQEwJ3PScfKQaQyiMNXqklv8alj0B/k8yr4gG5G1lDVr8tDJ02FFzEc3lGTCsEz/5Y40Oifsb0NmQ+8Y6S/qurazZezP3va8jnxHKX5jLv6c+H4lByk8365OQV38F544GGJy1bLXQ0bR8fNUf2hQU/roJWyRBHxopKDvDnpcc6HkaGPfW4qTpzQmKkGEDbHXXFZjzkqAPoYy4vbi5uwNloQ5myRU41ViE5EAdbR2bAdc1wPSGOmTs6nDZUsNhZ0vCW9fQf3Xxuv1w2Q5wGT3Siyp9n3hhFXHujO+K4EvE6anH7LJh7rnCtNuL5KMt+GKv8sSN48l9DPl5R/2OCpgDDQoRQJtahfJMWTLZ8KBnTIS9iUj+olD+HK90VEcTDRJN/gZnHXLqK5ClMKNbxDkn0rc7lu2c9WwGvX3l9ar7uJ4t88XzXA7Y/b6/DqkHald8smvue562uOaU6gnnnMf9pfcQ90KHDyT1yNmkUpaiX7uf8WRWpT8z1iXBxAaz4A/psIHYXIDEV0Up6spX+mxVYarJEJHo8gZ9KSj1j27dzHZg+psO/K7tmrquJS4flvYqpHvJEQeGf7UPX94R0VekoLqnDTnviegr5jHd34bfCD2cF3HZKKsrxeaZgzhxXvzGSa5DT1suDCLqxvUY/XVVaJX1a2rv+J8DOH6oEZMiuhKC1+HyQeiX7Hlspiq1+bnrFTjU/EjEPIhI/iJc/gzn1DWcrW9R6JK5HfIXNaVIlZenzjG07q2EwgzZRzt2TlphOdnmrU9mHbbQXIfCzHgV4R+8DncRF+yDjahpuuGhZ2bC9XgL/m1/kpS+b519IB2uFyuyww1eh5tccxln98aL2BK8zs/gn1o888nhbfVfUPN5mmIm7HzYgn0110RsGWU/EHCHOs3/gNO3PJ7A6uoYW0XkLQ1sSwS1jxF+YmqG+xf7PbQfy8WRJh/ClvP0moqpkx4JHykrQFtUgd2Kzu7AaFMBjrSodHbO0xtor5E6OyOv5BOps7N0zqgIIw57R/PXY97L9vc+hilThMOGDulVNzE4JF23+mApUQpbx0gLjqsJW0Yk8hfZ8meiasYKc7lS2HK4HfKJ4kalHbI2BbtL5LaiQ/G+NKWwfdCIQxWSsOUwoX3JXIrWkcAbPP5hwvZqJUq8hC1nHuNnq9ClKHsdjNvTRDhWyUfxLlnYuphAr2N1LueTw9pDNyuD08qNTe1H2SgOdibnsqG/+rC3sOXwAbayQylP1icgI4y+JoIlpgTu8PlG9AYxBXR+a1NUjt4gLxESUPyp5N3I3cD/GeZBFSHilyLslgS6a/I6LP7S6b+Byeci7EaPxMwEEQ4j6zTujUWvS9aZLcxi9AJr1OZrKg2eE4n8Rbb84XqE3so2/ysGVTtkDZIzD0vCNR+p8gyIpd/fMODHveE8hsxfv96O99PvcP6s+gDI0+8dmZbenZWy3ntmGnMUZWOLJCRdbJVw4itf+VzEOdiAoUkpt5oUpH+unEip4Rj5Cq2+GoPTitFpuSQ34N1NIhhFYleHy9AaU5C6LReFx6tgbu7Aua7L6GMzuJtdyqWlklwkG0VwCSfrRD4buB9MaZD7o+0PHQF8jQ7AJi9zN34sQlGCLbGGL9TiQM5BmC9JM1JPIpK/yJa/a+IeuoIQds7Oe5hYEJElNiYhRwTd7ElReNsKLv1rKh05eBxTN/1ai6D3MWwiuIRGF8puYfQxpcpqEBcmvg3Uljjz6PpWeUgnYXOuCPnDgYk790VYnd6ZH0RoCQ20PxXBKBIRgct1O5/u+iTApa6L0qbmo7qVCdZb99DX3YZTzXUo3p+PrG1JSFQzK/HFZ+9DsbCZvq/U3QWBNn6D1IiAxIJ7uHnH/yXbPUa9s6xLwI59BdgdYMc3IvmLcPnbZqwiFIgB2OXdn3VaNh/3YJNeoU6YezIgQv55tvBChELn2dxdEVot6GB4R66pHzDTK4KBGFJu1AXXZ/6EOcX+TWwSQzNcvkt8GVdaqpCzlQnW1zK3YXyw8k4kk26I1VkF30RZHsBK6tswNCUt1+PSUHbav5lNRPIX0fKfx599ecJSMO/be5oga6NS5/hsNlS1BwFkIF6uqueO4D2KOV9g5cPX20HMCFxu8nNst3LXl58QsU89wujgNfR3NuJETQVK9loxLe77REVgv3i5mjvRPOzDVpwuL8CX1yXfpSGb2YSBSJf//4q/EeEF/uKlnyZeh9UuREMhNgSuthTled66H9fcfXRV5WJP3kGUlFfA3NSC1u4BjD98pL67LaMyq4nfmC1CofHnBfmB8xjvrGTCP8SrOdhl8Oswj+HmClySNyD0GShrKFDMOjkRyV9Ey1+Hd73OKvtDp9xEDAhL/wMRDMDa112JrSqewSnry9frvY+V+0O7FmtFcLUSGwL3UIbie0y3/rXW9/nxbRtYlwjA1KzSzMSYBnkfJxjGn8rvocOGd6aZ8B8L7ZpStxEIP/O4VNsNWeZqUw+rnlaKSP7CWf62ZyqbKQUiFIhcGOUdVsesl3XD7T/OitAyurhgzK8SkLwxuF30HwdjsDnkmnofm00iGIicBMVmuGN2QoRWBzEhcLOMkg7tuQ2Tfux9jDuSAlsp3JmATR5t3/sE5Z+JcCh8o/S4ZdxWuiLhETWc3Wi++lgSVDqkfq5yrDES+Qtn+Q8r30+z5RMUBqEi0ZoykCgdU3bZJjAswm6eOBS76IaP8gOf6kouQKrCzvjHzfC0PHhpsOVnRaorK290MGUmSipFF2x/WF0bizG0aeYBW4b4/La+Nhflu4KxZ7Xi9xPKmVt6eRPyQnWO8eQGJhUSKRdfBDqb/4axnz+DoSfyNDcNhbJqISL5C2f5X8WDGSkfmhSYfpXvbW0gw30j/Fw+0DCPiTuSamdwDNPy4BC3E8dr/OU/BWX/mB2EeeLbwdo14Zmp2/u+g2wpp0k+iJN5/jdmtXvqYUqV3sH5CL8P1sLhLSEmBO6MQ55fJGF3vUpnisvHyY4qpK8X8QD0d95UflyPf9er+zIshcqTRRzuGrKs+TJOlYsf3IyhZ1ieLfKz+Y04V5Xtp9Nzt3sVsHRdxMmVzOxem0doPXVDMTvkqgVv3weRyV/4yt+G9ivfKVUU26rQ6cO7lDa1CKe66qQj4GzONDWAVoVtmhVDKuorw94z6KxVyX9cNqq7ziz7QXjbmHcpVDTGXfXh2VR90qbiYpGtrKou+mhL7F4hK+fqDOmeC9PXW1ZkRhjLxIY/3MwGXLHsVFaGw4bx8THYn2thTE1BolGYiznYElDvbXbk81z30Q40m2RjbAF3pPHHH/Dsf3hkLTYkLPs+VZ4tZzOaDh+d7OU85uyzmP1+gr0rE1WGRGyO34D4jex93f88GL+1gQnel4I36fVMwO2W1Tb3cbqwFkOvxrrI5C985a9DjuUiqhXOeBbhDkts/8X3w9dCFx/vdtmowPUYvZWlaFdTV2mLcPZqqbSXIPB4z7U/fd/t+m8RB6af/ASJmzzrZCX+cH2h4st4xopPS9tEZJmQfClsqkOP2uGhlw7Yp/+EF7wM35vH8N6KlfnDZSsLS7dysHPjWedrdR5tyBt+bLuG5VOtqvz6w/VFjHzHLTZUCiNN6Jd3eDhuv6v5yNsvfGm6d4QdGO24C+U2hzqTX1XhN7KZ1BJruP/VJCR+yC+l71NvHqG9Uu0bYQy2HDNsShLvmo+cTDY48Pf1l1wUGW3pxqhs5rQ+A8VmT7eKkclf+MqfH6Ut8em/gPtUXUpHVdgu+BG2HPeXb304Kvd4z2Vhy1ri8AX8e7ANMZZ4YsUDNePYNXoYl8rwdRqvkwnEMtaWVHxceNW5jzbkmvItbN92YkSHy3fVG5T6RhnXLIZbSmAeDMWyj5tJHcahlrvBmZMtofYqvCEV1aNfPlwQCMc0JgIaDkcQ7lOgR3m0V5/5C1R7qgIikr8wlj8Th/3mwzhx4T7mZJ2rH7hHMUuRH2ErcA7Wopy9Z+C0XbBfr0dJ/cBbamNqQ+tvrUq9dTjhDo6KK9E1MqtelWqwldR0fwMOla9OYcuJnU0z512cLj4Ac+ddt79Oz9NB/HMp9hErLIUH8WW/+gwnEI5+1kH27oP5qwGMcz+ZC1IzcLncPk/Hb3XgdFEujlwQv8uw92wtz8WBujb0jzx2+3CVTzK5WNqLaVnRXrcPn+6vxKWgT0ZFBmdvPXoVqwg9dpQ3IEvE3EQof2ErfybAxy/V4lCOn7TYspWrGJbS2ufDo5ga/D0PmSrROjgGu2Ti5G6HD6+xNPNR0rzoxD3+nbfUcnSyDUdYPrvuLNaxFwvzmJuaCHy4KBBur2oHscdUi3Zenrxfy02Q1Z3DPobbnY0oyWP1rupRbPXw+jpcgvjRkoDqnove/n65bjyvFkMiShCexKZZGEG8DWhzsVm2w3XMetv4EoQHJHAJYoWkV+1UHFv1/b04giCBSxArQrunCTWyqR03E7ul/r04guCQwCUIN9k42X0ZZ+uLkPOhuq2vm7gMFFou40qtbKgPuCav4vSIiBCECrRpRhBusmHpr18+xfjSBefTWcz+95Lhl58DFRx+qKKsFO1v2BqFiG1ohksQaqzRQGtYOkwhDgP4ErYLi183JmFLBIIELkG4ceGFig/fQDjEoQrVrxsThASpFAjiFXqkmwrw6fY0bP7gfRjW8a8gi1sC96GPp48xM34PfT1W9eOrBOEDErgEQRBRglQKBEEQUYIELkEQRJQggUsQBBElSOASBEFECRK4BEEQUYIELkEQRJQggUsQBBElSOASBEFECRK4BEEQUYIELkEQRFQA/h9/udYsa0AMbAAAAABJRU5ErkJggg==;" vertex="1" parent="1">
                    <mxGeometry x="770" y="469" width="348" height="60" as="geometry"/>
                </mxCell>
                <mxCell id="27" value="" style="shape=cross;whiteSpace=wrap;html=1;fontSize=16;fillColor=#1abcfe;" vertex="1" parent="1">
                    <mxGeometry x="730" y="540" width="40" height="40" as="geometry"/>
                </mxCell>
                <mxCell id="28" value="" style="shape=image;verticalLabelPosition=bottom;labelBackgroundColor=#ffffff;verticalAlign=top;aspect=fixed;imageAspect=0;image=data:image/png,iVBORw0KGgoAAAANSUhEUgAAAL0AAADBCAYAAACaN7GKAAAAAXNSR0IArs4c6QAAAARnQU1BAACxjwv8YQUAAAAJcEhZcwAAEnQAABJ0Ad5mH3gAAE8zSURBVHhe7b1pkFzZdSb2vSVf7pmVtaAWoLAD3UA3ekWzm82lSYmkKGqZsEhKtmwpNLZjYmxrYmxPhH86OvRjwo6Qww5PWDEx4ZEco9CMlqEsWSGK7ObWZHezF6KbQC9AY18KBdRelZV7vsXn3Hdv5s2srDULBaCqPuDUd86595235H33nXvfy5fGv/hmEBgAApJd3uXtxMvB+BffCFYq38UuHmqIxq2fDQSTFYMNTXbtXfthtnXhMqFKZuz29LvYfuDWLXt2bt3c4EUrl62+paff5V3eFkwU/pE+yVLd7el3sb0hGje39uV6eiW79q79MNu6cJlQJTNMPgPE2cB/pOzau/bDbAtIVnmMXhT29Kwxs7Jr79rbxBakWApjN6ffxbYEN2pu5KJxK0W2+t2cftfedrbuY2ZV6Mys7vb0u9h24NYte3Zu3dzwRSuXrX732Zsu2XML8EtXEa/dwWDlGo7UbuKoO4GhII+Mm4cFn2qB/lqomlGUSSaMNC7bg7gYewQ3My/AjA/DNJMwDWvN693l1bkTRPluT79OBB7c6gQGShewtzaGvd4UBmp3EfUWEfNLiPtlJFFF1HcRCerhZZbg01EOqFH7JBWSIqIoWimU7F6UIjl8bO/HdToJ8onDsJyBcKFdbBgtjV8/G5j0nl5h115q+24Jkfok+io3cLT8MfZUrmKgPoVefxE9QQkWNXLVwNeDgKJXqPe/afZhIroXs9H9mIkewFWSamwUoBNjI9u7k+1O4HJVL+zpu13LNrYD6tlj1Nh7S5cxWKbevfQxnqtfQ4J6dFOmLpuJohHFjcgQzsZOYDb1LKZjR5B3+mGYcVmDsIn7J7BdbeJGTi8KQuzm9Mtx4MP0K3C8BYzOvIJPL76OJ+rXqWTrcN3eg7fSn8FHmZdQix9EYCXoNDNW3u5dbnAniPLdnL4zzNo00vm38PXF72G4dhspytkj8GTp1sCla0mNUp/r1gi+l/w0bg9+A56VlKW7WAktjV8/G5h2c/qldqZwHocWfowXiu9grzuJWFC7J6nMWlGmlOe23Y9LyadwpvdXMBc7RJdsW5Zu/v4/7HYncLmqZ7148uWX2bmLEOnieZxY+BE+VXgTx9zb1LvTAHXVQ3pvwVeYrF9EtjaJwPdQIE/BTFKeH5M1dtEC1bqJ9fl5hd3n6SUb1LgTles4Pv8DPFP4KY66d6jwwQHP9w/683hm8TU8Pf8Khkof0edaW7Ifu0zCkMw+5VZFuz09wQhcROszODz5V/hi8Q0c9KZkyYOHdFChlOsOkn4B56NHEZhp2gFTlu5CQXTw1MobPb3W4+8+e0MSr47hyMR/wK8WX8ewN0/OBxsxv4pDpQv48uSfIuLPkocG2Nr+bPbxedjsho9V1oUimbDjn6c3KuMYXnwHXy69hV7qPdVjAw8yeIzR4xXwePk89k9/B9HaRGN/WJh2si0guYNL9vSsMbOyg+yA5+BL53C68Db2eTMPRYNXsGkM0u/N4TOLP8GewjkY7symH5+H1RaQrFx6UdjTy9Nhp3G0dBPHi2fxeOUSOR4+8KwO3zB7bPEN9JcvwfVoYNthP3caK70h7JLM2Lk5PeXF+0ofYqR8GfGgTI6HFy+V3sPjxfdonyi/V/unyU6zla8h5Ar/hGjp6ZVsdxvUI9r5d/Fi4ac4Ub9Fjocbtl/DQOE8RuZ+1nF/d5rNED7JUm1gR87TR1HFpyiPH3bvbvmjBfcCvF+PuDdxuvw+3Oo47WI4m7PacdiuzBC6ZKk2ecc9e+MVkCl9gv/s7r/GqDsuHjHYLHg0FL5r9eCWvQcFO4e61ZxDN4M6Im4eaXcOB7xp5PyCeN5+M3HJOYQ/7/k68rmXEFg7+G4ttW7RqrmVtzPTTnv2xqaecHDmO/iv5/8W6aAkvd3BowvmHSuHuegILkWP4KJzGHPOIGp2L61cNfoaorUZ5Op38bg7huHqGHprtzFUn275skk3mDB78Gbiabw78t+gFukhTxh0PceH8bDbndBSf2c9Tx8gXbqIxyf+DL9ceQ+JoMrODYN7E9ewMWtl8PeJF3Ax9wuoJI7C5ichV9kes3QVhxdex68UXxPfvHKo4YsBVhfgk49Ptn81+jIWI/tgmk5YsObjI7ENbP5suCPR3Qo7ap7eo569l3rZL1U/orSm+9TCM23q2Q/i3/b9Ni4P/S685Elq8Ill16/bfnw/rg38Ov5k6L/FuehxFAztSyIbhBn4lEIVEFs8B9vLr/v4bBdbmIqlMBTvqHl6qzKDZOkmUpRPG9RAusUH0aP4XuYrmM98hlKZHAIjQusx1rY9fHvJzCAfewTfG/hNnE2cwiw/R9MF+IO26GTuL1+DQ41/TduxDZnBujAli3Jmwo6ap096s8hWb4s7r8LXBS7bwziXPI1b2ecRRPvpSFLu3ra+1WyDl7GTmEo9gTOZz+Fa7IgYDHeDSODiyeoVZPwF+pBbZ3Ha179dbQb7hClZ+Rk7ap6+x13AHre7Jyg5Vg0RnEs8heup5xA4IxvenlAMWEYSN5LP4GLsFCbpitENInRCP+rdQcqdQeDRmGXJ+ra/zWBfm6uBHTVP3+/nsY96+27gGyZm7B6MZ19EPnGs43o2wlZ0ANcSj+C9yBFybhz8MBpPw1q1aRje4pL1bGduCBP7pSldDeyYnN6jXi9BuXyuy2nKKuXtr0eOYcbqpQPLOXzrerrhmeh+3E2cIKMLUDDbqyBWn4ZNef1a1rtduCFM7NdYx47J6X1UaZBX7vpmlGc4uJY+jaLT1xK/fX0bsilmKX5YvAXBNTaW23Msk2MGHn3Yuzm9KBeeJsKenjVxWoSyLe16GRGXxN/4VCXPg5fsFBYTR6hRyrl4FV/q3dgGnVB8J/eSPSLehNANkjR+iXt0VdPiK9m2tsZ6D69YYcfM05sB9fQ+Cfd+G4THr+Qz4zAilNpYzqZun7IrZgQTZlacYN0g6eXFawbb429nW0Ayl7GqRMeOmqdn6h4GHbSo+Lvm9a6TNwUqlhZ3u3NDZ5V1jRVY31Hz9JuFTdueZexNgRZvs7fvQbN1EWWssi4UYTbA5o6ap+8W/MKnKA2Efb+CwPeXxt8ke1Ogxdvs7XvQ7IYwaSzVJdgx8/S+FYVvRilX3vgdTyugRk+DQ7t6HYZfXNN618M8VOZXexx378IOunvOv2hnULUTHdezXZkhdMlSbbDCzsnprTjqNgkNFDcKvvFje2WkFs/DdhfXtt51sO9Vka5P46Q71vWXW4p2FiWTGn2H9WxXVrpQJTMUM1jfMTm9yb28EUfFkI/bbhA8+7Ofevq4z3c76RDK+O3r24htu/NIVMeRoquI6I02AP6w+QcgfNOmmHRV0+K3r2+72LpwmVAlt4N9YU/PFv+Rsh1ty4iiaKQwZ1Dv1wX4kWR+NLm3NgZ3k+fBj5c+xHP5n7C1cdCn7VoxlOMHUIv0t8RXst1sAcmi12eW0g727Zh5ev7DX/YYs3rZ2jD4kWR+NHkk/x56yldb4nezfWb5Eoao0R9wx7l0w/AMk/Yxh4rVA5O/Mijjt69vO9qCFEthKGaF9Z2T05NMO0O4Ez1ExsbBB5UfTX6y/AFOLryOdOH8mtffiXkWyKvO4NTCm3i0/DGSXX6bi+/kXrEGUTYz9AFTitO2vu3KLTqrkhnClgrzjpqnLzp7MBc/Ih4NFgepC/BbjfntxvyWY37bMb/1uH19q9lGUINTG8ehwtt4ofg2DlHK1C1cOiWvR0ZQ4t+qMndOTq98zKwKnVlC6cw7ap7eMFOoOwPi0WB+RLhbcMP/XOHHODj1/8KuLdDoMZy7X9v2BLCrU9gz90P8JzN/jgPVa109IsHguK7pYCp2GDXa15XXv31shvBJlmqDdbBvx8zTM1tWRDwS/IZzTDwivBngtxz/SuktpPKvw3Jb3zC2ErtBCUP1y/jm4qsYFG9EoCtFl6gbNhbtPrg9z8N3+NFncratdzsyQ+iSpdrgBmTZjsrpmYuRPlxJnhaPCG8GArpiuGYMldgIcXzJ+pZjfn5n0ejFx5R/c/+uPrRuMEcpzduRw6iIGSr6aDusdzuy0oUqWfiYJXTfjsrpWTw7jcX0Y/i5cwQLfPOmS0xbWfw0+Qyq0VEEVnTJ+pazTdNGgVKtj5JPY9HKUMPvLt2q05VryhnGR5kX4Mrt0Ne3nW3lE6rk8E8TymTeMfP0Sudn1mvOEDXUT1GD7W76km90jUVG8W7mC/AplqlmS7hQrm8lu04nzFTyKVxz9qJodPdGsjnK4W9ED2Mm9RR8ft9Nh/VtV5shen1mKe1QPuYdNU+vbG4UtzPPYj6yB/UunsWZpIZ+PX4SfvpJGjCs//l6047DSxzAW/yFcCu34d6epymvRoZxPnocTqSHQocrWe/2PKy2MBVLYSgWdTXecTk9M79zxo7tx1vxp3HeHmXHhnAx/hjeTX92zevtxPxoxM3+X8PFxClMmxkqWD/G+Oc205/G3exnlsTfCcxgXZiSRTkzQ+qqbMfl9Mo2KKe+3fMiLmWeE++hXC/O0IDxE2qobnxfd9vD776h3vkcxbru7CPH+vFh7ASux44joPHKkvg7wGawT5iSlV9BlEnZUfP07XbFGcGl5LP4IP6keCel8K8CfvFn2YzhQuoZ3Ek8SidPfMPrbwilWDPJx3GB8nt+idRawanZOfsgLidPIx87QFtGJ1CH+NvdZrCvzdUCvWxHzdO3s0W9/WTiKD7MfAYXnYOi4a8GrvOJcwhjmadRjI10jLsRDijWdWr0H8QeFbm9+GBXAP+K+NXIXrye/SKmaUwROH1rWs924oYwsV+a0tWEKpO8I3N6nU0ri7uJx/HX2a9ikm/s8AzMMvDpkOXNBP4+/QuYofTG4peutsXrhhcovRmnbSmYKTH/vxz4pLht9eO7yc/jRv8/oisWXR06xNvu3NBZZT10CVEQuiqTvGNzet0OnF7ke76AP+n9JuXV1HsvA36z8GXnAEqZp+BGaNApl9+s7TGcHGYSx/G96GOorHDHmAe8l1JP4fbQN+DbiU1b/8NoC51V1kO1wQzdp+ruuHn6jjb1qr6VRp7SnO9kv4azsUe4xhJM2zm8mXgOdboimPLtZmJ5LpR6Nzbn5AVnLy71fQ0LfNXpkG7xAPqV3K/iTO5X4JlJ6r34+1wEGYtlx9gaq15c6JJ1sE9dFXbkPH1H26TzP9qPG9lP4+3MF/Be7KQYsIa/WAHcMXvxIfnuZD+FwKK0hhbuan3L2H4khYXkI3iTBth8t1dBDFojB/Fe9hdxMfsSZuOHNmV9D7MtIJnLWFXSAlXGTGK9ePLll8OSXQhQjz9r9WCW8uqY4SLqFSjL9/FR7CjeSb+EcvoZqtTdIwMrw6C1WbhjJDFavYEebwEFKyF+T+qN1Odxq+clVGKjVOtebsODD+60uSGLzlspzG2QnXsLdshvTgX0j70h1rK8F9RgV2/jy5N/hqPV63gv9Tx+QimFHRtZ0/KbYb9w9//B8dIZzFl9+Ifsl+Bl6CpjOpsWX+FhszuBy5etpwqIOcXZAb8uGMD1K7AMfkxgnY8cBC5iXglG5SbqVgZubC8dsY0/trBeGLVxWH6RxhxRePYgXYWismSHo60RC3sZqGK9kbf09A8ju34NvjkLNzoJIzEHK1uCk60g2ldBJMUva+Wa/FM7BuqFKKozMdQXWBIwSjmY1T2w/V5K6Zs9aDvDK1PDs0SdTuX3in3at/AaRcnMCtu303gltJR3CCDoYevpg8CDZ5ThO9OI7rsDZ3CW0vA5GoTmgVgBVrIGI1qmBl+DFWt9Q3FQd+AWo0K8ogNUUggKffAWeuHOp1AdG4ZZ64cVxNd/VdjFlkI0Xm7EbY1aQXe346HJ6X1q7L4zDzM7C7tnEkH2JuInriK+fxJOxoVpNwd2Xt0LX7vXBtOi3lqrx3BLFmqzMVSn0yifPwws7Ic/v4dOgh6Y9SxMTouo3mbvz67dxHrtTuDyZetRgcjlmdl88H9Hlhq7VQGcImp97yH95EfIPX0Xsb7wrQH1qtuxga8H/INnkWg4J16ZiWLu50NY+NkJGGNPI2btCb9gvWn7Q1inzSmOJ1/zZ9E/g391YRPjr2QH1DzqlkdjC4PWzB0GFXYRT2ATbL0RdwL72xdTeOBz+rpzF/U9b2DwC1eoV5+HFS9RekMpjMk1CIKkvmHQmnhlhIA/3MBB8eIB3PmzLyLmn6QPe2tz+XYuB0VMeeH7cAasESSM5JqW65ZBJ1olKOFifBLDlTh6gywsM7nm5e8Vd0JLeYcFl/b0DyBcrwBz3ydInDqHxKPXKKXJhzm64Yve517BiliU6qSQf+8ECq9+DZGAH+S6P/k9H4NxGozf6AXmExZSCwt4Yr4ffbXuf2h5Laj4JUxY0/j5sSzigY2RqTL2zgI5s1/WuE+QjbhT41ZYqYU8gM/eeHQ5HUfk5LtIv/g2Uk+fR3zfDMxYlXaEcvV7fI5yqlMb70f5wiHYQU6kNpu7f6vbPNvkYR43+lxcHLZwayCGmb40JgdzmHHKovfV62/2+tn2UUM+VsPVkTjyuTTu9sZxZTiOS4PAncgMXW0ppdTqty9/L20G+4QpWfkVRJkSVSYdD9Tz9H5Qh2dPIXL8DDX4N5F+6iKi/UV4LuezXOlewggb/GwclWsH4N0+0ni+ZrP2by22F7goBAXcTlJaMRzB+EAK1UQcAeXxpXQK4xkPs1HqAO7h+/HZLqGMyXgNt0dycGndnmViNpfElZEkPsmVMW0vgj6tRv325e+JzZDMPuVWRTr0MrE8QzoeoOfpqRd3ZuHvfQ8jv/0TJB+5TblGRczEbBVsO4K590ZQuXQMTtD8RtRWcUC9Z9Eo4XpsGm8fyWEykxCNTcfY3hwm+qOoGZU1x10v8xV1OkoNPuWiHqEBvigIUUnGcfPgED7OzGDOLogef7V4m8UCktmn3KqoAVWmcaMiyQPzPH3NmIB15B0c+K9+BN8qUk/GhVuHgDrOymQU9YtPwZ84tGT7toLz3hyuJ/I4/8gwSvEYPJ6laUPdtnCHUpybkdk1x10vT/kTuJkDJvZSLtMBnm3j1pH9+Di3iElrbs1xu+WGzirrGisIva1MX57lgcjp69YYks++i4GvnkEQKZCTpyB5C7cGnNaYiGHyzQNwp/aBhowt27fZ+9vJdv0C5c0mru3vaTR4Ua8d5JzrS+HucBL1YJIczZ5Wj9eNPZWzMZuNUONefgDPDf/OcB8uDvi4HZlqWX6zt0e3hc4q60KRLKH79LqhEsp9fp4+gOsVKYf/CIknPkJkaErOuYsaWwfXhJdPwbv0HIziIB0kuqTLbWURW3MPbc+vYzxZxa1eCwuU0vjWMg1eohaNYjobw/V0Da7Bs/gELd5GbZ8udwveDCZ6oiikVn8RFqc6dweSuN5riOV4eT2ekk2zNdZ7eMUNyDLRw2scOlVPzw5mVrbQhuUi6L+E7LMfIzY6Ad/buvxdwaCNcgsJ5D84gMjCY7D89LLbey9sn/4tWIu42gfK4al3bcvhl0MhZuPSYAKLVokihG9M7mZ7AopSRwU302XMpR3Uo2t77WGJTg5u+LwcL89xOsXfDFtAMpe1uVocrIo6UkJHKPcxp/fgR+eRfPE1xA6Pw050/wLT9YMf5YqgdmcIM69+Cl4lfDPY2ra/e/Zp3FIx6riYnBe9K8/SrBVuhAbduQxuWVMoBZWO8dfDXlBH3szj4pEBFJLre9sa1+fleHmOs5b1rZdbdFYlMxSLciadpYSOUL9vOb0bnUJ18IfoffYOzEQJnstpzdbCdiwUrvVi/p0jiHsnwilKuX3t23sv7IpRwrg5juuHR1BOJcm5PvDMyiePDmMhbYrp3vb467EX7TouJwsoO5TqdRhArwSuz8vx8hxnI+tfydZ9zKwKnbkN7BN1NW5UJGbffZmn93wXkdws+l+8SC2PZ2ruQx7PoCPg3z2A+rVTMAPtO6+S77VdooZyc4+DqhMR8/DrBR+1UiyGG7FFzFjFJfHXavOd30KshJsHhuHSALXRWNYIrs/L8fJ3YkUs+gst8de7Pe22gGQua3O1QPi0uqHSZPbdl3l6n3p57LmCzPFZ2gJOa9RWbQ74aUqLesFOwmW8EZZtIX9+AKXLB2GVh1u2byu4HJQw65Qx1Z+lgeva8vh2cBwe9E7mHMym69TbF5asZy08R6nlrR4DpUxyQycfQ9w8o+XHewIsxOh01OJ3ywKS2dfmakKVSW4srwn7tjyn517d6BtD5OAn4tl3sTGbAp7xsFCfj6M83oPy1WGULx1C5ZNHUbl4lPSDoY/KagsxBPUo8u8fR+XKoU1/f81aeMGu4G6iKu6ybrShKeR7MpjKmJhzwt5+LetXXPUrGKfMaizX3VuTFfiu7UKK0i2/uqb1r4UZrAtTsihnltB9et1QaerMW/48vRsUkX7xh0h94YewUvQhdQ2DxsS0Bj8Cw01h9v1BLF7Yg/rEIMziHlj1AToZynT5XYCfnEFkcAKpY1NIDheRf/VX4d58BJZJ6YWMxuhm/xir2oGPC7kCPhzykc/1SG93SOYXcXiyjtNTvevangnvFj4ejeH6gQHp6R6P3ZrFEzeriJnhKwrXsz2MdrsTViynAKKRc6AO2PLn6SvWJeS+8hP0/sL78Oqt32zaCGzHRmk8g/n39qF89gk45ZM0aKCe26WLWEDZGwldz0jnmzh02bWIabAVGBXq5jIw/PBnJzdr/wRWsfmm0rm9Nj7Y30O9/MZSm3Y0Gv1k77q2Z8K/hY+o0d/YxEa/5840HrldxtGafCP0OrZHoIMtemhm6WoH+9sX0yHKZZwtn6ePHr0KZ+8ddP87Z4Zo8AsfDSD/2qfhn/1V2Aun6KzqoWFCnEqjlLZQ72/yVx9ISOefvDHohDCosaPcR4NX+cshYbhN2b+12HcjVcw4/qY2+IPTLo7Mr39/eswBHJ02cODmNHs3BYvZFKYHaKzCU6lt61uP3RAmxVIYilkRuuRGHMkNnVXiLc3p624Bsb2TiPRSqtHFFCXfUOJGnP+kH8Uzp1H/5Bkaje2nTjxL+8c9PFXS1tuJ+XtAIrFr828Fz8YjKDjdP6Nv+AESiwUcpvZ6eC6GbJUafYf1rcRRxDBQTuDIJDA6NgtrE6aOqzEHC3Ebc/7skvWthxs6q6xrLMqYGVLX6wifZKUr2dJ5+po5Cac/D4sGcN3cffVdC7WZLBZ++hS8y6cpd+dXc1BB2/oeRJufUy9m4qgkuhw40ocXcT3smyriyFwE/bU4+Hes2te3FjthJTBUS+E4pSTZ+UVq+N3dKPTpClaKeJi0Fjqubz220FllXShN1sFmQ1SZ5hTLS9nSeXo/MYZILt/l3VcDtfkYZt8dhXHxSzBKg5u2fffaDnwPlfoc8qn13X3tBIs6jexiFY/fNZGt8KCFnG3rW4/NPf6QN4iD12mQX6C0pEvULQOzfL9Nxm9f34o2UfiHSGOpNlgH+xqiV5Silmfe0nl65+gn8CILXd19tWza5GIfCmdOiVd6rGW9DwoHZoAZQ375oktkFss4cWkCCfD3VjfnODg00DpSTqGnSuOlLp+D4rvF+b7wzc5rXX+DicI/0ieZVSUtUGXMUloqS59Q6c+W5vTRoQWYjnoB08ZQnoyjeGUvnOJJunSET0Oudf33m8MvO4X/uoHl+eBbHP01GqyLsQk5tfVslOmsRMLsRf/UIhKU5nQDjxp9IZttib8ebtFZVSxFQeiqjFmKqqh0vWxLc/rk3iKs2MZ7EL6bWp1Ko3RtD2zq4fg5+JXW96DZPG4uRgPQkKQrRGo1JKrU8K0eGtDTRyjjt69vIza/Sa2nUEey3N10svhRaaf1CqRkNVv3MQtVcjuET6sjTFWR/aIgZKWHPT1X4D9S7pUdG1qEGd34weQXNXn5LGoTuY7xH3SbuRSBeAa+GziVChLFCmyDkmY6k1R8Jd3aaddGosszk09wHtB2ir+aLSBZ9NTMUtohfPRHlMsKioVf8wmV/oQ9PRvMrNxD284UYNKovhuYtRTMMjX6DvE3w+bnwWFXgXgBBongmOS12k4RgVOmKxEd4bb4odEdohXqiYvVDe3fWuw04jRW4MesZYvZAPgeRI1SnE7xV7MFJAsfsxSG8ollNG7Ek9zQWWVdKPR/K997M/Qv/6nUNgY7GsH8qy9g9ttfgGPuld7NRc2dh330fTjHPpKe9cOr2qhP9MK68msw3OYsTQ0uPohdxZUjwyhm09K7fuy/OYWTN6sYNjf2E5yrwfXL+GgE+GA0En4xvAv84zelsk6IRsmtlBWdJVZrtPpiDUjHlub0mwK6bvI3WjvG3wTbd+YQOzCGvudvkdxE5qmryD13A7nT19HzzHXhy3bwqXq8XM8TtxEZnIVh0VWtLb6QLkHnFIoOfXoyXjf728kG+Isgbqh2Cwqy7vVLn1Alh3+aEGVKZJlidqqYYnmly7Itnaf3ijEEXne33gOzBs+i9KND/M2w/egc7NwCnL4ypWNFOLkyItkSbJJIT1H4Ih18zXpkp8qwouFX+NrjC+kSfAjrnDrJeN3sbyfb9z34NO7wNuMxiQ7xV7MZ7GtztUD5RLk0FLNTxVRxhM5MaOnp7zUHZX4QrMsBEufNqdmO8TeDzfQC5ebhK0jUS6b47jE/Es1vV1vN55OuDv5y6+kW3Bg9R37ZQ4u7WVw3XdToY1rr93U7go6B6dH4qEP85bghTOyXpnQ1IcsUi+UVS9Fjsyp0ZsKWztN7rpxp2CgokN07jcjweEvczeOAeu4CrGRZOtcP07ZosG5Rb0mHlu/B6fGJDN9Al5M3qMajKKXi4NeXt27/5vC8WUWBrqjdwKIOIVqlGB3iL8cNnVXWNW5BW5m+TOgI9YaIwiZvaU5fvJWGW974wMiteYgO5JE5Nt8xfnd2ADeoUOxZsQ5e10bhVy3Upvnn8zm4ik8Hmw44ZUFwqOF3g3IyiXzGQd2/TUMcb4P7u7w92R/HfNohY+Ow6nWk8uHntJ71C51V1oUiuQ3sU3XUMqERiihTosokb+k8/cL5IQTVhPzK3kZAPXGmDntgBhXzMvWklDdr8ZVsxOYHwWrZ9xEZuivWIWttCEEpifqNQ5QnyDvGwkkNgU6CvsDmB5xFvY2Cv2m1aAe47tToRN3E995QLj/pjYtXkZSTq7/3ZiXYdRfpmcWW+EqWtTVu9NCsS9bBPlWHWUAYUtXKhEv6GVs6T++ND8OoJSB+VGCD4J7N7ptE8pkzYqaF3/mi4m90+3imIoguoPdzP4czNC3W0RXqUTrD95ASzjLp64ubKTg0EjX5mYQuUIpHcG0ki1lzjhp++LXLje5/aAeUy9dxO1tHPmHD7XKqMuIF6CuEg/kwPv1nZQVbQDKXtbmakGWijpTQIYWJ/RorP2NLc3qzMCp6wYBy+42CB49WdgG5z3wMY/gCHd08xeeVNNezPqY/8QU4hz/AwIs3xUxM+HaGjYH3za/EYXv9lL/TFU1bH/X1lOJk4NR80RN2A37L2eRgL65lq1jkd392+b6ZCnUed+IV3N6TRoVOqG7BJ3ZvtfWtzytxi86qZIZihl6mlmMJHU1dL2NX+CekLc3pHfcQ5bo51PN8UNm5MZiOj9hIHsnPvUYN/yoCfo0I30ltW99qNi/D786MHrqI3l97BYiWw4O2YRhi3+ozWUQs6uk7PBtkWVEkixVaVfeP77o0aL56eBDT1PArxiLtDV2h2ta3ms3HwDU9TKVcnN1bx0x/VrxIqhvwl1uiATV6tD5lqaTd1n3MrAqduQ3sE3U1blQkbomjdFmmaEvn6W0zjvylXlSnMuJFSxuFmE70q+h/cgapz34f/r53UHfzS9a3ms3LOI+/gexXv4PYngrq9ZqIvVHwPvG+5S/1dFyfkj3TZfQsdjc7wuBw/M6cn+/P4Vx/HdP+hHCudf9Z+Bhcjc/g7GAF87298Pj3tbpEvFhEZqGMqNW/ZH2dbIbwSZZqg3UIn1Y3VJq8JI5iDdaLj738sn523Fs2UK0VER2ZQXz/DHyex90oxM54cLI1OHvmESSnUJwvwqxl6UymnorW1Wk7RO9uFFDJvI++r7yJ9OkPYfbIPF4dpQ2Cpysr54+h8v4zMDm96bB+ZotO2Hwygtk0v+Rp43PhKl7dMinHdzCXslCwCsiW85RIRWDyi2i19SrmYXsVZRoIT+DyUAS3hpKYz8TEm4hFnS7RP1vAgYkKeimV67T+pdsjdclSbXADqkxyY3lNlsRRrMF68eTLL0t9a+BGxGDR2TtGraS7vJZPZ0517HQRds8cIr3z4ptZbmQGdWMWdczD88pwjTy82B36NK7DOXAJ0aMXkTj1AVKnLsPunaOjwg1+442dDyu/PKo6nUD5w1OoXz1FDW75KT+TLv1liwaMdg2VLr9BJUCfcN2xUY5a4tHlUtTAYsRHgRp2gf4tmCXkSZhnozXcTfsYzxq4kePpyQQKSf5F8u4Grgr8rP/ITAX7ZyjFoUH7mkCtUhx+bp3tLKG7O6GlvFMcyYLux+/IRk6+jviLryB5hHpYkU7opRuDeMe8ZaE256B4vQcVSjP8RTroZf6yOK2BB6uDs4gNLyDWW6aTo9a4q9o1qNE5sQimfnIQpXdegnn72VWPx6Q5g4u9NVw8Fr4bZrPBb0hIFkpwKq1pVC3moJSMo5pIiB94aHSNm4RUvojHxms4Ph2BbYWNvtP+r/aJr1hOARonyTJQxZ3i3Jffka0lP4HzxBsY/fpZ1Gv8oeiVuwe/GsRc5hY6p1RurcsrTAsojTINGq9EMfbvvoDqx8/BCUZWPR78Xv5blJr95ER603rZ+wluhLybB6/exiOzMYzU+8ICxnLtQeNuGjFDlOtxlonH7i2dp1e2Uz6CyPQz4uduxK36TQbfTa1V6h2lmzutncAN3qIGP32WPuTZ49TgB5fsbyfbthLIlG2MXrnZ9dsHHgTwPkVrdRyo9GBPPblkfzvZApK5jFUlLZBlgqUoXRQonVXWhSK5Dezb0nl6xfzd1trtIUy98iysIClSk82FXFknERuweeCDHNQclH/6PPzpQTLW+p1VAyka3xzJR5Go+TA2I826j7BdD4evTqC3QDrW9v4dpQu1jcM/TZ1ZlEkRPslKbwi5hE+yIGmzbOk8vW4HlGu7l5/GwkdD8Euxe9Dw7z14m918EtNv7Yc/fgKopxv7176/nWzKetHvZrDv9hwSXX4n9X6Cb7RlFos4kI8h6UVo/3gnqUBK+/7r0qgqOfzTZN0UcTQOnaGI5ZWoMo2Vn2VL5+l12wzisEr7Mf/mE6hP9dGG2A9Vw+dt5VeQVG4MY/7Hp4HqAAz5jvu1Hg/e55ifwOEJD32zNOisVqng4YJ4yxqljaOTFfT5OTqRnVX3X0CyKJOsinTo1fW6oSKFiViYkpVfQZRJaenpt5r5XZLGjc+hevUw3IVUFw+ibSXCjefXClZu96Hw0XEkFp+nA0n70rZ/a2HTtDBojeDARAm56fzDleZQC4tSLz+cd/HYpEnjGd6p1v3rxAKShU9yW5GA0GXZkjhKmNivsfIriDIp9yWnb7IB24hh4QdfwPwbT4npxocBkZiNxStZ5N94Du65z65hP1fnA7UhHKT0IL2QJ+fDAX6t4LG7eTx5swjH6iUPXanb9qsTM1gXZhszhB2qS+qwoljpDdHqhn8aFJZJuW85fdOmXrPWh8q5Z7Dw2nPwCklYEX7b8IOX6vA2RWjb6nMxlM48i/qVx2B4mS73P7QjhoXRxQgevQtk5uYeih6fxyLD05TeBLnw89L2p33/dJvBPmFK5j+CJZTOLJbXOHSGIpZXoso01k2lh3dk2VKnBGOLbX6dNspx+ItJ+LUATv98+FIo/oqROK3vP1QOX7rZi/zbdFW68AywONy41b8Zx8PxDMTqdPVz6yjZnnigbKM/zXOvIB4mq3sYGZ/DkSmgv5JAxIyvbX815o+VG6peTYdefSWIejKeWKANneKEz96wRn94YcH3xY4gqKRQvdtDn34JRrQKM1aHYVOPd58bPjd4nmGq3BxC/t3HUD3zGZjlIfELJsvvz/ptfluZ41voqZhw/SrqhksN33hgbl7xLE2qXMPe2RqOjhUx5PUgRg1ebf9q+ycgWZQxS2EoZkXokhtxJOvSiMN6qDaYIXRZpupu/bM3K4D6OBhuFsVP9qFWL8NKlcQDZYHJvb7Y7LDiloCPVCimH8Pi+RHMvvYU/PO/QFvZQ6X3ZtDNv2xr078huvKZhRlUTRflRAw+nRCqV7sfsCh/Ty8WcfBuEU/d8pEz9tB4bP2PIKt9aPTM7SzB5kpoKe8QZ6UryX159mY1m2/Tircb95xH/Mkz2Psrl4S7XnU351mZNUDk79Gwh73998dQOfsC7LlTlMPzl/1av+C+2fuvbH678awxi+s9VVw5NCgeIxaF9wHDN8ZxdMbAvhr17j7/4kkz7Vptf1YC11upviinCsulLwqrrU9fz5a+4Ww94N+I8u1FGJm7iO6/jOipc0gdnYad5mfe6aSgvPJewIpYosHXZuOYf38E/s0nULs9iiBP6YyXlrW2DvWghqJdF+96vxGfx/RAD8rJeHev51gj7Hod2fk8HpmpIVeII12LIRY41AjXue5Ga+PPlWiTGrEet8ESursdLT39g8g+9Xe+OQf74FU4+6/B2TeG6MgUov0lKqVy8Z4Zrr0xcAPXH04r3+pB/c4Q6mOjKF3dD3/yEKwgRR8UpV5Uvtr23hsOUAuqmI4UMZs2MZ0IMJ00UepJw70H9zaipTIyhQr6FwPsKdvYu+jBQQr8PYW1bW8rr4SO9fQAEmuJsywojn6yPbA9fSfUzDFYI9eQfPQGUoem4EcXadBboN6/suyvm/De8ePL/GAY77QO3wvEjExQSqBOPZlJl+75syOoXDwMY/YQbDMnaz444F/3nqHGf4cuOnP9NP6xPVQtH9Wog1p0/V9K4alRztdt10WErp4p16YGX0X/XAUDBQs5s1/W7A7cyFp6eMVtWK0x6os30CHeSnEeyJx+NTsIyqhhDLW+i0gevYvcqUmk9tMJYFCvb/jUwKm2wQ2da3uoV1xYtpz7p70NxAuXTLgVoDSWRf7CIAqXhxGZfhKOMQDLoBNBrCnEZm//Ztj8oqeaX8ZUMIn5mIfJPVk6CXKoRWjASy2L6/MH2+kVO+wy5dAo5gaIF0vi+fuehQqOlNJIWjlqoM0bhZ3Wvx67E7h82XpUIHpkyaLiMlgxjoIeh+Pej+fpu7fpQ/WpgZt1mBHK/a1FePYUvOhdBOkpRPoWxHvwzagLp49aNu0i5+h+1SaJoD6bhZEfQKR2EKbbS+dKDH6dcnn+AWaeldn07SW5B7YY99BJzg2b3wXvGi4q/hxmjAKlhT5dBfhbVOEiOvh+QFZ+L70v6EXSTMHyaf8ppk1nimnQMdjA9jTQwW40YulaDlzevrgOUS7jNSoyt2G55RkPfE6/Fub31vDLmmBWEESq4U/80CXfpB7fcDxRz+OXM1Lr8PntpzVKA+pRytUTVNacjVltPQ86U08Al45Dnf7yF9J82lWXpL2eSS3GpobPdsSI0NWNr2yhrdfrlldCS70VAonyFaBXb6BTHGUzPUw5/S4ePoi2pje6dpZYrRHqizWgxeH4a72SPADP3uza283WRZSxyrpQmqyDzYaoMs2p1iHiSF1AslqmQ1GLg9WWpyyV7Nq7dje2gGRRJrmtqAXsa4heUcqSONJWUCazrgtoDlbv6/P0u7xNmSj8I32SpdrgBmSZqCMldDRlSRzFEkpn1uuGSpPF8rs5/S7uBbhRcVsTjUspqvFpaKnXAR3L9XiSl1teQa++m9Pv2ptu6z5mVoXO3Aa9TCyjsfCLgpAbuiwTkCyLQmkrYxYqM0mY07OD/0jZtXftDdkaN3JwKQzFOoSP/oh6skIj92C/5hOqxjrYbIgq01iozCRhT88OeRbs2rv2Rm0ByaKMWQpDse4QquRGPMkNnVXWhdJkHWyqOmqZ0AhFxRR1dnP6XWwmuDFxwxKtihtaO0us1uj0xRrQ4nB8sR5RsDw6xdnN6Xftrm1dRBmrrAulyTrYbIgq05xqHSKO0onCP9LH3CYCSiEWqmQVZ3eeftfu2haQLMoktxW1gH0N0StKUetoxFHcBvbpIqAUYqFKVjF35+l3uWsWkCx8ktuKmpBlqk4jjibK14ijuA3sa4nD0LgljtJ3c/pdbAa4EXGjEq2JG5fiNujFndCxXI8nebnlFTrGkdjN6Xftru2Gj1XWhSK5DXqZvkyoSF1yQ5dlApJlUUMElEIsVGYpShf8oDxP7/su9RIVeFiA7xQRFb+67aNeM2H5CaoQg22macM37z0zDWwTWzxfH1RJ5V9cJN2uwjcrdMxMmLWk+OKMYcRIkuKLMgzP55/j5NesCFPANB0KKb6BE2KV9fNPGnEcblRNN31uFKcdXN4ebgk4jl6RuQ0rLk9oWY8eh/i+Pk/Pz3979AGN7A+wZ18EPX0GIrEKfKsMh190RHvu1unwBXFq9DYmxnyM36pjYZrK6rk1r2e7s+8X0LOnjpEDFvoGI4jSMRRftDHrQhimxy9kMuDWIvDqDnUmNt5/3UfNn8OBozb2HeLvFoTxPnxvAXOTcdhBZsX1Mvyghp6BOh5/rvld3btjBYxdp9iLe8J6ywUg1s1OWK1cgOOoistAj3P/cnrDpQZexOjRMo4/ZeDIowkMjiSQSC3/RefL5xdw6eMCbl02MT2Ww/xklD7wFfZ024Mu0nYBA3tLOPaEj0efjGH0UIaOIfXsy/xAda0SoFrxkZ8P8K//oIZSdRJf/LUkXvoqv4syxL//40u4+H4KRmWf9CwPF/N45Kkq/vP/rvld2nd+chdvvFJFfuKw9KzSaAl6o1yCRmvtMo7EfcnpqX+AHS9g5NgEfuef9+FLvz6IQ8fTosHzKcivtqlVObWhK4FHF0/5krOjJ7L45a/vxW/8Xg5PfX4W0VSV9sDf9O17OGxq8FYVmaE7+PLXo/jqNwZx4skcUhlLNHjfD8SxaxcrAiTSJpJ0rPlbgfVyhhpBAsmMiXSPJWT0QAy9ffIdO431dZY4fQbZgQoytBxLiuL4no3iYmvn1bIY/2FoTrUOZl0X5QzJHVwtDqFKXhJHyn2Zp/eCPPYfruAf//PDSKZbX1nHdfNzLs79bAYXP1ognRIgskUMiVx/FJ96qRdDR68hGudfyyanJjvB9v0KdRyT+I3fGcGxx1OIxbUcnFAqUG8ujt0yMu/CdwPYRhq1clTUV3juM8M4foJ6fm19+voFJA/udXD4eCw0CBynMB9DpdD6jqCWEHoMKWodzKwKnbkNuq+hK0UtI7kRU/oEiO9LTj84OoenX6qJHl6BL7tXPinjx3+/SGdFHxbzHmzboPyUzszIIk694OPkUxn09IbfdOarwCcfLuC7f+Fg/Cq/G/5+vpdm6zmVK+HR09P46teHqXeOUO9OqUY9wMxkHa98aw6LC/FwLMSvSqSlPMq9uRX4AeX4dJXwXDpuVyi/9yzsPTqL01+s4nNfHqH6YZzv/FUF3/+WB8uiNId8+vp1nP5iDS/9qofh0fCnQc+fm8Mb3zHx4Tvx5kBWDyDRHqcdy61PQIsnGnaH+Aqd4rT09FvBPEvDg1bO4XVcPl/G698u4cJ7UVw8a+Lu9SjGLju49IFJtoN3f+Dgo/fKmJkKv8ZvR0yKkUU8k6fBMJ0obevZzuz7HjI5A4+fDlNCbvD1WoCxa3V8/2/K+OAtB5d/buPSOROXPzDEMbx8zsLlD22SCK58EMGN8zY1fLrKUpd3d7yCa1cKFDyEHTEQiZZhOp2PK4N1lwbQybSL3oFmT3/9UgkTt+tiBoghFuFlFUsJHU1dL2OX8ElW1BD6o1hA2oLbRC8TRLzlOX2Aspil4UGrwvxsFR+/V8VHZyzqHXrogMmv8JOYpk09Vhq3Lmbx/k9LGLsevtmMY8YTJpzMIl3mi7I+T56V+OUXdCIUiSnnJ79aP78rIDDKsJw8nNQCjQnmEUnkaTBIKRItoda53Pbzr4r7RpGuPHlEkuHyuiAyD4/KeU3ty/OyvE3hdtH6DO5xm+XcEwdmEVa0Na7pUH3upWVdFt8sU1kZB45kYNHVkJFfqOHih2W89f0AgUvH0EpAvAKdijm+Scm8afJvu8bFLxuyreJVyw4W56PixBENhZDOecjtCbex/Xgw2GdYC4jESnQ1lk7C3TEPc9PhLDhDLMJ1JQtorGKLOkqXZQKSZVEobWXMQmWWonS9jiDiLX+ePqBe2YlVWmZpLnwwh/Eb1MMYuSX1dfvW5Romx8MpOIWBfhp80eBN1As8apCTiKYnkMxOIZqcB7/30g9o4BzxEE9WkMzNIDd6C/sevYnRk7ew59BNZAYnaUBGjS5wW9anhJc3LY/y5jLFnUTP8BiGj4bLC3ks5PTIVcR7puEk+LejwlgsTJZZpXVMIkHbFc9MUWNdFNvGrcyw6mJsku6fwsDBsUY8lt6RCUSoTKQlMp5nzsOITzUGrYypO2XculqBY/VQFfLJuixMK9mmR8uU9mB2mn9QWpRiaG8Uh46H750XntDdYD45Elna7kT4TlG2eXeqxaiYFtWrc5liAY2VT9URPsk62GyIKtNYqMy6LllAMtOW5/Rm4jq+/Bvxlnz+b//8Cn7+egKFyeEVl/eCcXzlm1H88m82f5j3rdfu4t3vR3HjQo56HA+nPjeO05/tQf9gHJ+creNP/89FsfwTL7o4/bkEfZApaigBCcekqLT3NWqjd276+LN/tYhqiXpP+YYztd66O48Dj5bx3BdsPHGaf3WDmpUYN3JpE3Ru0EDOwCfnCviHb03BKxymD8Emf52Wd/GPfs9ApscWg73Xvk298vc8RJwIBvbfwud/aYjStRR1BrRWfuuSRJmyjnNn8vjWvx9HwjtB20Q9duwuTj5Xxu/9s0OyFvDDb0+I1KYyf3DJcVsL9+8r49NfncPznx+k42jRmMDF2Z/6+Js/5htVYb12nHh+Ap/5ShSPnuoRDZ4nHP7DH0GkU+LmVocVdYqjQ6++BHocVXEZrBRny3N6oQhporhgolKk4ZZerwN7XhSVkkWNpvnGYtumA8y9HZWzfuKJHIb3xWnAa2PkAPD8L9bwzX+SwC/+eg+OPZYU/gwN/FKZCF0hHKSzEeT6Ixg9YuGpz9YoV+YXwlJgsd4Atfo8PvvLFr72W1mcOp1BVi6fVstrkulxMDBEJ8bzKXzjvxyAkb5GJ2pB9NKmRbGpwWdyFgb3RjC0v4oTz+Xxm/8kgq//3j48/myaTlSKSdujx+zbE6ETLY2v//Y+xOPhFS0aC+jkoFamwXMDkZ7ox2s9nJ/1aMxUQK0Wxk0kLaSyHurepLwiacsQXK+K/UdStL/hALZSdvHjV29heqJKjU00K1G3nfU4S4SKRJmqG5pNoT+KBdgWjpB10csYwi95y3N6J+7DaXvVHN919T2uSAaT5HbbNKJiDtjT3tXaNxBHtoffl85pSIBSsQ7XDT+43ICNz3w5g6dfjGFoXwyTlAL85NU7+N7f3RVy+0ZFNBTu9ZMpE8+9lEJmaIFy5ny4btOjlGMWjzwJHDnBJxJduus+rl7M480fTOG7fz2Fb//FLL77H2fw+vfu4M4YjSdo1bm+CB59Io2jj3mUAtBRbuxQCB4oHnssjs9/NYMnXnBw9EQGhXwN7701I7brJ69M0TinLhoy5+x9Aw4efzojxhI8FuAfJrEd+WlKeK5FaUX4iMZKx385u1I2MHHLQXGRZ3bC9caSLlJ9c5R+0U5pdQNK3Txrgo5vgEw2HLDyjM+HHyzQ2CJMP2V1AbE+oTSFfboIn6rDpFgKQ7HuEKrkRhzJDWFiv+Qtn6ePUcdgR8JGqeBSS2HpVF+3xS+V8LM3Gvr3JOjAU6Oncr4hUyrSByIbfSodwf7DKcxMl3Dh51Ua5FXxg/+vjFe/Fcpbr83jzu2yqMuzQYePZ5AZoIEtDXQ5XoTGeieeMdA/ZFIawjd8gMKij5+9RnH+toxX/qqC7/5FVcgPKe65d/KYngzjOY6JZz7Vhxz17jRCpe2mYBpGD6Vx8FiaTrxFGsBX8M6Pqnjt7ytiu77/NyWcfZsbUHh2iwbIjx9hnrahRttiIpFojefVqdFXeF30Xx4vJWuy6SpaLfRgYqxKJ0B4JY0lA4wc5BMgrMcQdQ0fkfQ0jVHqjePCU875mQR1IuFYTYYWEMsIpSnsa4gsEyyhdGZdF9AcQpUs1qP5BCTLIiEtPf2WMEOxRKVaR81117Y8SzukP0IN98DhLPXa8mEqGpTNz9Xw7b+8jb/8NwWc+X4PFicOwy8dgkfyo28v4uyZOXGyKAwMWMhmw1kPnpX4/FdG6RIezjRVKx7l/nV8/HY/5u/spwvBKCL2MI0BRrBw9zDOvF7EtUvzoi431COP5KhhUGxj6WvEa1UP1y4W8Jd/fAv/9/86jx//XQoTV/aJ7SrOjOA7fz2Ju2PhCaQgdp3+ZHNROtnDtELHWo9fJzZM6lD8FD75aJZOtvBHnJNJ7jTSlJrxPgiXqGtbBvbudSjdEgMbcfd8bsaHVdsHkx8O5Hiyrr4eXcQ6lZBL+JgllM6s6og4DI2FT3JDl2UCkmWRkPuQ04e6DmGq8jXwEkg/37A6/8F040Obm67inddmcefSIbilXjoo1DtqcSx3BO5iruVu5OAw5/0x0aPW/XnKsen6QukIY2K8iFf/7hrKdDXR4zSYK4k/Tfh+lU6+mrSaOHdmBt/91hzmbz0CCwP0QTR/aXu5/RQuVd4BS7Znncxpza1riyiXwpOUr6CPPN5L6d68eIpSVKM/BjX60YNpxBPhVXeRjveFD2cReNTZGOGjJKquHl/XRR0l5BI+ZgnWGyLLxLIMaQtuE71MkMassmx5Ti+gWCIejcCJ0AGUdVaLtwTSzynKfn7ginoohuf5qFDv7Ltk84Mmsp6KZxlxzEy6uHW9+YPFfKXghh9Q72wYJZHvi/oEvnKUS3wyLKDmzRFPoeZPEpMe3KHc26BeuHmjhmFbSVhWq49Rq7qURvBzRZHw1dhym/Tt6wjy5+erjTSqBe3Lr9P2fMrrb8RQLYYpSiRq0iCfGnGMBrNmWVTnqVjLLuCZT/ejtz/cr4V5VwyC6+p2QlixwWo9LGpdzA2dKPzThCxqiIBSiIXKLEXpeh1BGquiLZ+nr5TosNXCy6KCTS2LpVN93Q74mXsSHdOTJTro1LNTOc8x6wNZBbW8EmXzLEOl7NPgrTn3n0o7NO7g3JgreFRN1BbI9UXxmV8cwle+EcVXfzOCX/pNh9jBL33TJonh+S/maMAcpkK8LeO3FlGlASJHCHieXYcKSyxUUanN7gTy8wwL76cOfoTYt8Lj0FheylrtwDNRL/XTlSzSGOBzitfTx7l7eCQCs4pIcp5SvqiY2uR6+Tk6WcYc6hTCWHrvGipNae95hU94WsE+XQSUQixUZl2XLCBZN5Ue9vSsMbNyj+1a1aQPjR1N2HRV5LxxteUDowrT5p6GHSFmpsri8irK6V+JLs1qIKugll8ufkeoehq4Z/vsl4bw1W+m8bX/NCWmMb/2Wz2kk/1bOTz9Qo56e+op6eoyfosGo+8UaUzhhj2LNvcuoOLrzIpmt0P5+bx33dYKpkXHhd/LT25Vb7Xj2W7znXC+Iz5+s9a4kkQotXvsVBbZHv7BCrZdpHqKtGx4jPlO8PRdD265h3yWqNOIK1kX4WOVdaFI1iF9qo5aJjRCUbGXxBF/mqybSt/6nJ4uofzzNzqSaR+xhLwF3l5fY4MafSzutdzN5V6d0w4utywayB5qDmQVVouro16nD7BOHyiXS59CmN64dGWpU4qxjFAjH7tWwU+/P48zP3KQn+FtpUFi0Drb0ojPzEoHbodw0Z8yXT1Ki61Xy1jMRireOmbZKL/31gSufBIOyKN01fv8l0fRtydGRQGcuIH+YYM6nnD90xNljF2v0IC+h5ZXVzX+02SlN0TWYRZl0pbmkjqqTNQVjpB10csYwq+zFMaW5/TVkgO3qnXVhMGRJKUOlB92qK/b0VQNdqw1vZm4Q73pLH9TKDwBzn/YHMgqrLZ9Om5czWNqQj7L0wYeGP/gH27jf/uDD/F//MEF/F//8pKQP5LM8r//z9fwJ3+4iHOvD9NZ0ke9J9/dpdSDnwPSoeITL7t9nUD+Wt1Fue1yOTwaxaFH463LS1mvPT3r0TEMe3Iuy+To87IKlPOXMDSSwpd/7RCdZGHHMztTFgN8sSj/0ViPyb6GqDKNG8tKYSjWHUKVLJZhXXJDmNivsY4tn6c3/DTlubGWu6qPnsphZD81WhocttfX7dHDDvYMt/aYU1MeFhbCZNKmnn7/weZAVmG5eDyrwl+W2Ls/TY4QnBq5LqVa1DMbfhbFPH9lkRfg+jQwpjFJdeYAFsb3Y3Zsn5AZySyLk8MoLeRQK/NvOFHDEOvix3uX9vSKl9u+jiC/wc/KlAdQyNMgXU638p3R0UMxcQdZ/MSoisGqpq/FNqt7UC2kxWfEjUbk9slFGJE5SqFK2DMUo3QqbEqFuQhm7oSPbYg4GjdiMhELU7LyKyhT1AnVZhXNIVTJaruVT0CyLGqIji2fpzfMOPKzAfUO4dOSDL7TefLZKB57jp9E5Msq9TKyPj8ZCWsRo48s4OkXE9h3MBwo8g6XS/w9zDS8alLU5w+700CWkhYq18YMku1YHtmBusjDFXhQXKYY/ERi4Ceo519EsRAOGpPpCI4+kqWTispBy7gZBCQ6I0hRXhzeIVbrEV+85n3SweWKZb12bodw0R8bcWqUcXFV4mlGBt8ZPf54HC98mVIPZx5+wMeXOgPa7/BKUxfsBmXqsQvE/GQpT7c0j4sSE2mRlumfUSJdQzzNT1UWxA0pXqZaCVApJujKTfk81Vmy/UqY2K+x8isoU9URuu6UrGKLOEqXZQKSZVFDBKRivXjy5ZdDdWsQPpdRRCxVweFHUtLLN1xspHsMamAl9A7E4cTqyPb5GNwboG+4jGc+7+Kxp1ONaTLOuy99vIALP0ugMMtfajZpkOtj37EipUsO4klb1CkXPRo82+jpM+lD40EwpUJmmS7ZPkaPlXDiKRt7DzZv9Lz72ixuXLLpRKJt44NkT1F5lLbPgRPlr8RFaHA6RycY/4x+QDkvz1+XYEcqNMDzkMy6yPT66B/ifSnC9yw6eTz07vHwxPMO1Q+/v8rz4dcuuqgsNL+b2oQPKzqLJ5/PiFkSBs8yvflqHvVKUjyOwScy36E9cDQptou/cMNf1RsaNSk1KdK2WLROmyRAz4BL7CNH0ksnee8gCemFxTINijnVbKabfAqZ/DQddTSJbAmHjoVXwTlKY3jCYe8BRzwYx7h5tYBPzlqYHKNOpw0chw9fSy+rHBp3rNcBK9bjOFTAJ4Ho/VVF5jYIt/6UpcK9tv1gHkdPVfC7/32//BIE1wjBt7R5MHj5wpxouCP7+LUfYV7Jl1kGDyjnZqr4i397DeMX96FWTIv4yUyA3/kf6pQG2aJxMVQ8PhjjY4u4cmEekzQO2HcojdOfHkT/YHgScZrAN7f++A+ncOksXb6NHtpwF3bqKn77nw7i5FNpcR9A4ey705ierIjpzjtjBbH+kX0pcTXgZ4EGh1P40399FfO3R+HVYjj8mIvf/n1HPHBmUWrw5g/H8cO/K2Nu7MjS48XP12Qu4Xd/fx9OPElXD8L8rIs//J/GUFwYgG0k4VGPHU1N4b/4Z73UeSToWDW3jcGpj3gArQPCRwd8/NH/chGzt0bh18N16DCcCTz2KfqMfv+AOP7FxTAeL8uPNDP+47+7jLNvJlCaG2k2tlWgqnXeMgmqsKTxtsVfcXmCvlg7wp6+vfRe23Col/Fw5dIY9d5ZMd+rIxozRY7avyeGWIISiTjlxxRDXM4Is1NVvPPjWVx4e4Qur9xLUwHFN00fsewUBijvT6aaOTTH4/nm3v4oDh/L4uTTfTh8PCsaqDrh+Fb6u69PUoOnXDbPX5HjmCb8WhYWXdLTdGXgeXoFTon2HUziyCM9tA+9eOLZfhw/kRPP+gztTdIJAlz8eJquQlkxRZvrr1FPH23p6a+rnp43oeV4UU/vLN/T8w8b83NIgRvD1atjGD0SRd+e5rYx+C6y2G9aX7s4UUNcBS98OCW2z6vTic/r510m5uPMDTyVNfHoE3R1ojjc2Jl5WUN+EK99f4r2g46hv/SkkeHC3VJKuFgLWuqtgGXjtbEoXwFcbr342Msv8zK8gNgX5ntsm6Tw05LlvIPrl/I0EOV5X0oVojYdVBpmUB1+doV7RG4gbLPwK0De/vEM3vlhFVc/6KUBY5Q+JDEsEXFjcQMvfMmklCgq4vA3ss6+M4PXX52hk4dSHEpRwg+d0gHqtTk2Pyh1gy7TP/qHO/jwzR4sTCfFTZrG9lLaVFywMXa9iPn5RUqd4qJB8WPMHIMlSvFYWOenRWfopDz/wRwufVhCeSFLjdOhlAJ4/LRFVyk6wWidt64XMHbVRXmxt7H9Yn0k/C2uCu7SAD+FTCYq6hcW6KR8jRp9Tb6oiSrzDz1Xy1HcuVnG1OSieIQ5HnfE9vG+dRKXTsBy0cdi3sXPXp9DcY62z6NGLzZCboNg7ojopKxPiIf6eL/4RKhVKTmlAe6FD2Zx/r0USrMZ+jzpDJfbrkTtC7NQJbdD+NrqqG0IjVDa44V/ljJTe5HuEMvfz3dZirdwIY/h/QEGRykt6DXEt6o8iy7d4g1nAQ1Kqdn51JsHNu6O+bhzq475KcqT6zkZpYl40sfXfneBevKkyMF5IPYG9Ubv/5h6eOrZ+4dNOpn4RlZdrMPyo6hTvj8zGVCvW0d5foDy79Y0QcG0i+gdqolHhiOxKg3I+UVKVXEnlI+gxS9ToqPK3xoqLJiYuluj7a2JmzZ8gucopz/5LP+gc4Qap4vJ8TJuXw/opFi6HzwArZkTOPVMCv00vuGetVKu473X6djU+SrUOhPEA1P+at/IQUs8fx+Nt77sqX373Lojnso8+84sDYip0dNxEI2AGwcrki2ngszAAo6f7KXjRtsuvjlDjd+tY3qihttXEygXWrdFW7yJtrjMjfRlGXSM0wGi3hrjKdyXnL6T7VFDUK/1CyJFOA41es9HvU69qZegsuZr/ZaLx19d+4VvzOLp59Piy8pho5/BmVdHUK1YcH0auAUlikHroXWYlB4YdELREFd8619h5e2l3N+lbTRoAGuXxGvz6JpB51HztXkmaLCpvdKOl+evHHJPzDM7/DAbf/XKlI9JL7e+8FV5HN2k4xMuq5crKLvxWr8gT3bztX6rbV8n6PEZalvoeiFmgngw3dLYFLdBL14JLfX0eIolWuqtgJbytnjb6q3FYiD7PzYHsqrR/+yVEUoRWscNOxptjYD5nvW87SyxpjiSl0CLx+sR6xMFy0OPx6euWGg7MN9YWumO7C5LJgr/NJnLWFXSAlmmWMRR3CZ6mVA11sFmQ2SZYnaq2CKOJsIn6whSrIv0qTrMQmUm2fpnb+4h87M3K92R3eUmt+isKpaiIHRVpjFDxRDlGgtVsvBJ1khwQ1SZViiW7yCijIn/SFa2YKkLSJ9iUYekpadX8rDa7d+RVdis+NvF1n3MrAqduQ16maorlmUII5Rl44k/TdbNht5Wh1mUM0tpLMDCpLFQFbdBL1Nxwp6eC8SpEMrDavsev//Fw8wEhMxOBliY8WgQJitJYdqRtsaqN2RqK2qB8NEfUU9jAWFIVWOhKm6D8jE3dN0pWZQzS10vE6RYCkOxDuGjP6Ke+KN6ei5glmfCw2rzlFrM6cftKw4+/hnw8RkPFz8qweMHxjrU32m2gGRRxiyFoVh3CFVyI57khjBpLFTFbdDL9GVCpSkijhJVpnFjWSkMxbpD1JPc0Hd/c2pngT9s/vDFp86NoJ0lVmsU+mJL0CFuV/EUOA5VaNn+ZbBSnG2V0+/anW1dRBmrrAulyTrYbIgq01iozG2ilwlIlkUNaQE5hI9ZitJFgRImjaXa4AZkmaqjlgkNldPzaaHJrr29bAHJokxyW1EL2NeQ9orEQmWWeiOeYgmlM+vSAnIIH7MUpTcqS9bNtqImyCHKNRYQRltPv8vbixvCkCzKJLcVNSHLVJ0l8UiUrxGnnSWUztwSjyGMUFritfkEJOtmQ2+rwyzKmaU0FmB7N6ffAaAPWnzK/KG3s4TuXgta6nWIy+vjxrZaPH2xZSHjiYrLYE1xCFy+m9NvQ3uJMBELU7LyKyhT1RG67lQsRcRRoso0bsSQwlCsO4TKLEXpokAJE/ulKV0tED5VR1ZYEoeEfdtqnn7XlsKQrK7jzKpYulqgfKJcGor1wiXxJDfqSChT1AnVZhXNIVRmKbpPQLIsakg7hI/+iHJZQcUT0Hzbap5+1w5ZQLLwSVbF0tWELFOsLxM6mtIeT/gk61Am86rxJDd0ovBPk2VRKG1lzEJllqJ0vY4g9u/m9NsTLR8qf+DsUA1Ag3Kv1gg6lutxJXcVT4HjUAVuoKJ1avHboRevBL3ebk6/DW3lawi5hI+5DXqZiKNx6AylJZ70CbSxbjb0tjrMopxZSmMBFiaNhaq4DXqZvkyoNEWtg3l3nn472EThnyZzHVaVMBQzWnz0h1nE1Th0htKIJzn8sxTKLeqGams8yaKcWep6mSDFUhiKdQgf/RH1ZIWW9Wk+YdKf3Xn67cBE4Z8mcxmrSlogy9q5Pa4ujXiSwz9LocqYRRyNQ2coIo4SVaZxY1kpDMW6Q6iSxTKsS24IE/sV7+b02wP8IfIHKj5N/nQVL4PVPnQ9TAN63Lb4G4rXDqrA29+yH8tgTfEIop4ej3g3p98GdsPHKutCkdwJskzVVcuGRihqHaKO0ol01sFmQ1SZxkJllqJ0UaCESWOpNrgBVSZZXyZ0NGVJPPqzO0//MNsaq+s1U1tRC4SP/oh6GgsII5RGPNaFIjlUG9B9DdGdkoXKrOuSBSTrZltRE+QQPsn6tjYq6z7Jqmh3nv4htgUkizJmKQzFukOoknkZJaGjKY14rAtFchv0MlVXLRsaoah1LIkn/jRZNxt6Wx1moTJLUbpeR5DGoQr8/+CPlCaDDlOiAAAAAElFTkSuQmCC;" vertex="1" parent="1">
                    <mxGeometry x="691.24" y="590" width="117.51" height="120" as="geometry"/>
                </mxCell>
            </root>
        </mxGraphModel>
    </diagram>
</mxfile>